PragatiNarrow-Bold.ufo
<glyph name="exclam" format="1">
  <advance width="159"/>
  <unicode hex="0021"/>
  <outline>
    <contour>
      <point x="35" y="399" type="line"/>
      <point x="42" y="304"/>
      <point x="48" y="210"/>
      <point x="55" y="115" type="curve"/>
      <point x="103" y="115" type="line"/>
      <point x="110" y="210"/>
      <point x="117" y="304"/>
      <point x="124" y="399" type="curve"/>
    </contour>
    <contour>
      <point x="120" y="80" type="line"/>
      <point x="40" y="80" type="line"/>
      <point x="40" y="0" type="line"/>
      <point x="120" y="0" type="line"/>
    </contour>
  </outline>
</glyph>
<glyph name="quotedbl" format="1">
  <advance width="227"/>
  <unicode hex="0022"/>
  <outline>
    <contour>
      <point x="203" y="399" type="line"/>
      <point x="132" y="399" type="line"/>
      <point x="132" y="314" type="line"/>
      <point x="144" y="237" type="line"/>
      <point x="190" y="237" type="line"/>
      <point x="203" y="314" type="line"/>
    </contour>
    <contour>
      <point x="98" y="399" type="line"/>
      <point x="26" y="399" type="line"/>
      <point x="26" y="314" type="line"/>
      <point x="39" y="237" type="line"/>
      <point x="85" y="237" type="line"/>
      <point x="98" y="314" type="line"/>
    </contour>
  </outline>
</glyph>
<glyph name="numbersign" format="1">
  <advance width="266"/>
  <unicode hex="0023"/>
  <outline>
    <contour>
      <point x="226" y="294" type="line"/>
      <point x="252" y="407" type="line"/>
      <point x="200" y="407" type="line"/>
      <point x="175" y="294" type="line"/>
      <point x="131" y="294" type="line"/>
      <point x="157" y="407" type="line"/>
      <point x="105" y="407" type="line"/>
      <point x="80" y="294" type="line"/>
      <point x="26" y="294" type="line"/>
      <point x="26" y="244" type="line"/>
      <point x="69" y="244" type="line"/>
      <point x="51" y="163" type="line"/>
      <point x="3" y="163" type="line"/>
      <point x="3" y="113" type="line"/>
      <point x="40" y="113" type="line"/>
      <point x="14" y="0" type="line"/>
      <point x="65" y="0" type="line"/>
      <point x="91" y="113" type="line"/>
      <point x="134" y="113" type="line"/>
      <point x="109" y="0" type="line"/>
      <point x="160" y="0" type="line"/>
      <point x="186" y="113" type="line"/>
      <point x="239" y="113" type="line"/>
      <point x="239" y="163" type="line"/>
      <point x="197" y="163" type="line"/>
      <point x="215" y="244" type="line"/>
      <point x="262" y="244" type="line"/>
      <point x="262" y="294" type="line"/>
    </contour>
    <contour>
      <point x="120" y="244" type="line"/>
      <point x="163" y="244" type="line"/>
      <point x="146" y="163" type="line"/>
      <point x="102" y="163" type="line"/>
    </contour>
  </outline>
</glyph>
<glyph name="dollar" format="1">
  <advance width="266"/>
  <unicode hex="0024"/>
  <outline>
    <contour>
      <point x="148" y="421" type="line"/>
      <point x="115" y="421" type="line"/>
      <point x="115" y="359" type="line"/>
      <point x="63" y="354"/>
      <point x="24" y="323"/>
      <point x="24" y="267" type="curve" smooth="yes"/>
      <point x="24" y="204"/>
      <point x="72" y="189"/>
      <point x="115" y="177" type="curve"/>
      <point x="115" y="94" type="line"/>
      <point x="98" y="99"/>
      <point x="84" y="113"/>
      <point x="84" y="140" type="curve" smooth="yes"/>
      <point x="84" y="144" type="line"/>
      <point x="20" y="144" type="line"/>
      <point x="20" y="144"/>
      <point x="19" y="140"/>
      <point x="19" y="137" type="curve" smooth="yes"/>
      <point x="19" y="83"/>
      <point x="54" y="45"/>
      <point x="115" y="40" type="curve"/>
      <point x="115" y="-28" type="line"/>
      <point x="148" y="-28" type="line"/>
      <point x="148" y="40" type="line"/>
      <point x="204" y="44"/>
      <point x="244" y="71"/>
      <point x="244" y="138" type="curve" smooth="yes"/>
      <point x="244" y="206"/>
      <point x="192" y="219"/>
      <point x="148" y="231" type="curve"/>
      <point x="148" y="306" type="line"/>
      <point x="163" y="301"/>
      <point x="172" y="287"/>
      <point x="173" y="264" type="curve" smooth="yes"/>
      <point x="173" y="264" type="line"/>
      <point x="237" y="264" type="line"/>
      <point x="237" y="264"/>
      <point x="237" y="270"/>
      <point x="237" y="277" type="curve" smooth="yes"/>
      <point x="237" y="324"/>
      <point x="198" y="355"/>
      <point x="148" y="359" type="curve"/>
    </contour>
    <contour>
      <point x="148" y="167" type="line"/>
      <point x="167" y="159"/>
      <point x="181" y="149"/>
      <point x="181" y="130" type="curve" smooth="yes"/>
      <point x="181" y="108"/>
      <point x="164" y="97"/>
      <point x="148" y="93" type="curve"/>
    </contour>
    <contour>
      <point x="115" y="241" type="line"/>
      <point x="99" y="248"/>
      <point x="88" y="256"/>
      <point x="88" y="273" type="curve" smooth="yes"/>
      <point x="88" y="289"/>
      <point x="99" y="301"/>
      <point x="115" y="306" type="curve"/>
    </contour>
  </outline>
</glyph>
<glyph name="percent" format="1">
  <advance width="424"/>
  <unicode hex="0025"/>
  <outline>
    <contour>
      <point x="360" y="399" type="line"/>
      <point x="310" y="399" type="line"/>
      <point x="67" y="0" type="line"/>
      <point x="116" y="0" type="line"/>
    </contour>
    <contour>
      <point x="51" y="407"/>
      <point x="20" y="382"/>
      <point x="20" y="301" type="curve" smooth="yes"/>
      <point x="20" y="221"/>
      <point x="51" y="196"/>
      <point x="101" y="196" type="curve" smooth="yes"/>
      <point x="151" y="196"/>
      <point x="181" y="220"/>
      <point x="181" y="301" type="curve" smooth="yes"/>
      <point x="181" y="382"/>
      <point x="151" y="407"/>
      <point x="101" y="407" type="curve" smooth="yes"/>
    </contour>
    <contour>
      <point x="124" y="364"/>
      <point x="129" y="340"/>
      <point x="129" y="306" type="curve" smooth="yes"/>
      <point x="129" y="297" type="line" smooth="yes"/>
      <point x="129" y="263"/>
      <point x="124" y="239"/>
      <point x="101" y="239" type="curve" smooth="yes"/>
      <point x="78" y="239"/>
      <point x="72" y="263"/>
      <point x="72" y="297" type="curve" smooth="yes"/>
      <point x="72" y="306" type="line" smooth="yes"/>
      <point x="72" y="340"/>
      <point x="78" y="364"/>
      <point x="101" y="364" type="curve" smooth="yes"/>
    </contour>
    <contour>
      <point x="274" y="204"/>
      <point x="244" y="179"/>
      <point x="244" y="98" type="curve" smooth="yes"/>
      <point x="244" y="18"/>
      <point x="274" y="-7"/>
      <point x="324" y="-7" type="curve" smooth="yes"/>
      <point x="374" y="-7"/>
      <point x="405" y="17"/>
      <point x="405" y="98" type="curve" smooth="yes"/>
      <point x="405" y="179"/>
      <point x="374" y="204"/>
      <point x="324" y="204" type="curve" smooth="yes"/>
    </contour>
    <contour>
      <point x="348" y="161"/>
      <point x="353" y="137"/>
      <point x="353" y="103" type="curve" smooth="yes"/>
      <point x="353" y="94" type="line" smooth="yes"/>
      <point x="353" y="59"/>
      <point x="348" y="36"/>
      <point x="324" y="36" type="curve" smooth="yes"/>
      <point x="301" y="36"/>
      <point x="296" y="59"/>
      <point x="296" y="94" type="curve" smooth="yes"/>
      <point x="296" y="103" type="line" smooth="yes"/>
      <point x="296" y="137"/>
      <point x="301" y="161"/>
      <point x="324" y="161" type="curve" smooth="yes"/>
    </contour>
  </outline>
</glyph>
<glyph name="ampersand" format="1">
  <advance width="345"/>
  <unicode hex="0026"/>
  <outline>
    <contour>
      <point x="83" y="407"/>
      <point x="29" y="368"/>
      <point x="29" y="297" type="curve" smooth="yes"/>
      <point x="29" y="250"/>
      <point x="55" y="224"/>
      <point x="89" y="208" type="curve"/>
      <point x="89" y="205" type="line"/>
      <point x="50" y="192"/>
      <point x="21" y="160"/>
      <point x="21" y="107" type="curve" smooth="yes"/>
      <point x="21" y="36"/>
      <point x="78" y="-7"/>
      <point x="157" y="-7" type="curve" smooth="yes"/>
      <point x="244" y="-7"/>
      <point x="290" y="40"/>
      <point x="290" y="113" type="curve" smooth="yes"/>
      <point x="290" y="173" type="line"/>
      <point x="336" y="173" type="line"/>
      <point x="336" y="233" type="line"/>
      <point x="220" y="233" type="line"/>
      <point x="220" y="111" type="line" smooth="yes"/>
      <point x="220" y="73"/>
      <point x="200" y="52"/>
      <point x="158" y="52" type="curve" smooth="yes"/>
      <point x="119" y="52"/>
      <point x="94" y="71"/>
      <point x="94" y="111" type="curve" smooth="yes"/>
      <point x="94" y="161"/>
      <point x="125" y="173"/>
      <point x="161" y="173" type="curve" smooth="yes"/>
      <point x="183" y="173" type="line"/>
      <point x="183" y="233" type="line"/>
      <point x="159" y="233" type="line" smooth="yes"/>
      <point x="126" y="233"/>
      <point x="102" y="256"/>
      <point x="102" y="294" type="curve" smooth="yes"/>
      <point x="102" y="328"/>
      <point x="124" y="348"/>
      <point x="161" y="348" type="curve" smooth="yes"/>
      <point x="200" y="348"/>
      <point x="220" y="329"/>
      <point x="220" y="292" type="curve" smooth="yes"/>
      <point x="220" y="281" type="line"/>
      <point x="290" y="281" type="line"/>
      <point x="290" y="297" type="line" smooth="yes"/>
      <point x="290" y="364"/>
      <point x="238" y="407"/>
      <point x="163" y="407" type="curve" smooth="yes"/>
    </contour>
  </outline>
</glyph>
<glyph name="quotesingle" format="1">
  <advance width="113"/>
  <unicode hex="0027"/>
  <outline>
    <contour>
      <point x="93" y="399" type="line"/>
      <point x="22" y="399" type="line"/>
      <point x="22" y="314" type="line"/>
      <point x="34" y="237" type="line"/>
      <point x="80" y="237" type="line"/>
      <point x="93" y="314" type="line"/>
    </contour>
  </outline>
</glyph>
<glyph name="parenleft" format="1">
  <advance width="159"/>
  <unicode hex="0028"/>
  <outline>
    <contour>
      <point x="104" y="428" type="line"/>
      <point x="48" y="357"/>
      <point x="18" y="264"/>
      <point x="18" y="168" type="curve" smooth="yes"/>
      <point x="18" y="72"/>
      <point x="48" y="-20"/>
      <point x="104" y="-92" type="curve"/>
      <point x="150" y="-92" type="line"/>
      <point x="112" y="-20"/>
      <point x="82" y="78"/>
      <point x="82" y="169" type="curve" smooth="yes"/>
      <point x="82" y="260"/>
      <point x="112" y="357"/>
      <point x="150" y="428" type="curve"/>
    </contour>
  </outline>
</glyph>
<glyph name="asterisk" format="1">
  <advance width="186"/>
  <unicode hex="002A"/>
  <outline>
    <contour>
      <point x="110" y="341" type="line"/>
      <point x="116" y="399" type="line"/>
      <point x="71" y="399" type="line"/>
      <point x="76" y="340" type="line"/>
      <point x="28" y="374" type="line"/>
      <point x="5" y="336" type="line"/>
      <point x="59" y="310" type="line"/>
      <point x="5" y="286" type="line"/>
      <point x="28" y="246" type="line"/>
      <point x="76" y="281" type="line"/>
      <point x="71" y="222" type="line"/>
      <point x="116" y="222" type="line"/>
      <point x="110" y="281" type="line"/>
      <point x="159" y="246" type="line"/>
      <point x="182" y="286" type="line"/>
      <point x="128" y="310" type="line"/>
      <point x="182" y="336" type="line"/>
      <point x="159" y="374" type="line"/>
    </contour>
  </outline>
</glyph>
<glyph name="plus" format="1">
  <advance width="279"/>
  <unicode hex="002B"/>
  <outline>
    <contour>
      <point x="169" y="179" type="line"/>
      <point x="169" y="298" type="line"/>
      <point x="109" y="298" type="line"/>
      <point x="109" y="179" type="line"/>
      <point x="19" y="179" type="line"/>
      <point x="19" y="118" type="line"/>
      <point x="109" y="118" type="line"/>
      <point x="109" y="0" type="line"/>
      <point x="169" y="0" type="line"/>
      <point x="169" y="118" type="line"/>
      <point x="259" y="118" type="line"/>
      <point x="259" y="179" type="line"/>
    </contour>
  </outline>
</glyph>
<glyph name="hyphen" format="1">
  <advance width="251"/>
  <unicode hex="002D"/>
  <outline>
    <contour>
      <point x="236" y="194" type="line"/>
      <point x="236" y="303" type="line"/>
      <point x="15" y="303" type="line"/>
      <point x="15" y="194" type="line"/>
    </contour>
  </outline>
</glyph>
<glyph name="slash" format="1">
  <advance width="133"/>
  <unicode hex="002F"/>
  <outline>
    <contour>
      <point x="51" y="-28" type="line"/>
      <point x="133" y="428" type="line"/>
      <point x="83" y="428" type="line"/>
      <point x="1" y="-28" type="line"/>
    </contour>
  </outline>
</glyph>
<glyph name="zero" format="1">
  <advance width="266"/>
  <unicode hex="0030"/>
  <outline>
    <contour>
      <point x="61" y="407"/>
      <point x="18" y="362"/>
      <point x="18" y="200" type="curve" smooth="yes"/>
      <point x="18" y="38"/>
      <point x="61" y="-7"/>
      <point x="133" y="-7" type="curve" smooth="yes"/>
      <point x="204" y="-7"/>
      <point x="248" y="38"/>
      <point x="248" y="200" type="curve" smooth="yes"/>
      <point x="248" y="362"/>
      <point x="204" y="407"/>
      <point x="133" y="407" type="curve" smooth="yes"/>
    </contour>
    <contour>
      <point x="168" y="348"/>
      <point x="175" y="308"/>
      <point x="175" y="220" type="curve" smooth="yes"/>
      <point x="175" y="179" type="line" smooth="yes"/>
      <point x="175" y="92"/>
      <point x="168" y="52"/>
      <point x="133" y="52" type="curve" smooth="yes"/>
      <point x="98" y="52"/>
      <point x="90" y="92"/>
      <point x="90" y="179" type="curve" smooth="yes"/>
      <point x="90" y="220" type="line" smooth="yes"/>
      <point x="90" y="308"/>
      <point x="98" y="348"/>
      <point x="133" y="348" type="curve" smooth="yes"/>
    </contour>
  </outline>
</glyph>
<glyph name="one" format="1">
  <advance width="266"/>
  <unicode hex="0031"/>
  <outline>
    <contour>
      <point x="183" y="59" type="line"/>
      <point x="183" y="399" type="line"/>
      <point x="148" y="399" type="line"/>
      <point x="111" y="376"/>
      <point x="55" y="358"/>
      <point x="22" y="355" type="curve"/>
      <point x="22" y="308" type="line"/>
      <point x="113" y="308" type="line"/>
      <point x="113" y="59" type="line"/>
      <point x="23" y="59" type="line"/>
      <point x="23" y="0" type="line"/>
      <point x="265" y="0" type="line"/>
      <point x="265" y="59" type="line"/>
    </contour>
  </outline>
</glyph>
<glyph name="two" format="1">
  <advance width="266"/>
  <unicode hex="0032"/>
  <outline>
    <contour>
      <point x="77" y="407"/>
      <point x="22" y="371"/>
      <point x="22" y="285" type="curve" smooth="yes"/>
      <point x="22" y="272"/>
      <point x="24" y="262"/>
      <point x="24" y="262" type="curve"/>
      <point x="96" y="262" type="line"/>
      <point x="96" y="286" type="line" smooth="yes"/>
      <point x="96" y="319"/>
      <point x="107" y="347"/>
      <point x="136" y="347" type="curve" smooth="yes"/>
      <point x="165" y="347"/>
      <point x="173" y="322"/>
      <point x="173" y="304" type="curve" smooth="yes"/>
      <point x="173" y="212"/>
      <point x="67" y="159"/>
      <point x="31" y="72" type="curve" smooth="yes"/>
      <point x="23" y="54"/>
      <point x="19" y="35"/>
      <point x="19" y="14" type="curve" smooth="yes"/>
      <point x="19" y="0" type="line"/>
      <point x="248" y="0" type="line"/>
      <point x="248" y="65" type="line"/>
      <point x="107" y="65" type="line"/>
      <point x="111" y="73"/>
      <point x="118" y="83"/>
      <point x="126" y="93" type="curve" smooth="yes"/>
      <point x="167" y="143"/>
      <point x="246" y="215"/>
      <point x="246" y="303" type="curve" smooth="yes"/>
      <point x="246" y="376"/>
      <point x="198" y="407"/>
      <point x="139" y="407" type="curve" smooth="yes"/>
    </contour>
  </outline>
</glyph>
<glyph name="three" format="1">
  <advance width="266"/>
  <unicode hex="0033"/>
  <outline>
    <contour>
      <point x="67" y="407"/>
      <point x="22" y="364"/>
      <point x="22" y="297" type="curve" smooth="yes"/>
      <point x="22" y="281" type="line"/>
      <point x="94" y="281" type="line"/>
      <point x="94" y="292" type="line" smooth="yes"/>
      <point x="94" y="329"/>
      <point x="108" y="348"/>
      <point x="132" y="348" type="curve" smooth="yes"/>
      <point x="154" y="348"/>
      <point x="168" y="331"/>
      <point x="168" y="294" type="curve" smooth="yes"/>
      <point x="168" y="253"/>
      <point x="151" y="233"/>
      <point x="129" y="233" type="curve" smooth="yes"/>
      <point x="108" y="233" type="line"/>
      <point x="108" y="173" type="line"/>
      <point x="128" y="173" type="line" smooth="yes"/>
      <point x="153" y="173"/>
      <point x="175" y="161"/>
      <point x="175" y="111" type="curve" smooth="yes"/>
      <point x="175" y="71"/>
      <point x="158" y="52"/>
      <point x="132" y="52" type="curve" smooth="yes"/>
      <point x="103" y="52"/>
      <point x="88" y="73"/>
      <point x="88" y="111" type="curve" smooth="yes"/>
      <point x="88" y="123" type="line"/>
      <point x="14" y="123" type="line"/>
      <point x="14" y="113" type="line" smooth="yes"/>
      <point x="14" y="40"/>
      <point x="57" y="-7"/>
      <point x="133" y="-7" type="curve" smooth="yes"/>
      <point x="200" y="-7"/>
      <point x="248" y="36"/>
      <point x="248" y="107" type="curve" smooth="yes"/>
      <point x="248" y="160"/>
      <point x="223" y="192"/>
      <point x="189" y="205" type="curve"/>
      <point x="189" y="208" type="line"/>
      <point x="219" y="224"/>
      <point x="241" y="250"/>
      <point x="241" y="297" type="curve" smooth="yes"/>
      <point x="241" y="368"/>
      <point x="197" y="407"/>
      <point x="131" y="407" type="curve" smooth="yes"/>
    </contour>
  </outline>
</glyph>
<glyph name="four" format="1">
  <advance width="419"/>
  <unicode hex="0034"/>
  <outline>
    <contour>
      <point x="166" y="642" type="line"/>
      <point x="130" y="502"/>
      <point x="74" y="347"/>
      <point x="7" y="231" type="curve"/>
      <point x="7" y="142" type="line"/>
      <point x="234" y="142" type="line"/>
      <point x="234" y="0" type="line"/>
      <point x="344" y="0" type="line"/>
      <point x="344" y="142" type="line"/>
      <point x="409" y="142" type="line"/>
      <point x="409" y="235" type="line"/>
      <point x="344" y="235" type="line"/>
      <point x="344" y="548" type="line"/>
      <point x="296" y="548" type="line"/>
      <point x="284" y="499"/>
      <point x="258" y="424"/>
      <point x="234" y="376" type="curve"/>
      <point x="234" y="235" type="line"/>
      <point x="103" y="235" type="line"/>
      <point x="138" y="285"/>
      <point x="241" y="478"/>
      <point x="277" y="642" type="curve"/>
    </contour>
  </outline>
</glyph>
<glyph name="five" format="1">
  <advance width="266"/>
  <unicode hex="0035"/>
  <outline>
    <contour>
      <point x="235" y="334" type="line"/>
      <point x="235" y="399" type="line"/>
      <point x="42" y="399" type="line"/>
      <point x="28" y="179" type="line"/>
      <point x="96" y="169" type="line"/>
      <point x="105" y="188"/>
      <point x="118" y="203"/>
      <point x="139" y="203" type="curve" smooth="yes"/>
      <point x="163" y="203"/>
      <point x="180" y="177"/>
      <point x="180" y="130" type="curve" smooth="yes"/>
      <point x="180" y="78"/>
      <point x="162" y="51"/>
      <point x="135" y="51" type="curve" smooth="yes"/>
      <point x="107" y="51"/>
      <point x="90" y="80"/>
      <point x="90" y="124" type="curve"/>
      <point x="18" y="124" type="line"/>
      <point x="18" y="43"/>
      <point x="64" y="-7"/>
      <point x="135" y="-7" type="curve" smooth="yes"/>
      <point x="208" y="-7"/>
      <point x="252" y="43"/>
      <point x="252" y="130" type="curve" smooth="yes"/>
      <point x="252" y="218"/>
      <point x="209" y="260"/>
      <point x="155" y="260" type="curve" smooth="yes"/>
      <point x="127" y="260"/>
      <point x="109" y="249"/>
      <point x="98" y="240" type="curve"/>
      <point x="103" y="334" type="line"/>
    </contour>
  </outline>
</glyph>
<glyph name="six" format="1">
  <advance width="266"/>
  <unicode hex="0036"/>
  <outline>
    <contour>
      <point x="61" y="407"/>
      <point x="18" y="355"/>
      <point x="18" y="188" type="curve" smooth="yes"/>
      <point x="18" y="40"/>
      <point x="63" y="-7"/>
      <point x="138" y="-7" type="curve" smooth="yes"/>
      <point x="202" y="-7"/>
      <point x="248" y="43"/>
      <point x="248" y="123" type="curve" smooth="yes"/>
      <point x="248" y="196"/>
      <point x="216" y="251"/>
      <point x="152" y="251" type="curve" smooth="yes"/>
      <point x="126" y="251"/>
      <point x="103" y="239"/>
      <point x="90" y="219" type="curve"/>
      <point x="91" y="298"/>
      <point x="94" y="348"/>
      <point x="130" y="348" type="curve" smooth="yes"/>
      <point x="158" y="348"/>
      <point x="166" y="322"/>
      <point x="166" y="277" type="curve"/>
      <point x="238" y="277" type="line"/>
      <point x="238" y="351"/>
      <point x="207" y="407"/>
      <point x="133" y="407" type="curve" smooth="yes"/>
    </contour>
    <contour>
      <point x="163" y="194"/>
      <point x="176" y="165"/>
      <point x="176" y="123" type="curve" smooth="yes"/>
      <point x="176" y="82"/>
      <point x="163" y="52"/>
      <point x="135" y="52" type="curve" smooth="yes"/>
      <point x="107" y="52"/>
      <point x="94" y="82"/>
      <point x="94" y="123" type="curve" smooth="yes"/>
      <point x="94" y="165"/>
      <point x="107" y="194"/>
      <point x="135" y="194" type="curve" smooth="yes"/>
    </contour>
  </outline>
</glyph>
<glyph name="seven" format="1">
  <advance width="266"/>
  <unicode hex="0037"/>
  <outline>
    <contour>
      <point x="252" y="399" type="line"/>
      <point x="13" y="399" type="line"/>
      <point x="13" y="334" type="line"/>
      <point x="177" y="334" type="line"/>
      <point x="115" y="254"/>
      <point x="58" y="128"/>
      <point x="58" y="0" type="curve"/>
      <point x="135" y="0" type="line"/>
      <point x="134" y="14"/>
      <point x="134" y="18"/>
      <point x="134" y="30" type="curve" smooth="yes"/>
      <point x="134" y="152"/>
      <point x="200" y="273"/>
      <point x="252" y="353" type="curve"/>
    </contour>
  </outline>
</glyph>
<glyph name="eight" format="1">
  <advance width="266"/>
  <unicode hex="0038"/>
  <outline>
    <contour>
      <point x="62" y="407"/>
      <point x="26" y="357"/>
      <point x="26" y="295" type="curve" smooth="yes"/>
      <point x="26" y="258"/>
      <point x="40" y="224"/>
      <point x="69" y="205" type="curve"/>
      <point x="33" y="187"/>
      <point x="18" y="153"/>
      <point x="18" y="109" type="curve" smooth="yes"/>
      <point x="18" y="45"/>
      <point x="51" y="-7"/>
      <point x="133" y="-7" type="curve" smooth="yes"/>
      <point x="214" y="-7"/>
      <point x="248" y="45"/>
      <point x="248" y="109" type="curve" smooth="yes"/>
      <point x="248" y="153"/>
      <point x="233" y="187"/>
      <point x="196" y="205" type="curve"/>
      <point x="225" y="224"/>
      <point x="240" y="258"/>
      <point x="240" y="295" type="curve" smooth="yes"/>
      <point x="240" y="357"/>
      <point x="204" y="407"/>
      <point x="133" y="407" type="curve" smooth="yes"/>
    </contour>
    <contour>
      <point x="161" y="175"/>
      <point x="176" y="153"/>
      <point x="176" y="113" type="curve" smooth="yes"/>
      <point x="176" y="72"/>
      <point x="161" y="51"/>
      <point x="133" y="51" type="curve" smooth="yes"/>
      <point x="105" y="51"/>
      <point x="90" y="72"/>
      <point x="90" y="113" type="curve" smooth="yes"/>
      <point x="90" y="153"/>
      <point x="105" y="175"/>
      <point x="133" y="175" type="curve" smooth="yes"/>
    </contour>
    <contour>
      <point x="156" y="349"/>
      <point x="169" y="329"/>
      <point x="169" y="291" type="curve" smooth="yes"/>
      <point x="169" y="253"/>
      <point x="156" y="233"/>
      <point x="133" y="233" type="curve" smooth="yes"/>
      <point x="109" y="233"/>
      <point x="97" y="253"/>
      <point x="97" y="291" type="curve" smooth="yes"/>
      <point x="97" y="329"/>
      <point x="109" y="349"/>
      <point x="133" y="349" type="curve" smooth="yes"/>
    </contour>
  </outline>
</glyph>
<glyph name="nine" format="1">
  <advance width="266"/>
  <unicode hex="0039"/>
  <outline>
    <contour>
      <point x="64" y="407"/>
      <point x="18" y="357"/>
      <point x="18" y="277" type="curve" smooth="yes"/>
      <point x="18" y="204"/>
      <point x="49" y="148"/>
      <point x="114" y="148" type="curve" smooth="yes"/>
      <point x="140" y="148"/>
      <point x="163" y="160"/>
      <point x="176" y="180" type="curve"/>
      <point x="175" y="102"/>
      <point x="171" y="52"/>
      <point x="135" y="52" type="curve" smooth="yes"/>
      <point x="108" y="52"/>
      <point x="100" y="78"/>
      <point x="100" y="123" type="curve"/>
      <point x="28" y="123" type="line"/>
      <point x="28" y="49"/>
      <point x="59" y="-7"/>
      <point x="133" y="-7" type="curve" smooth="yes"/>
      <point x="205" y="-7"/>
      <point x="248" y="45"/>
      <point x="248" y="212" type="curve" smooth="yes"/>
      <point x="248" y="359"/>
      <point x="203" y="407"/>
      <point x="128" y="407" type="curve" smooth="yes"/>
    </contour>
    <contour>
      <point x="158" y="348"/>
      <point x="172" y="318"/>
      <point x="172" y="277" type="curve" smooth="yes"/>
      <point x="172" y="235"/>
      <point x="158" y="206"/>
      <point x="130" y="206" type="curve" smooth="yes"/>
      <point x="103" y="206"/>
      <point x="90" y="235"/>
      <point x="90" y="277" type="curve" smooth="yes"/>
      <point x="90" y="318"/>
      <point x="103" y="348"/>
      <point x="130" y="348" type="curve" smooth="yes"/>
    </contour>
  </outline>
</glyph>
<glyph name="colon" format="1">
  <advance width="159"/>
  <unicode hex="003A"/>
  <outline>
    <contour>
      <point x="113" y="0" type="line"/>
      <point x="113" y="80" type="line"/>
      <point x="32" y="80" type="line"/>
      <point x="32" y="0" type="line"/>
    </contour>
    <contour>
      <point x="113" y="227" type="line"/>
      <point x="113" y="306" type="line"/>
      <point x="32" y="306" type="line"/>
      <point x="32" y="227" type="line"/>
    </contour>
  </outline>
</glyph>
<glyph name="semicolon" format="1">
  <advance width="159"/>
  <unicode hex="003B"/>
  <outline>
    <contour>
      <point x="112" y="7" type="line"/>
      <point x="112" y="80" type="line"/>
      <point x="32" y="80" type="line"/>
      <point x="32" y="0" type="line"/>
      <point x="63" y="0" type="line"/>
      <point x="32" y="-91" type="line"/>
      <point x="73" y="-91" type="line"/>
    </contour>
    <contour>
      <point x="113" y="227" type="line"/>
      <point x="113" y="306" type="line"/>
      <point x="32" y="306" type="line"/>
      <point x="32" y="227" type="line"/>
    </contour>
  </outline>
</glyph>
<glyph name="less" format="1">
  <advance width="440"/>
  <unicode hex="003C"/>
  <outline>
    <contour>
      <point x="410" y="380" type="line"/>
      <point x="410" y="488" type="line"/>
      <point x="31" y="297" type="line"/>
      <point x="31" y="181" type="line"/>
      <point x="410" y="-8" type="line"/>
      <point x="410" y="100" type="line"/>
      <point x="124" y="240" type="line"/>
    </contour>
  </outline>
</glyph>
<glyph name="equal" format="1">
  <advance width="440"/>
  <unicode hex="003D"/>
  <outline>
    <contour>
      <point x="409" y="283" type="line"/>
      <point x="409" y="379" type="line"/>
      <point x="30" y="379" type="line"/>
      <point x="30" y="283" type="line"/>
    </contour>
    <contour>
      <point x="409" y="88" type="line"/>
      <point x="409" y="183" type="line"/>
      <point x="30" y="183" type="line"/>
      <point x="30" y="88" type="line"/>
    </contour>
  </outline>
</glyph>
<glyph name="greater" format="1">
  <advance width="279"/>
  <unicode hex="003E"/>
  <outline>
    <contour>
      <point x="260" y="188" type="line"/>
      <point x="20" y="309" type="line"/>
      <point x="20" y="241" type="line"/>
      <point x="201" y="152" type="line"/>
      <point x="20" y="63" type="line"/>
      <point x="20" y="-5" type="line"/>
      <point x="260" y="115" type="line"/>
    </contour>
  </outline>
</glyph>
<glyph name="question" format="1">
  <advance width="292"/>
  <unicode hex="003F"/>
  <outline>
    <contour>
      <point x="68" y="407"/>
      <point x="28" y="353"/>
      <point x="28" y="288" type="curve" smooth="yes"/>
      <point x="28" y="281"/>
      <point x="29" y="268"/>
      <point x="29" y="268" type="curve"/>
      <point x="103" y="268" type="line"/>
      <point x="103" y="268"/>
      <point x="102" y="273"/>
      <point x="102" y="283" type="curve" smooth="yes"/>
      <point x="102" y="304"/>
      <point x="108" y="344"/>
      <point x="147" y="344" type="curve" smooth="yes"/>
      <point x="183" y="344"/>
      <point x="188" y="308"/>
      <point x="188" y="297" type="curve" smooth="yes"/>
      <point x="188" y="221"/>
      <point x="118" y="210"/>
      <point x="118" y="140" type="curve" smooth="yes"/>
      <point x="118" y="115" type="line"/>
      <point x="191" y="115" type="line"/>
      <point x="191" y="131" type="line" smooth="yes"/>
      <point x="191" y="199"/>
      <point x="264" y="200"/>
      <point x="264" y="303" type="curve" smooth="yes"/>
      <point x="264" y="364"/>
      <point x="221" y="407"/>
      <point x="152" y="407" type="curve" smooth="yes"/>
    </contour>
    <contour>
      <point x="195" y="0" type="line"/>
      <point x="195" y="80" type="line"/>
      <point x="115" y="80" type="line"/>
      <point x="115" y="0" type="line"/>
    </contour>
  </outline>
</glyph>
<glyph name="at" format="1">
  <advance width="466"/>
  <unicode hex="0040"/>
  <outline>
    <contour>
      <point x="118" y="407"/>
      <point x="14" y="339"/>
      <point x="14" y="153" type="curve" smooth="yes"/>
      <point x="14" y="-16"/>
      <point x="94" y="-89"/>
      <point x="221" y="-89" type="curve" smooth="yes"/>
      <point x="246" y="-89"/>
      <point x="291" y="-83"/>
      <point x="314" y="-73" type="curve"/>
      <point x="314" y="-30" type="line"/>
      <point x="294" y="-41"/>
      <point x="248" y="-49"/>
      <point x="221" y="-49" type="curve" smooth="yes"/>
      <point x="109" y="-49"/>
      <point x="57" y="18"/>
      <point x="57" y="152" type="curve" smooth="yes"/>
      <point x="57" y="297"/>
      <point x="127" y="366"/>
      <point x="239" y="366" type="curve" smooth="yes"/>
      <point x="339" y="366"/>
      <point x="409" y="314"/>
      <point x="409" y="188" type="curve" smooth="yes"/>
      <point x="409" y="96"/>
      <point x="379" y="67"/>
      <point x="353" y="67" type="curve" smooth="yes"/>
      <point x="341" y="67"/>
      <point x="335" y="72"/>
      <point x="335" y="88" type="curve" smooth="yes"/>
      <point x="335" y="221" type="line" smooth="yes"/>
      <point x="335" y="273"/>
      <point x="304" y="304"/>
      <point x="240" y="304" type="curve" smooth="yes"/>
      <point x="183" y="304"/>
      <point x="146" y="273"/>
      <point x="146" y="227" type="curve" smooth="yes"/>
      <point x="146" y="221"/>
      <point x="146" y="218"/>
      <point x="147" y="215" type="curve"/>
      <point x="208" y="215" type="line"/>
      <point x="208" y="223" type="line" smooth="yes"/>
      <point x="208" y="236"/>
      <point x="215" y="252"/>
      <point x="242" y="252" type="curve" smooth="yes"/>
      <point x="266" y="252"/>
      <point x="271" y="237"/>
      <point x="271" y="217" type="curve" smooth="yes"/>
      <point x="271" y="188" type="line"/>
      <point x="190" y="188"/>
      <point x="133" y="166"/>
      <point x="133" y="91" type="curve" smooth="yes"/>
      <point x="133" y="27"/>
      <point x="177" y="13"/>
      <point x="203" y="13" type="curve" smooth="yes"/>
      <point x="239" y="13"/>
      <point x="257" y="27"/>
      <point x="273" y="49" type="curve"/>
      <point x="275" y="49" type="line"/>
      <point x="284" y="28"/>
      <point x="298" y="13"/>
      <point x="336" y="13" type="curve" smooth="yes"/>
      <point x="384" y="13"/>
      <point x="452" y="55"/>
      <point x="452" y="187" type="curve" smooth="yes"/>
      <point x="452" y="343"/>
      <point x="362" y="407"/>
      <point x="240" y="407" type="curve" smooth="yes"/>
    </contour>
    <contour>
      <point x="271" y="127" type="line"/>
      <point x="271" y="94"/>
      <point x="259" y="66"/>
      <point x="229" y="66" type="curve" smooth="yes"/>
      <point x="208" y="66"/>
      <point x="198" y="78"/>
      <point x="198" y="97" type="curve" smooth="yes"/>
      <point x="198" y="133"/>
      <point x="233" y="142"/>
      <point x="271" y="142" type="curve"/>
    </contour>
  </outline>
</glyph>
<glyph name="B" format="1">
  <advance width="345"/>
  <unicode hex="0042"/>
  <outline>
    <contour>
      <point x="35" y="399" type="line"/>
      <point x="35" y="0" type="line"/>
      <point x="207" y="0" type="line" smooth="yes"/>
      <point x="271" y="0"/>
      <point x="325" y="40"/>
      <point x="325" y="107" type="curve" smooth="yes"/>
      <point x="325" y="158"/>
      <point x="294" y="195"/>
      <point x="254" y="208" type="curve"/>
      <point x="254" y="210" type="line"/>
      <point x="289" y="222"/>
      <point x="316" y="254"/>
      <point x="316" y="301" type="curve" smooth="yes"/>
      <point x="316" y="359"/>
      <point x="270" y="399"/>
      <point x="207" y="399" type="curve" smooth="yes"/>
    </contour>
    <contour>
      <point x="109" y="172" type="line"/>
      <point x="191" y="172" type="line" smooth="yes"/>
      <point x="230" y="172"/>
      <point x="248" y="148"/>
      <point x="248" y="117" type="curve" smooth="yes"/>
      <point x="248" y="84"/>
      <point x="225" y="67"/>
      <point x="194" y="67" type="curve" smooth="yes"/>
      <point x="109" y="67" type="line"/>
    </contour>
    <contour>
      <point x="109" y="333" type="line"/>
      <point x="190" y="333" type="line" smooth="yes"/>
      <point x="219" y="333"/>
      <point x="239" y="318"/>
      <point x="239" y="287" type="curve" smooth="yes"/>
      <point x="239" y="260"/>
      <point x="222" y="238"/>
      <point x="186" y="238" type="curve" smooth="yes"/>
      <point x="109" y="238" type="line"/>
    </contour>
  </outline>
</glyph>
<glyph name="E" format="1">
  <advance width="503"/>
  <unicode hex="0045"/>
  <outline>
    <contour>
      <point x="55" y="0" type="line"/>
      <point x="463" y="0" type="line"/>
      <point x="463" y="105" type="line"/>
      <point x="173" y="105" type="line"/>
      <point x="173" y="270" type="line"/>
      <point x="416" y="270" type="line"/>
      <point x="416" y="375" type="line"/>
      <point x="173" y="375" type="line"/>
      <point x="173" y="526" type="line"/>
      <point x="457" y="526" type="line"/>
      <point x="457" y="630" type="line"/>
      <point x="55" y="630" type="line"/>
    </contour>
    <contour>
      <point x="452" y="9" type="move" name="ogonek"/>
    </contour>
    <contour>
      <point x="252" y="0" type="move" name="bottom"/>
    </contour>
    <contour>
      <point x="252" y="630" type="move" name="top"/>
    </contour>
  </outline>
</glyph>
<glyph name="F" format="1">
  <advance width="292"/>
  <unicode hex="0046"/>
  <outline>
    <contour>
      <point x="35" y="0" type="line"/>
      <point x="109" y="0" type="line"/>
      <point x="109" y="166" type="line"/>
      <point x="246" y="166" type="line"/>
      <point x="246" y="233" type="line"/>
      <point x="109" y="233" type="line"/>
      <point x="109" y="333" type="line"/>
      <point x="270" y="333" type="line"/>
      <point x="270" y="399" type="line"/>
      <point x="35" y="399" type="line"/>
    </contour>
  </outline>
</glyph>
<glyph name="H" format="1">
  <advance width="345"/>
  <unicode hex="0048"/>
  <outline>
    <contour>
      <point x="310" y="399" type="line"/>
      <point x="235" y="399" type="line"/>
      <point x="235" y="238" type="line"/>
      <point x="109" y="238" type="line"/>
      <point x="109" y="399" type="line"/>
      <point x="35" y="399" type="line"/>
      <point x="35" y="0" type="line"/>
      <point x="109" y="0" type="line"/>
      <point x="109" y="171" type="line"/>
      <point x="235" y="171" type="line"/>
      <point x="235" y="0" type="line"/>
      <point x="310" y="0" type="line"/>
    </contour>
    <contour>
      <point x="173" y="200" type="move" name="center"/>
    </contour>
    <contour>
      <point x="173" y="399" type="move" name="top"/>
    </contour>
  </outline>
</glyph>
<glyph name="I" format="1">
  <advance width="133"/>
  <unicode hex="0049"/>
  <outline>
    <contour>
      <point x="103" y="0" type="line"/>
      <point x="103" y="399" type="line"/>
      <point x="29" y="399" type="line"/>
      <point x="29" y="0" type="line"/>
    </contour>
    <contour>
      <point x="119" y="6" type="move" name="ogonek"/>
    </contour>
    <contour>
      <point x="67" y="399" type="move" name="top"/>
    </contour>
  </outline>
</glyph>
<glyph name="J" format="1">
  <advance width="266"/>
  <unicode hex="004A"/>
  <outline>
    <contour>
      <point x="231" y="399" type="line"/>
      <point x="156" y="399" type="line"/>
      <point x="156" y="101" type="line" smooth="yes"/>
      <point x="156" y="72"/>
      <point x="143" y="57"/>
      <point x="118" y="57" type="curve" smooth="yes"/>
      <point x="93" y="57"/>
      <point x="79" y="72"/>
      <point x="79" y="101" type="curve" smooth="yes"/>
      <point x="79" y="126" type="line"/>
      <point x="5" y="126" type="line"/>
      <point x="5" y="95" type="line" smooth="yes"/>
      <point x="5" y="28"/>
      <point x="46" y="-7"/>
      <point x="118" y="-7" type="curve" smooth="yes"/>
      <point x="190" y="-7"/>
      <point x="231" y="28"/>
      <point x="231" y="95" type="curve" smooth="yes"/>
    </contour>
    <contour>
      <point x="133" y="399" type="move" name="top"/>
    </contour>
  </outline>
</glyph>
<glyph name="K" format="1">
  <advance width="345"/>
  <unicode hex="004B"/>
  <outline>
    <contour>
      <point x="110" y="195" type="line"/>
      <point x="110" y="399" type="line"/>
      <point x="35" y="399" type="line"/>
      <point x="35" y="0" type="line"/>
      <point x="110" y="0" type="line"/>
      <point x="110" y="102" type="line"/>
      <point x="173" y="179" type="line"/>
      <point x="259" y="0" type="line"/>
      <point x="343" y="0" type="line"/>
      <point x="221" y="237" type="line"/>
      <point x="339" y="399" type="line"/>
      <point x="256" y="399" type="line"/>
    </contour>
    <contour>
      <point x="173" y="399" type="move" name="top"/>
    </contour>
    <contour>
      <point x="173" y="0" type="move" name="bottom"/>
    </contour>
  </outline>
</glyph>
<glyph name="L" format="1">
  <advance width="461"/>
  <unicode hex="004C"/>
  <outline>
    <contour>
      <point x="173" y="630" type="line"/>
      <point x="55" y="630" type="line"/>
      <point x="55" y="0" type="line"/>
      <point x="440" y="0" type="line"/>
      <point x="440" y="110" type="line"/>
      <point x="173" y="110" type="line"/>
    </contour>
    <contour>
      <point x="231" y="630" type="move" name="top"/>
    </contour>
    <contour>
      <point x="231" y="0" type="move" name="bottom"/>
    </contour>
  </outline>
</glyph>
<glyph name="M" format="1">
  <advance width="398"/>
  <unicode hex="004D"/>
  <outline>
    <contour>
      <point x="367" y="399" type="line"/>
      <point x="266" y="399" type="line"/>
      <point x="217" y="179" type="line" smooth="yes"/>
      <point x="212" y="156"/>
      <point x="204" y="89"/>
      <point x="204" y="89" type="curve" smooth="yes"/>
      <point x="201" y="89" type="line" smooth="yes"/>
      <point x="201" y="89"/>
      <point x="191" y="153"/>
      <point x="185" y="179" type="curve" smooth="yes"/>
      <point x="136" y="399" type="line"/>
      <point x="31" y="399" type="line"/>
      <point x="31" y="0" type="line"/>
      <point x="94" y="0" type="line"/>
      <point x="94" y="254" type="line" smooth="yes"/>
      <point x="94" y="270"/>
      <point x="92" y="319"/>
      <point x="92" y="319" type="curve"/>
      <point x="94" y="319" type="line"/>
      <point x="98" y="298"/>
      <point x="103" y="277"/>
      <point x="108" y="256" type="curve" smooth="yes"/>
      <point x="164" y="0" type="line"/>
      <point x="229" y="0" type="line"/>
      <point x="289" y="273" type="line" smooth="yes"/>
      <point x="293" y="289"/>
      <point x="295" y="304"/>
      <point x="299" y="319" type="curve"/>
      <point x="301" y="319" type="line"/>
      <point x="301" y="319"/>
      <point x="299" y="273"/>
      <point x="299" y="254" type="curve" smooth="yes"/>
      <point x="299" y="0" type="line"/>
      <point x="367" y="0" type="line"/>
    </contour>
  </outline>
</glyph>
<glyph name="O" format="1">
  <advance width="372"/>
  <unicode hex="004F"/>
  <outline>
    <contour>
      <point x="83" y="407"/>
      <point x="20" y="341"/>
      <point x="20" y="200" type="curve" smooth="yes"/>
      <point x="20" y="59"/>
      <point x="83" y="-7"/>
      <point x="186" y="-7" type="curve" smooth="yes"/>
      <point x="289" y="-7"/>
      <point x="352" y="59"/>
      <point x="352" y="200" type="curve" smooth="yes"/>
      <point x="352" y="341"/>
      <point x="289" y="407"/>
      <point x="186" y="407" type="curve" smooth="yes"/>
    </contour>
    <contour>
      <point x="245" y="343"/>
      <point x="275" y="294"/>
      <point x="275" y="214" type="curve" smooth="yes"/>
      <point x="275" y="185" type="line" smooth="yes"/>
      <point x="275" y="105"/>
      <point x="245" y="57"/>
      <point x="186" y="57" type="curve" smooth="yes"/>
      <point x="127" y="57"/>
      <point x="97" y="105"/>
      <point x="97" y="185" type="curve" smooth="yes"/>
      <point x="97" y="214" type="line" smooth="yes"/>
      <point x="97" y="294"/>
      <point x="127" y="343"/>
      <point x="186" y="343" type="curve" smooth="yes"/>
    </contour>
    <contour>
      <point x="186" y="399" type="move" name="top"/>
    </contour>
  </outline>
</glyph>
<glyph name="P" format="1">
  <advance width="319"/>
  <unicode hex="0050"/>
  <outline>
    <contour>
      <point x="109" y="155" type="line"/>
      <point x="178" y="155" type="line" smooth="yes"/>
      <point x="253" y="155"/>
      <point x="303" y="204"/>
      <point x="303" y="279" type="curve" smooth="yes"/>
      <point x="303" y="349"/>
      <point x="260" y="399"/>
      <point x="178" y="399" type="curve" smooth="yes"/>
      <point x="35" y="399" type="line"/>
      <point x="35" y="0" type="line"/>
      <point x="109" y="0" type="line"/>
    </contour>
    <contour>
      <point x="109" y="333" type="line"/>
      <point x="170" y="333" type="line" smooth="yes"/>
      <point x="206" y="333"/>
      <point x="226" y="312"/>
      <point x="226" y="279" type="curve" smooth="yes"/>
      <point x="226" y="243"/>
      <point x="206" y="221"/>
      <point x="170" y="221" type="curve" smooth="yes"/>
      <point x="109" y="221" type="line"/>
    </contour>
  </outline>
</glyph>
<glyph name="Q" format="1">
  <advance width="372"/>
  <unicode hex="0051"/>
  <outline>
    <contour>
      <point x="20" y="59"/>
      <point x="83" y="-7"/>
      <point x="186" y="-7" type="curve" smooth="yes"/>
      <point x="193" y="-7" type="line"/>
      <point x="250" y="-72" type="line"/>
      <point x="342" y="-72" type="line"/>
      <point x="265" y="10" type="line"/>
      <point x="320" y="38"/>
      <point x="352" y="100"/>
      <point x="352" y="200" type="curve" smooth="yes"/>
      <point x="352" y="341"/>
      <point x="289" y="407"/>
      <point x="186" y="407" type="curve" smooth="yes"/>
      <point x="83" y="407"/>
      <point x="20" y="341"/>
      <point x="20" y="200" type="curve" smooth="yes"/>
    </contour>
    <contour>
      <point x="97" y="214" type="line"/>
      <point x="97" y="294"/>
      <point x="127" y="343"/>
      <point x="186" y="343" type="curve" smooth="yes"/>
      <point x="245" y="343"/>
      <point x="275" y="294"/>
      <point x="275" y="214" type="curve" smooth="yes"/>
      <point x="275" y="185" type="line" smooth="yes"/>
      <point x="275" y="105"/>
      <point x="245" y="57"/>
      <point x="186" y="57" type="curve" smooth="yes"/>
      <point x="127" y="57"/>
      <point x="97" y="105"/>
      <point x="97" y="185" type="curve" smooth="yes"/>
    </contour>
  </outline>
</glyph>
<glyph name="S" format="1">
  <advance width="319"/>
  <unicode hex="0053"/>
  <outline>
    <contour>
      <point x="88" y="407"/>
      <point x="26" y="370"/>
      <point x="26" y="295" type="curve" smooth="yes"/>
      <point x="26" y="143"/>
      <point x="219" y="199"/>
      <point x="219" y="104" type="curve" smooth="yes"/>
      <point x="219" y="81"/>
      <point x="204" y="57"/>
      <point x="159" y="57" type="curve" smooth="yes"/>
      <point x="118" y="57"/>
      <point x="95" y="83"/>
      <point x="95" y="121" type="curve" smooth="yes"/>
      <point x="95" y="123"/>
      <point x="96" y="129"/>
      <point x="96" y="130" type="curve"/>
      <point x="18" y="130" type="line"/>
      <point x="18" y="127"/>
      <point x="18" y="122"/>
      <point x="18" y="117" type="curve" smooth="yes"/>
      <point x="18" y="35"/>
      <point x="82" y="-7"/>
      <point x="156" y="-7" type="curve" smooth="yes"/>
      <point x="239" y="-7"/>
      <point x="297" y="28"/>
      <point x="297" y="120" type="curve" smooth="yes"/>
      <point x="297" y="267"/>
      <point x="103" y="219"/>
      <point x="103" y="300" type="curve" smooth="yes"/>
      <point x="103" y="324"/>
      <point x="123" y="343"/>
      <point x="158" y="343" type="curve" smooth="yes"/>
      <point x="192" y="343"/>
      <point x="213" y="321"/>
      <point x="213" y="287" type="curve" smooth="yes"/>
      <point x="213" y="282" type="line"/>
      <point x="289" y="282" type="line"/>
      <point x="289" y="289" type="line" smooth="yes"/>
      <point x="289" y="371"/>
      <point x="230" y="407"/>
      <point x="159" y="407" type="curve" smooth="yes"/>
    </contour>
    <contour>
      <point x="159" y="399" type="move" name="top"/>
    </contour>
    <contour>
      <point x="159" y="0" type="move" name="bottom"/>
    </contour>
  </outline>
</glyph>
<glyph name="T" format="1">
  <advance width="292"/>
  <unicode hex="0054"/>
  <outline>
    <contour>
      <point x="283" y="399" type="line"/>
      <point x="10" y="399" type="line"/>
      <point x="10" y="333" type="line"/>
      <point x="109" y="333" type="line"/>
      <point x="109" y="0" type="line"/>
      <point x="183" y="0" type="line"/>
      <point x="183" y="333" type="line"/>
      <point x="283" y="333" type="line"/>
    </contour>
    <contour>
      <point x="146" y="200" type="move" name="center"/>
    </contour>
    <contour>
      <point x="146" y="0" type="move" name="bottom"/>
    </contour>
    <contour>
      <point x="146" y="399" type="move" name="top"/>
    </contour>
  </outline>
</glyph>
<glyph name="V" format="1">
  <advance width="319"/>
  <unicode hex="0056"/>
  <outline>
    <contour>
      <point x="197" y="0" type="line"/>
      <point x="319" y="399" type="line"/>
      <point x="246" y="399" type="line"/>
      <point x="163" y="113" type="line"/>
      <point x="161" y="113" type="line"/>
      <point x="77" y="399" type="line"/>
      <point x="0" y="399" type="line"/>
      <point x="122" y="0" type="line"/>
    </contour>
  </outline>
</glyph>
<glyph name="X" format="1">
  <advance width="319"/>
  <unicode hex="0058"/>
  <outline>
    <contour>
      <point x="308" y="399" type="line"/>
      <point x="230" y="399" type="line"/>
      <point x="163" y="269" type="line"/>
      <point x="161" y="269" type="line"/>
      <point x="94" y="399" type="line"/>
      <point x="11" y="399" type="line"/>
      <point x="113" y="210" type="line"/>
      <point x="0" y="0" type="line"/>
      <point x="78" y="0" type="line"/>
      <point x="155" y="151" type="line"/>
      <point x="158" y="151" type="line"/>
      <point x="235" y="0" type="line"/>
      <point x="318" y="0" type="line"/>
      <point x="204" y="211" type="line"/>
    </contour>
  </outline>
</glyph>
<glyph name="Y" format="1">
  <advance width="319"/>
  <unicode hex="0059"/>
  <outline>
    <contour>
      <point x="197" y="151" type="line"/>
      <point x="319" y="399" type="line"/>
      <point x="244" y="399" type="line"/>
      <point x="163" y="224" type="line"/>
      <point x="160" y="224" type="line"/>
      <point x="78" y="399" type="line"/>
      <point x="0" y="399" type="line"/>
      <point x="123" y="151" type="line"/>
      <point x="123" y="0" type="line"/>
      <point x="197" y="0" type="line"/>
    </contour>
    <contour>
      <point x="159" y="399" type="move" name="top"/>
    </contour>
  </outline>
</glyph>
<glyph name="Z" format="1">
  <advance width="292"/>
  <unicode hex="005A"/>
  <outline>
    <contour>
      <point x="275" y="399" type="line"/>
      <point x="22" y="399" type="line"/>
      <point x="22" y="333" type="line"/>
      <point x="173" y="333" type="line"/>
      <point x="9" y="28" type="line"/>
      <point x="9" y="0" type="line"/>
      <point x="279" y="0" type="line"/>
      <point x="279" y="67" type="line"/>
      <point x="111" y="67" type="line"/>
      <point x="275" y="370" type="line"/>
    </contour>
    <contour>
      <point x="146" y="399" type="move" name="top"/>
    </contour>
  </outline>
</glyph>
<glyph name="bracketleft" format="1">
  <advance width="159"/>
  <unicode hex="005B"/>
  <outline>
    <contour>
      <point x="144" y="373" type="line"/>
      <point x="144" y="428" type="line"/>
      <point x="28" y="428" type="line"/>
      <point x="28" y="-94" type="line"/>
      <point x="144" y="-94" type="line"/>
      <point x="144" y="-38" type="line"/>
      <point x="96" y="-38" type="line"/>
      <point x="96" y="373" type="line"/>
    </contour>
  </outline>
</glyph>
<glyph name="backslash" format="1">
  <advance width="133"/>
  <unicode hex="005C"/>
  <outline>
    <contour>
      <point x="133" y="-28" type="line"/>
      <point x="50" y="428" type="line"/>
      <point x="1" y="428" type="line"/>
      <point x="83" y="-28" type="line"/>
    </contour>
  </outline>
</glyph>
<glyph name="bracketright" format="1">
  <advance width="159"/>
  <unicode hex="005D"/>
  <outline>
    <contour>
      <point x="130" y="-94" type="line"/>
      <point x="130" y="428" type="line"/>
      <point x="14" y="428" type="line"/>
      <point x="14" y="373" type="line"/>
      <point x="63" y="373" type="line"/>
      <point x="63" y="-38" type="line"/>
      <point x="14" y="-38" type="line"/>
      <point x="14" y="-94" type="line"/>
    </contour>
  </outline>
</glyph>
<glyph name="asciicircum" format="1">
  <advance width="279"/>
  <unicode hex="005E"/>
  <outline>
    <contour>
      <point x="264" y="171" type="line"/>
      <point x="172" y="399" type="line"/>
      <point x="109" y="399" type="line"/>
      <point x="18" y="171" type="line"/>
      <point x="83" y="171" type="line"/>
      <point x="140" y="329" type="line"/>
      <point x="199" y="171" type="line"/>
    </contour>
  </outline>
</glyph>
<glyph name="underscore" format="1">
  <advance width="266"/>
  <unicode hex="005F"/>
  <outline>
    <contour>
      <point x="265" y="-77" type="line"/>
      <point x="265" y="-37" type="line"/>
      <point x="0" y="-37" type="line"/>
      <point x="0" y="-77" type="line"/>
    </contour>
  </outline>
</glyph>
<glyph name="grave" format="1">
  <advance width="159"/>
  <unicode hex="0060"/>
  <outline>
    <contour>
      <point x="133" y="344" type="line"/>
      <point x="83" y="421" type="line"/>
      <point x="13" y="421" type="line"/>
      <point x="13" y="419" type="line"/>
      <point x="75" y="344" type="line"/>
    </contour>
    <contour>
      <point x="72" y="306" type="move" name="_top"/>
    </contour>
  </outline>
</glyph>
<glyph name="b" format="1">
  <advance width="292"/>
  <unicode hex="0062"/>
  <outline>
    <contour>
      <point x="102" y="421" type="line"/>
      <point x="32" y="421" type="line"/>
      <point x="32" y="0" type="line"/>
      <point x="90" y="0" type="line"/>
      <point x="98" y="38" type="line"/>
      <point x="100" y="38" type="line"/>
      <point x="115" y="8"/>
      <point x="140" y="-7"/>
      <point x="169" y="-7" type="curve" smooth="yes"/>
      <point x="230" y="-7"/>
      <point x="268" y="43"/>
      <point x="268" y="154" type="curve" smooth="yes"/>
      <point x="268" y="265"/>
      <point x="227" y="314"/>
      <point x="173" y="314" type="curve" smooth="yes"/>
      <point x="142" y="314"/>
      <point x="116" y="299"/>
      <point x="105" y="275" type="curve"/>
      <point x="102" y="275" type="line"/>
    </contour>
    <contour>
      <point x="183" y="250"/>
      <point x="195" y="219"/>
      <point x="195" y="164" type="curve" smooth="yes"/>
      <point x="195" y="142" type="line" smooth="yes"/>
      <point x="195" y="87"/>
      <point x="183" y="57"/>
      <point x="148" y="57" type="curve" smooth="yes"/>
      <point x="115" y="57"/>
      <point x="102" y="87"/>
      <point x="102" y="142" type="curve" smooth="yes"/>
      <point x="102" y="163" type="line" smooth="yes"/>
      <point x="102" y="218"/>
      <point x="115" y="250"/>
      <point x="148" y="250" type="curve" smooth="yes"/>
    </contour>
  </outline>
</glyph>
<glyph name="d" format="1">
  <advance width="292"/>
  <unicode hex="0064"/>
  <outline>
    <contour>
      <point x="260" y="0" type="line"/>
      <point x="260" y="421" type="line"/>
      <point x="190" y="421" type="line"/>
      <point x="190" y="275" type="line"/>
      <point x="187" y="275" type="line"/>
      <point x="176" y="299"/>
      <point x="150" y="314"/>
      <point x="119" y="314" type="curve" smooth="yes"/>
      <point x="65" y="314"/>
      <point x="24" y="265"/>
      <point x="24" y="154" type="curve" smooth="yes"/>
      <point x="24" y="43"/>
      <point x="62" y="-7"/>
      <point x="123" y="-7" type="curve" smooth="yes"/>
      <point x="152" y="-7"/>
      <point x="177" y="8"/>
      <point x="192" y="38" type="curve"/>
      <point x="194" y="38" type="line"/>
      <point x="202" y="0" type="line"/>
    </contour>
    <contour>
      <point x="177" y="250"/>
      <point x="190" y="218"/>
      <point x="190" y="163" type="curve" smooth="yes"/>
      <point x="190" y="142" type="line" smooth="yes"/>
      <point x="190" y="87"/>
      <point x="177" y="57"/>
      <point x="143" y="57" type="curve" smooth="yes"/>
      <point x="109" y="57"/>
      <point x="97" y="87"/>
      <point x="97" y="142" type="curve" smooth="yes"/>
      <point x="97" y="164" type="line" smooth="yes"/>
      <point x="97" y="219"/>
      <point x="109" y="250"/>
      <point x="143" y="250" type="curve" smooth="yes"/>
    </contour>
    <contour>
      <point x="146" y="153" type="move" name="center"/>
    </contour>
  </outline>
</glyph>
<glyph name="f" format="1">
  <advance width="159"/>
  <unicode hex="0066"/>
  <outline>
    <contour>
      <point x="53" y="426"/>
      <point x="36" y="384"/>
      <point x="36" y="344" type="curve" smooth="yes"/>
      <point x="36" y="306" type="line"/>
      <point x="5" y="306" type="line"/>
      <point x="5" y="248" type="line"/>
      <point x="36" y="248" type="line"/>
      <point x="36" y="0" type="line"/>
      <point x="106" y="0" type="line"/>
      <point x="106" y="248" type="line"/>
      <point x="159" y="248" type="line"/>
      <point x="159" y="306" type="line"/>
      <point x="106" y="306" type="line"/>
      <point x="106" y="342" type="line" smooth="yes"/>
      <point x="106" y="358"/>
      <point x="115" y="367"/>
      <point x="130" y="367" type="curve" smooth="yes"/>
      <point x="159" y="367" type="line"/>
      <point x="159" y="419" type="line"/>
      <point x="148" y="422"/>
      <point x="125" y="426"/>
      <point x="108" y="426" type="curve" smooth="yes"/>
    </contour>
  </outline>
</glyph>
<glyph name="h" format="1">
  <advance width="292"/>
  <unicode hex="0068"/>
  <outline>
    <contour>
      <point x="102" y="273" type="line"/>
      <point x="102" y="421" type="line"/>
      <point x="32" y="421" type="line"/>
      <point x="32" y="0" type="line"/>
      <point x="102" y="0" type="line"/>
      <point x="102" y="188" type="line" smooth="yes"/>
      <point x="102" y="223"/>
      <point x="123" y="250"/>
      <point x="150" y="250" type="curve" smooth="yes"/>
      <point x="175" y="250"/>
      <point x="190" y="235"/>
      <point x="190" y="196" type="curve" smooth="yes"/>
      <point x="190" y="0" type="line"/>
      <point x="260" y="0" type="line"/>
      <point x="260" y="215" type="line" smooth="yes"/>
      <point x="260" y="287"/>
      <point x="225" y="314"/>
      <point x="179" y="314" type="curve" smooth="yes"/>
      <point x="142" y="314"/>
      <point x="118" y="293"/>
      <point x="104" y="273" type="curve"/>
    </contour>
    <contour>
      <point x="146" y="153" type="move" name="center"/>
    </contour>
    <contour>
      <point x="146" y="306" type="move" name="top"/>
    </contour>
  </outline>
</glyph>
<glyph name="i" format="1">
  <advance width="133"/>
  <unicode hex="0069"/>
  <outline>
    <contour>
      <point x="101" y="0" type="line"/>
      <point x="101" y="306" type="line"/>
      <point x="32" y="306" type="line"/>
      <point x="32" y="0" type="line"/>
    </contour>
    <contour>
      <point x="101" y="358" type="line"/>
      <point x="101" y="421" type="line"/>
      <point x="32" y="421" type="line"/>
      <point x="32" y="358" type="line"/>
    </contour>
  </outline>
</glyph>
<glyph name="j" format="1">
  <advance width="210"/>
  <unicode hex="006A"/>
  <outline>
    <contour>
      <point x="160" y="484" type="line"/>
      <point x="50" y="484" type="line"/>
      <point x="50" y="-30" type="line" smooth="yes"/>
      <point x="50" y="-59"/>
      <point x="35" y="-75"/>
      <point x="6" y="-75" type="curve" smooth="yes"/>
      <point x="-34" y="-75" type="line"/>
      <point x="-34" y="-156" type="line"/>
      <point x="-15" y="-162"/>
      <point x="20" y="-167"/>
      <point x="48" y="-167" type="curve" smooth="yes"/>
      <point x="136" y="-167"/>
      <point x="160" y="-102"/>
      <point x="160" y="-37" type="curve" smooth="yes"/>
    </contour>
    <contour>
      <point x="160" y="565" type="line"/>
      <point x="160" y="665" type="line"/>
      <point x="50" y="665" type="line"/>
      <point x="50" y="565" type="line"/>
    </contour>
  </outline>
</glyph>
<glyph name="k" format="1">
  <advance width="266"/>
  <unicode hex="006B"/>
  <outline>
    <contour>
      <point x="101" y="185" type="line"/>
      <point x="101" y="421" type="line"/>
      <point x="32" y="421" type="line"/>
      <point x="32" y="0" type="line"/>
      <point x="101" y="0" type="line"/>
      <point x="101" y="96" type="line"/>
      <point x="127" y="127" type="line"/>
      <point x="188" y="0" type="line"/>
      <point x="266" y="0" type="line"/>
      <point x="171" y="182" type="line"/>
      <point x="262" y="306" type="line"/>
      <point x="187" y="306" type="line"/>
    </contour>
    <contour>
      <point x="133" y="0" type="move" name="bottom"/>
    </contour>
  </outline>
</glyph>
<glyph name="l" format="1">
  <advance width="133"/>
  <unicode hex="006C"/>
  <outline>
    <contour>
      <point x="101" y="0" type="line"/>
      <point x="101" y="421" type="line"/>
      <point x="32" y="421" type="line"/>
      <point x="32" y="0" type="line"/>
    </contour>
    <contour>
      <point x="67" y="306" type="move" name="top"/>
    </contour>
    <contour>
      <point x="67" y="0" type="move" name="bottom"/>
    </contour>
    <contour>
      <point x="121" y="306" type="move" name="topright"/>
    </contour>
  </outline>
</glyph>
<glyph name="m" format="1">
  <advance width="424"/>
  <unicode hex="006D"/>
  <outline>
    <contour>
      <point x="282" y="314"/>
      <point x="255" y="293"/>
      <point x="239" y="269" type="curve"/>
      <point x="227" y="301"/>
      <point x="204" y="314"/>
      <point x="173" y="314" type="curve" smooth="yes"/>
      <point x="140" y="314"/>
      <point x="115" y="293"/>
      <point x="101" y="269" type="curve"/>
      <point x="98" y="269" type="line"/>
      <point x="90" y="306" type="line"/>
      <point x="32" y="306" type="line"/>
      <point x="32" y="0" type="line"/>
      <point x="102" y="0" type="line"/>
      <point x="102" y="188" type="line" smooth="yes"/>
      <point x="102" y="225"/>
      <point x="120" y="250"/>
      <point x="144" y="250" type="curve" smooth="yes"/>
      <point x="167" y="250"/>
      <point x="179" y="235"/>
      <point x="179" y="196" type="curve" smooth="yes"/>
      <point x="179" y="0" type="line"/>
      <point x="248" y="0" type="line"/>
      <point x="248" y="193" type="line" smooth="yes"/>
      <point x="248" y="227"/>
      <point x="268" y="250"/>
      <point x="290" y="250" type="curve" smooth="yes"/>
      <point x="314" y="250"/>
      <point x="324" y="235"/>
      <point x="324" y="196" type="curve" smooth="yes"/>
      <point x="324" y="0" type="line"/>
      <point x="394" y="0" type="line"/>
      <point x="394" y="215" type="line" smooth="yes"/>
      <point x="394" y="289"/>
      <point x="362" y="314"/>
      <point x="319" y="314" type="curve" smooth="yes"/>
    </contour>
  </outline>
</glyph>
<glyph name="n" format="1">
  <advance width="292"/>
  <unicode hex="006E"/>
  <outline>
    <contour>
      <point x="142" y="314"/>
      <point x="117" y="293"/>
      <point x="101" y="269" type="curve"/>
      <point x="98" y="269" type="line"/>
      <point x="90" y="306" type="line"/>
      <point x="32" y="306" type="line"/>
      <point x="32" y="0" type="line"/>
      <point x="102" y="0" type="line"/>
      <point x="102" y="188" type="line" smooth="yes"/>
      <point x="102" y="223"/>
      <point x="123" y="250"/>
      <point x="150" y="250" type="curve" smooth="yes"/>
      <point x="175" y="250"/>
      <point x="190" y="235"/>
      <point x="190" y="196" type="curve" smooth="yes"/>
      <point x="190" y="0" type="line"/>
      <point x="260" y="0" type="line"/>
      <point x="260" y="215" type="line" smooth="yes"/>
      <point x="260" y="287"/>
      <point x="225" y="314"/>
      <point x="179" y="314" type="curve" smooth="yes"/>
    </contour>
    <contour>
      <point x="146" y="306" type="move" name="top"/>
    </contour>
    <contour>
      <point x="146" y="0" type="move" name="bottom"/>
    </contour>
  </outline>
</glyph>
<glyph name="p" format="1">
  <advance width="292"/>
  <unicode hex="0070"/>
  <outline>
    <contour>
      <point x="140" y="314"/>
      <point x="115" y="299"/>
      <point x="100" y="269" type="curve"/>
      <point x="98" y="269" type="line"/>
      <point x="90" y="306" type="line"/>
      <point x="32" y="306" type="line"/>
      <point x="32" y="-101" type="line"/>
      <point x="102" y="-101" type="line"/>
      <point x="102" y="32" type="line"/>
      <point x="105" y="32" type="line"/>
      <point x="116" y="7"/>
      <point x="142" y="-7"/>
      <point x="173" y="-7" type="curve" smooth="yes"/>
      <point x="227" y="-7"/>
      <point x="268" y="42"/>
      <point x="268" y="153" type="curve" smooth="yes"/>
      <point x="268" y="264"/>
      <point x="230" y="314"/>
      <point x="169" y="314" type="curve" smooth="yes"/>
    </contour>
    <contour>
      <point x="183" y="250"/>
      <point x="195" y="219"/>
      <point x="195" y="164" type="curve" smooth="yes"/>
      <point x="195" y="142" type="line" smooth="yes"/>
      <point x="195" y="87"/>
      <point x="183" y="57"/>
      <point x="148" y="57" type="curve" smooth="yes"/>
      <point x="115" y="57"/>
      <point x="102" y="88"/>
      <point x="102" y="143" type="curve" smooth="yes"/>
      <point x="102" y="164" type="line" smooth="yes"/>
      <point x="102" y="219"/>
      <point x="115" y="250"/>
      <point x="148" y="250" type="curve" smooth="yes"/>
    </contour>
  </outline>
</glyph>
<glyph name="q" format="1">
  <advance width="292"/>
  <unicode hex="0071"/>
  <outline>
    <contour>
      <point x="62" y="314"/>
      <point x="24" y="264"/>
      <point x="24" y="153" type="curve" smooth="yes"/>
      <point x="24" y="42"/>
      <point x="65" y="-7"/>
      <point x="119" y="-7" type="curve" smooth="yes"/>
      <point x="150" y="-7"/>
      <point x="176" y="7"/>
      <point x="187" y="32" type="curve"/>
      <point x="190" y="32" type="line"/>
      <point x="190" y="-101" type="line"/>
      <point x="260" y="-101" type="line"/>
      <point x="260" y="306" type="line"/>
      <point x="202" y="306" type="line"/>
      <point x="194" y="269" type="line"/>
      <point x="192" y="269" type="line"/>
      <point x="177" y="299"/>
      <point x="152" y="314"/>
      <point x="123" y="314" type="curve" smooth="yes"/>
    </contour>
    <contour>
      <point x="177" y="250"/>
      <point x="190" y="219"/>
      <point x="190" y="164" type="curve" smooth="yes"/>
      <point x="190" y="143" type="line" smooth="yes"/>
      <point x="190" y="88"/>
      <point x="177" y="57"/>
      <point x="143" y="57" type="curve" smooth="yes"/>
      <point x="109" y="57"/>
      <point x="97" y="87"/>
      <point x="97" y="142" type="curve" smooth="yes"/>
      <point x="97" y="164" type="line" smooth="yes"/>
      <point x="97" y="219"/>
      <point x="109" y="250"/>
      <point x="143" y="250" type="curve" smooth="yes"/>
    </contour>
  </outline>
</glyph>
<glyph name="r" format="1">
  <advance width="186"/>
  <unicode hex="0072"/>
  <outline>
    <contour>
      <point x="124" y="314"/>
      <point x="110" y="287"/>
      <point x="102" y="262" type="curve"/>
      <point x="98" y="262" type="line"/>
      <point x="90" y="306" type="line"/>
      <point x="32" y="306" type="line"/>
      <point x="32" y="0" type="line"/>
      <point x="102" y="0" type="line"/>
      <point x="102" y="171" type="line" smooth="yes"/>
      <point x="102" y="225"/>
      <point x="129" y="241"/>
      <point x="159" y="241" type="curve" smooth="yes"/>
      <point x="184" y="241" type="line"/>
      <point x="184" y="309" type="line"/>
      <point x="184" y="309"/>
      <point x="173" y="314"/>
      <point x="155" y="314" type="curve" smooth="yes"/>
    </contour>
    <contour>
      <point x="93" y="306" type="move" name="top"/>
    </contour>
    <contour>
      <point x="93" y="0" type="move" name="bottom"/>
    </contour>
  </outline>
</glyph>
<glyph name="v" format="1">
  <advance width="266"/>
  <unicode hex="0076"/>
  <outline>
    <contour>
      <point x="264" y="306" type="line"/>
      <point x="193" y="306" type="line"/>
      <point x="154" y="175" type="line" smooth="yes"/>
      <point x="146" y="144"/>
      <point x="143" y="113"/>
      <point x="137" y="83" type="curve"/>
      <point x="134" y="83" type="line"/>
      <point x="128" y="113"/>
      <point x="125" y="144"/>
      <point x="115" y="175" type="curve" smooth="yes"/>
      <point x="76" y="306" type="line"/>
      <point x="3" y="306" type="line"/>
      <point x="98" y="0" type="line"/>
      <point x="168" y="0" type="line"/>
    </contour>
  </outline>
</glyph>
<glyph name="w" format="1">
  <advance width="372"/>
  <unicode hex="0077"/>
  <outline>
    <contour>
      <point x="297" y="0" type="line"/>
      <point x="371" y="306" type="line"/>
      <point x="306" y="306" type="line"/>
      <point x="279" y="179" type="line" smooth="yes"/>
      <point x="273" y="145"/>
      <point x="264" y="84"/>
      <point x="264" y="84" type="curve" smooth="yes"/>
      <point x="262" y="84" type="line" smooth="yes"/>
      <point x="262" y="84"/>
      <point x="256" y="150"/>
      <point x="249" y="179" type="curve" smooth="yes"/>
      <point x="223" y="306" type="line"/>
      <point x="153" y="306" type="line"/>
      <point x="127" y="180" type="line" smooth="yes"/>
      <point x="118" y="136"/>
      <point x="114" y="84"/>
      <point x="114" y="84" type="curve" smooth="yes"/>
      <point x="112" y="84" type="line" smooth="yes"/>
      <point x="112" y="84"/>
      <point x="109" y="139"/>
      <point x="100" y="181" type="curve" smooth="yes"/>
      <point x="71" y="306" type="line"/>
      <point x="1" y="306" type="line"/>
      <point x="75" y="0" type="line"/>
      <point x="146" y="0" type="line"/>
      <point x="175" y="147" type="line" smooth="yes"/>
      <point x="182" y="179"/>
      <point x="184" y="222"/>
      <point x="184" y="222" type="curve"/>
      <point x="188" y="222" type="line"/>
      <point x="188" y="222"/>
      <point x="190" y="177"/>
      <point x="196" y="146" type="curve" smooth="yes"/>
      <point x="227" y="0" type="line"/>
    </contour>
    <contour>
      <point x="186" y="306" type="move" name="top"/>
    </contour>
  </outline>
</glyph>
<glyph name="x" format="1">
  <advance width="266"/>
  <unicode hex="0078"/>
  <outline>
    <contour>
      <point x="258" y="306" type="line"/>
      <point x="183" y="306" type="line"/>
      <point x="138" y="217" type="line"/>
      <point x="134" y="217" type="line"/>
      <point x="89" y="306" type="line"/>
      <point x="10" y="306" type="line"/>
      <point x="92" y="158" type="line"/>
      <point x="3" y="0" type="line"/>
      <point x="78" y="0" type="line"/>
      <point x="129" y="101" type="line"/>
      <point x="132" y="101" type="line"/>
      <point x="184" y="0" type="line"/>
      <point x="263" y="0" type="line"/>
      <point x="175" y="160" type="line"/>
    </contour>
  </outline>
</glyph>
<glyph name="z" format="1">
  <advance width="239"/>
  <unicode hex="007A"/>
  <outline>
    <contour>
      <point x="224" y="277" type="line"/>
      <point x="224" y="306" type="line"/>
      <point x="18" y="306" type="line"/>
      <point x="18" y="248" type="line"/>
      <point x="129" y="248" type="line"/>
      <point x="11" y="30" type="line"/>
      <point x="11" y="0" type="line"/>
      <point x="229" y="0" type="line"/>
      <point x="229" y="59" type="line"/>
      <point x="105" y="59" type="line"/>
    </contour>
    <contour>
      <point x="119" y="306" type="move" name="top"/>
    </contour>
  </outline>
</glyph>
<glyph name="braceleft" format="1">
  <advance width="293"/>
  <unicode hex="007B"/>
  <outline>
    <contour>
      <point x="274" y="676" type="line"/>
      <point x="179" y="676"/>
      <point x="93" y="655"/>
      <point x="93" y="540" type="curve" smooth="yes"/>
      <point x="93" y="362" type="line" smooth="yes"/>
      <point x="93" y="321"/>
      <point x="55" y="307"/>
      <point x="22" y="307" type="curve"/>
      <point x="22" y="223" type="line"/>
      <point x="55" y="223"/>
      <point x="93" y="209"/>
      <point x="93" y="167" type="curve" smooth="yes"/>
      <point x="93" y="-10" type="line" smooth="yes"/>
      <point x="93" y="-126"/>
      <point x="179" y="-147"/>
      <point x="274" y="-147" type="curve"/>
      <point x="274" y="-75" type="line"/>
      <point x="241" y="-75"/>
      <point x="202" y="-67"/>
      <point x="202" y="-20" type="curve" smooth="yes"/>
      <point x="202" y="42"/>
      <point x="197" y="99"/>
      <point x="194" y="161" type="curve" smooth="yes"/>
      <point x="192" y="224"/>
      <point x="167" y="260"/>
      <point x="96" y="260" type="curve"/>
      <point x="96" y="269" type="line"/>
      <point x="167" y="269"/>
      <point x="193" y="306"/>
      <point x="194" y="368" type="curve" smooth="yes"/>
      <point x="197" y="431"/>
      <point x="202" y="488"/>
      <point x="202" y="549" type="curve" smooth="yes"/>
      <point x="202" y="596"/>
      <point x="241" y="605"/>
      <point x="274" y="605" type="curve"/>
    </contour>
  </outline>
</glyph>
<glyph name="bar" format="1">
  <advance width="211"/>
  <unicode hex="007C"/>
  <outline>
    <contour>
      <point x="147" y="-159" type="line"/>
      <point x="147" y="665" type="line"/>
      <point x="64" y="665" type="line"/>
      <point x="64" y="-159" type="line"/>
    </contour>
  </outline>
</glyph>
<glyph name="braceright" format="1">
  <advance width="186"/>
  <unicode hex="007D"/>
  <outline>
    <contour>
      <point x="13" y="384" type="line"/>
      <point x="33" y="384"/>
      <point x="58" y="378"/>
      <point x="58" y="348" type="curve" smooth="yes"/>
      <point x="58" y="309"/>
      <point x="61" y="273"/>
      <point x="63" y="233" type="curve" smooth="yes"/>
      <point x="63" y="194"/>
      <point x="80" y="171"/>
      <point x="125" y="171" type="curve"/>
      <point x="125" y="165" type="line"/>
      <point x="80" y="165"/>
      <point x="64" y="142"/>
      <point x="63" y="102" type="curve" smooth="yes"/>
      <point x="61" y="63"/>
      <point x="58" y="26"/>
      <point x="58" y="-13" type="curve" smooth="yes"/>
      <point x="58" y="-42"/>
      <point x="33" y="-47"/>
      <point x="13" y="-47" type="curve"/>
      <point x="13" y="-93" type="line"/>
      <point x="72" y="-93"/>
      <point x="127" y="-80"/>
      <point x="127" y="-7" type="curve" smooth="yes"/>
      <point x="127" y="106" type="line" smooth="yes"/>
      <point x="127" y="132"/>
      <point x="151" y="141"/>
      <point x="172" y="141" type="curve"/>
      <point x="172" y="194" type="line"/>
      <point x="151" y="194"/>
      <point x="127" y="204"/>
      <point x="127" y="229" type="curve" smooth="yes"/>
      <point x="127" y="342" type="line" smooth="yes"/>
      <point x="127" y="415"/>
      <point x="72" y="428"/>
      <point x="13" y="428" type="curve"/>
    </contour>
  </outline>
</glyph>
<glyph name="asciitilde" format="1">
  <advance width="279"/>
  <unicode hex="007E"/>
  <outline>
    <contour>
      <point x="264" y="234" type="line"/>
      <point x="264" y="234"/>
      <point x="233" y="192"/>
      <point x="192" y="192" type="curve" smooth="yes"/>
      <point x="153" y="192"/>
      <point x="125" y="227"/>
      <point x="88" y="227" type="curve" smooth="yes"/>
      <point x="40" y="227"/>
      <point x="16" y="185"/>
      <point x="16" y="185" type="curve"/>
      <point x="16" y="115" type="line"/>
      <point x="16" y="115"/>
      <point x="45" y="158"/>
      <point x="88" y="158" type="curve" smooth="yes"/>
      <point x="126" y="158"/>
      <point x="154" y="122"/>
      <point x="192" y="122" type="curve" smooth="yes"/>
      <point x="239" y="122"/>
      <point x="264" y="164"/>
      <point x="264" y="164" type="curve"/>
    </contour>
  </outline>
</glyph>
<glyph name="exclamdown" format="1">
  <advance width="159"/>
  <unicode hex="00A1"/>
  <outline>
    <contour>
      <point x="55" y="192" type="line"/>
      <point x="48" y="97"/>
      <point x="42" y="2"/>
      <point x="35" y="-93" type="curve"/>
      <point x="124" y="-93" type="line"/>
      <point x="117" y="2"/>
      <point x="110" y="97"/>
      <point x="103" y="192" type="curve"/>
    </contour>
    <contour>
      <point x="120" y="306" type="line"/>
      <point x="40" y="306" type="line"/>
      <point x="40" y="227" type="line"/>
      <point x="120" y="227" type="line"/>
    </contour>
  </outline>
</glyph>
<glyph name="cent" format="1">
  <advance width="419"/>
  <unicode hex="00A2"/>
  <outline>
    <contour>
      <point x="241" y="665" type="line"/>
      <point x="190" y="665" type="line"/>
      <point x="190" y="567" type="line"/>
      <point x="88" y="555"/>
      <point x="37" y="475"/>
      <point x="37" y="315" type="curve" smooth="yes"/>
      <point x="37" y="156"/>
      <point x="85" y="76"/>
      <point x="190" y="64" type="curve"/>
      <point x="190" y="-45" type="line"/>
      <point x="241" y="-45" type="line"/>
      <point x="241" y="63" type="line"/>
      <point x="330" y="71"/>
      <point x="386" y="130"/>
      <point x="386" y="256" type="curve"/>
      <point x="288" y="256" type="line"/>
      <point x="288" y="198"/>
      <point x="274" y="163"/>
      <point x="241" y="155" type="curve"/>
      <point x="241" y="474" type="line"/>
      <point x="269" y="464"/>
      <point x="284" y="432"/>
      <point x="284" y="375" type="curve"/>
      <point x="386" y="375" type="line"/>
      <point x="386" y="499"/>
      <point x="330" y="558"/>
      <point x="241" y="567" type="curve"/>
    </contour>
    <contour>
      <point x="190" y="158" type="line"/>
      <point x="156" y="174"/>
      <point x="141" y="222"/>
      <point x="141" y="297" type="curve" smooth="yes"/>
      <point x="141" y="333" type="line" smooth="yes"/>
      <point x="141" y="410"/>
      <point x="155" y="459"/>
      <point x="190" y="473" type="curve"/>
    </contour>
  </outline>
</glyph>
<glyph name="currency" format="1">
  <advance width="266"/>
  <unicode hex="00A4"/>
  <outline>
    <contour>
      <point x="105" y="336"/>
      <point x="80" y="325"/>
      <point x="59" y="308" type="curve"/>
      <point x="35" y="332" type="line"/>
      <point x="0" y="296" type="line"/>
      <point x="28" y="267" type="line"/>
      <point x="18" y="246"/>
      <point x="13" y="223"/>
      <point x="13" y="199" type="curve" smooth="yes"/>
      <point x="13" y="174"/>
      <point x="18" y="150"/>
      <point x="29" y="130" type="curve"/>
      <point x="0" y="101" type="line"/>
      <point x="36" y="66" type="line"/>
      <point x="60" y="90" type="line"/>
      <point x="80" y="73"/>
      <point x="105" y="63"/>
      <point x="133" y="63" type="curve" smooth="yes"/>
      <point x="159" y="63"/>
      <point x="185" y="73"/>
      <point x="205" y="90" type="curve"/>
      <point x="229" y="66" type="line"/>
      <point x="265" y="101" type="line"/>
      <point x="236" y="130" type="line"/>
      <point x="246" y="150"/>
      <point x="253" y="173"/>
      <point x="253" y="199" type="curve" smooth="yes"/>
      <point x="253" y="224"/>
      <point x="247" y="247"/>
      <point x="237" y="268" type="curve"/>
      <point x="265" y="296" type="line"/>
      <point x="230" y="332" type="line"/>
      <point x="206" y="308" type="line"/>
      <point x="185" y="325"/>
      <point x="159" y="336"/>
      <point x="133" y="336" type="curve" smooth="yes"/>
    </contour>
    <contour>
      <point x="171" y="284"/>
      <point x="204" y="246"/>
      <point x="204" y="199" type="curve" smooth="yes"/>
      <point x="204" y="153"/>
      <point x="171" y="115"/>
      <point x="133" y="115" type="curve" smooth="yes"/>
      <point x="94" y="115"/>
      <point x="62" y="153"/>
      <point x="62" y="199" type="curve" smooth="yes"/>
      <point x="62" y="246"/>
      <point x="94" y="284"/>
      <point x="133" y="284" type="curve" smooth="yes"/>
    </contour>
  </outline>
</glyph>
<glyph name="yen" format="1">
  <advance width="419"/>
  <unicode hex="00A5"/>
  <outline>
    <contour>
      <point x="297" y="354" type="line"/>
      <point x="415" y="630" type="line"/>
      <point x="300" y="630" type="line"/>
      <point x="214" y="389" type="line"/>
      <point x="210" y="389" type="line"/>
      <point x="124" y="630" type="line"/>
      <point x="4" y="630" type="line"/>
      <point x="123" y="354" type="line"/>
      <point x="26" y="354" type="line"/>
      <point x="26" y="280" type="line"/>
      <point x="154" y="280" type="line"/>
      <point x="154" y="215" type="line"/>
      <point x="26" y="215" type="line"/>
      <point x="26" y="140" type="line"/>
      <point x="155" y="140" type="line"/>
      <point x="155" y="0" type="line"/>
      <point x="265" y="0" type="line"/>
      <point x="265" y="140" type="line"/>
      <point x="393" y="140" type="line"/>
      <point x="393" y="215" type="line"/>
      <point x="265" y="215" type="line"/>
      <point x="265" y="279" type="line"/>
      <point x="393" y="279" type="line"/>
      <point x="393" y="354" type="line"/>
    </contour>
  </outline>
</glyph>
<glyph name="brokenbar" format="1">
  <advance width="134"/>
  <unicode hex="00A6"/>
  <outline>
    <contour>
      <point x="93" y="204" type="line"/>
      <point x="93" y="421" type="line"/>
      <point x="41" y="421" type="line"/>
      <point x="41" y="204" type="line"/>
    </contour>
    <contour>
      <point x="93" y="-101" type="line"/>
      <point x="93" y="116" type="line"/>
      <point x="41" y="116" type="line"/>
      <point x="41" y="-101" type="line"/>
    </contour>
  </outline>
</glyph>
<glyph name="section" format="1">
  <advance width="266"/>
  <unicode hex="00A7"/>
  <outline>
    <contour>
      <point x="77" y="407"/>
      <point x="30" y="376"/>
      <point x="30" y="314" type="curve" smooth="yes"/>
      <point x="30" y="279"/>
      <point x="42" y="256"/>
      <point x="59" y="239" type="curve"/>
      <point x="35" y="218"/>
      <point x="22" y="187"/>
      <point x="22" y="156" type="curve" smooth="yes"/>
      <point x="22" y="39"/>
      <point x="172" y="59"/>
      <point x="172" y="-18" type="curve" smooth="yes"/>
      <point x="172" y="-38"/>
      <point x="158" y="-49"/>
      <point x="136" y="-49" type="curve" smooth="yes"/>
      <point x="115" y="-49"/>
      <point x="102" y="-38"/>
      <point x="101" y="-11" type="curve" smooth="yes"/>
      <point x="101" y="-9" type="line"/>
      <point x="30" y="-9" type="line"/>
      <point x="30" y="-10"/>
      <point x="30" y="-16"/>
      <point x="30" y="-22" type="curve" smooth="yes"/>
      <point x="30" y="-75"/>
      <point x="75" y="-106"/>
      <point x="133" y="-106" type="curve" smooth="yes"/>
      <point x="196" y="-106"/>
      <point x="243" y="-75"/>
      <point x="243" y="-13" type="curve" smooth="yes"/>
      <point x="243" y="21"/>
      <point x="231" y="43"/>
      <point x="214" y="61" type="curve"/>
      <point x="238" y="82"/>
      <point x="251" y="113"/>
      <point x="251" y="144" type="curve" smooth="yes"/>
      <point x="251" y="262"/>
      <point x="101" y="241"/>
      <point x="101" y="319" type="curve" smooth="yes"/>
      <point x="101" y="338"/>
      <point x="115" y="349"/>
      <point x="137" y="349" type="curve" smooth="yes"/>
      <point x="158" y="349"/>
      <point x="171" y="338"/>
      <point x="171" y="311" type="curve" smooth="yes"/>
      <point x="171" y="310" type="line"/>
      <point x="243" y="310" type="line"/>
      <point x="243" y="310"/>
      <point x="243" y="317"/>
      <point x="243" y="324" type="curve" smooth="yes"/>
      <point x="243" y="376"/>
      <point x="198" y="407"/>
      <point x="139" y="407" type="curve" smooth="yes"/>
    </contour>
    <contour>
      <point x="142" y="187"/>
      <point x="183" y="171"/>
      <point x="183" y="124" type="curve" smooth="yes"/>
      <point x="183" y="112"/>
      <point x="177" y="100"/>
      <point x="169" y="91" type="curve"/>
      <point x="130" y="113"/>
      <point x="90" y="130"/>
      <point x="90" y="177" type="curve" smooth="yes"/>
      <point x="90" y="188"/>
      <point x="96" y="200"/>
      <point x="103" y="209" type="curve"/>
    </contour>
  </outline>
</glyph>
<glyph name="dieresis" format="1">
  <advance width="159"/>
  <unicode hex="00A8"/>
  <outline>
    <contour>
      <point x="159" y="358" type="line"/>
      <point x="159" y="421" type="line"/>
      <point x="101" y="421" type="line"/>
      <point x="101" y="358" type="line"/>
    </contour>
    <contour>
      <point x="58" y="358" type="line"/>
      <point x="58" y="421" type="line"/>
      <point x="-1" y="421" type="line"/>
      <point x="-1" y="358" type="line"/>
    </contour>
    <contour>
      <point x="80" y="306" type="move" name="_top"/>
    </contour>
  </outline>
</glyph>
<glyph name="copyright" format="1">
  <advance width="352"/>
  <unicode hex="00A9"/>
  <outline>
    <contour>
      <point x="72" y="407"/>
      <point x="9" y="326"/>
      <point x="9" y="200" type="curve" smooth="yes"/>
      <point x="9" y="74"/>
      <point x="72" y="-7"/>
      <point x="176" y="-7" type="curve" smooth="yes"/>
      <point x="279" y="-7"/>
      <point x="343" y="74"/>
      <point x="343" y="200" type="curve" smooth="yes"/>
      <point x="343" y="326"/>
      <point x="279" y="407"/>
      <point x="176" y="407" type="curve" smooth="yes"/>
    </contour>
    <contour>
      <point x="118" y="322"/>
      <point x="83" y="283"/>
      <point x="83" y="200" type="curve" smooth="yes"/>
      <point x="83" y="117"/>
      <point x="118" y="78"/>
      <point x="177" y="78" type="curve" smooth="yes"/>
      <point x="227" y="78"/>
      <point x="264" y="108"/>
      <point x="264" y="169" type="curve"/>
      <point x="215" y="169" type="line"/>
      <point x="215" y="137"/>
      <point x="200" y="122"/>
      <point x="179" y="122" type="curve" smooth="yes"/>
      <point x="149" y="122"/>
      <point x="134" y="148"/>
      <point x="134" y="192" type="curve" smooth="yes"/>
      <point x="134" y="208" type="line" smooth="yes"/>
      <point x="134" y="252"/>
      <point x="148" y="279"/>
      <point x="177" y="279" type="curve" smooth="yes"/>
      <point x="198" y="279"/>
      <point x="214" y="263"/>
      <point x="214" y="230" type="curve"/>
      <point x="264" y="230" type="line"/>
      <point x="264" y="294"/>
      <point x="227" y="322"/>
      <point x="177" y="322" type="curve" smooth="yes"/>
    </contour>
    <contour>
      <point x="259" y="374"/>
      <point x="310" y="306"/>
      <point x="310" y="200" type="curve" smooth="yes"/>
      <point x="310" y="93"/>
      <point x="259" y="25"/>
      <point x="176" y="25" type="curve" smooth="yes"/>
      <point x="93" y="25"/>
      <point x="42" y="93"/>
      <point x="42" y="200" type="curve" smooth="yes"/>
      <point x="42" y="306"/>
      <point x="93" y="374"/>
      <point x="176" y="374" type="curve" smooth="yes"/>
    </contour>
  </outline>
</glyph>
<glyph name="ordfeminine" format="1">
  <advance width="177"/>
  <unicode hex="00AA"/>
  <outline>
    <contour>
      <point x="45" y="428"/>
      <point x="18" y="405"/>
      <point x="18" y="370" type="curve" smooth="yes"/>
      <point x="18" y="366"/>
      <point x="18" y="364"/>
      <point x="18" y="362" type="curve"/>
      <point x="67" y="362" type="line"/>
      <point x="67" y="368" type="line" smooth="yes"/>
      <point x="67" y="376"/>
      <point x="72" y="387"/>
      <point x="89" y="387" type="curve" smooth="yes"/>
      <point x="105" y="387"/>
      <point x="108" y="376"/>
      <point x="108" y="364" type="curve" smooth="yes"/>
      <point x="108" y="342" type="line"/>
      <point x="49" y="342"/>
      <point x="8" y="325"/>
      <point x="8" y="270" type="curve" smooth="yes"/>
      <point x="8" y="221"/>
      <point x="41" y="212"/>
      <point x="60" y="212" type="curve" smooth="yes"/>
      <point x="88" y="212"/>
      <point x="101" y="222"/>
      <point x="113" y="239" type="curve"/>
      <point x="115" y="239" type="line"/>
      <point x="119" y="223"/>
      <point x="132" y="212"/>
      <point x="151" y="212" type="curve" smooth="yes"/>
      <point x="165" y="212"/>
      <point x="173" y="215"/>
      <point x="179" y="217" type="curve"/>
      <point x="179" y="254" type="line"/>
      <point x="169" y="254" type="line" smooth="yes"/>
      <point x="163" y="254"/>
      <point x="158" y="258"/>
      <point x="158" y="268" type="curve" smooth="yes"/>
      <point x="158" y="366" type="line" smooth="yes"/>
      <point x="158" y="405"/>
      <point x="136" y="428"/>
      <point x="88" y="428" type="curve" smooth="yes"/>
    </contour>
    <contour>
      <point x="108" y="296" type="line"/>
      <point x="108" y="273"/>
      <point x="100" y="253"/>
      <point x="80" y="253" type="curve" smooth="yes"/>
      <point x="65" y="253"/>
      <point x="59" y="261"/>
      <point x="59" y="273" type="curve" smooth="yes"/>
      <point x="59" y="301"/>
      <point x="83" y="308"/>
      <point x="108" y="308" type="curve"/>
    </contour>
  </outline>
</glyph>
<glyph name="guillemotleft" format="1">
  <advance width="266"/>
  <unicode hex="00AB"/>
  <outline>
    <contour>
      <point x="187" y="190" type="line"/>
      <point x="250" y="306" type="line"/>
      <point x="197" y="306" type="line"/>
      <point x="118" y="190" type="line"/>
      <point x="197" y="73" type="line"/>
      <point x="250" y="73" type="line"/>
    </contour>
    <contour>
      <point x="80" y="190" type="line"/>
      <point x="143" y="306" type="line"/>
      <point x="90" y="306" type="line"/>
      <point x="11" y="190" type="line"/>
      <point x="90" y="73" type="line"/>
      <point x="143" y="73" type="line"/>
    </contour>
  </outline>
</glyph>
<glyph name="logicalnot" format="1">
  <advance width="279"/>
  <unicode hex="00AC"/>
  <outline>
    <contour>
      <point x="259" y="109" type="line"/>
      <point x="259" y="270" type="line"/>
      <point x="17" y="270" type="line"/>
      <point x="17" y="204" type="line"/>
      <point x="198" y="204" type="line"/>
      <point x="198" y="109" type="line"/>
    </contour>
  </outline>
</glyph>
<glyph name="registered" format="1">
  <advance width="555"/>
  <unicode hex="00AE"/>
  <outline>
    <contour>
      <point x="114" y="642"/>
      <point x="15" y="514"/>
      <point x="15" y="315" type="curve" smooth="yes"/>
      <point x="15" y="116"/>
      <point x="114" y="-11"/>
      <point x="278" y="-11" type="curve" smooth="yes"/>
      <point x="441" y="-11"/>
      <point x="541" y="116"/>
      <point x="541" y="315" type="curve" smooth="yes"/>
      <point x="541" y="514"/>
      <point x="441" y="642"/>
      <point x="278" y="642" type="curve" smooth="yes"/>
    </contour>
    <contour>
      <point x="409" y="591"/>
      <point x="489" y="484"/>
      <point x="489" y="315" type="curve" smooth="yes"/>
      <point x="489" y="147"/>
      <point x="409" y="40"/>
      <point x="278" y="40" type="curve" smooth="yes"/>
      <point x="147" y="40"/>
      <point x="67" y="147"/>
      <point x="67" y="315" type="curve" smooth="yes"/>
      <point x="67" y="484"/>
      <point x="147" y="591"/>
      <point x="278" y="591" type="curve" smooth="yes"/>
    </contour>
    <contour>
      <point x="160" y="502" type="line"/>
      <point x="160" y="129" type="line"/>
      <point x="239" y="129" type="line"/>
      <point x="239" y="281" type="line"/>
      <point x="272" y="281" type="line" smooth="yes"/>
      <point x="298" y="281"/>
      <point x="327" y="264"/>
      <point x="327" y="197" type="curve" smooth="yes"/>
      <point x="327" y="139"/>
      <point x="361" y="126"/>
      <point x="396" y="126" type="curve" smooth="yes"/>
      <point x="408" y="126"/>
      <point x="426" y="130"/>
      <point x="432" y="133" type="curve"/>
      <point x="432" y="152" type="line"/>
      <point x="416" y="157"/>
      <point x="406" y="172"/>
      <point x="406" y="218" type="curve" smooth="yes"/>
      <point x="406" y="289"/>
      <point x="369" y="311"/>
      <point x="352" y="317" type="curve"/>
      <point x="352" y="321" type="line"/>
      <point x="384" y="333"/>
      <point x="409" y="360"/>
      <point x="409" y="408" type="curve" smooth="yes"/>
      <point x="409" y="464"/>
      <point x="365" y="502"/>
      <point x="305" y="502" type="curve" smooth="yes"/>
    </contour>
    <contour>
      <point x="239" y="431" type="line"/>
      <point x="280" y="431" type="line" smooth="yes"/>
      <point x="309" y="431"/>
      <point x="329" y="416"/>
      <point x="329" y="393" type="curve" smooth="yes"/>
      <point x="329" y="368"/>
      <point x="307" y="352"/>
      <point x="277" y="352" type="curve" smooth="yes"/>
      <point x="239" y="352" type="line"/>
    </contour>
  </outline>
</glyph>
<glyph name="macron" format="1">
  <advance width="159"/>
  <unicode hex="00AF"/>
  <outline>
    <contour>
      <point x="154" y="349" type="line"/>
      <point x="154" y="399" type="line"/>
      <point x="5" y="399" type="line"/>
      <point x="5" y="349" type="line"/>
    </contour>
    <contour>
      <point x="80" y="306" type="move" name="_top"/>
    </contour>
  </outline>
</glyph>
<glyph name="degree" format="1">
  <advance width="233"/>
  <unicode hex="00B0"/>
  <outline>
    <contour>
      <point x="69" y="407"/>
      <point x="33" y="370"/>
      <point x="33" y="324" type="curve" smooth="yes"/>
      <point x="33" y="278"/>
      <point x="69" y="241"/>
      <point x="115" y="241" type="curve" smooth="yes"/>
      <point x="161" y="241"/>
      <point x="198" y="278"/>
      <point x="198" y="324" type="curve" smooth="yes"/>
      <point x="198" y="370"/>
      <point x="161" y="407"/>
      <point x="115" y="407" type="curve" smooth="yes"/>
    </contour>
    <contour>
      <point x="139" y="366"/>
      <point x="158" y="348"/>
      <point x="158" y="324" type="curve" smooth="yes"/>
      <point x="158" y="300"/>
      <point x="139" y="281"/>
      <point x="115" y="281" type="curve" smooth="yes"/>
      <point x="92" y="281"/>
      <point x="72" y="300"/>
      <point x="72" y="324" type="curve" smooth="yes"/>
      <point x="72" y="348"/>
      <point x="92" y="366"/>
      <point x="115" y="366" type="curve" smooth="yes"/>
    </contour>
  </outline>
</glyph>
<glyph name="plusminus" format="1">
  <advance width="320"/>
  <unicode hex="00B1"/>
  <outline>
    <contour>
      <point x="189" y="245" type="line"/>
      <point x="189" y="347" type="line"/>
      <point x="129" y="347" type="line"/>
      <point x="129" y="245" type="line"/>
      <point x="40" y="245" type="line"/>
      <point x="40" y="185" type="line"/>
      <point x="129" y="185" type="line"/>
      <point x="129" y="84" type="line"/>
      <point x="189" y="84" type="line"/>
      <point x="189" y="185" type="line"/>
      <point x="279" y="185" type="line"/>
      <point x="279" y="245" type="line"/>
    </contour>
    <contour>
      <point x="279" y="0" type="line"/>
      <point x="279" y="60" type="line"/>
      <point x="40" y="60" type="line"/>
      <point x="40" y="0" type="line"/>
    </contour>
  </outline>
</glyph>
<glyph name="uni00B2" format="1">
  <advance width="159"/>
  <unicode hex="00B2"/>
  <outline>
    <contour>
      <point x="43" y="428"/>
      <point x="11" y="407"/>
      <point x="11" y="354" type="curve" smooth="yes"/>
      <point x="11" y="346"/>
      <point x="13" y="339"/>
      <point x="13" y="339" type="curve"/>
      <point x="59" y="339" type="line"/>
      <point x="59" y="355" type="line" smooth="yes"/>
      <point x="59" y="372"/>
      <point x="65" y="387"/>
      <point x="79" y="387" type="curve" smooth="yes"/>
      <point x="94" y="387"/>
      <point x="98" y="375"/>
      <point x="98" y="365" type="curve" smooth="yes"/>
      <point x="98" y="335"/>
      <point x="78" y="312"/>
      <point x="53" y="285" type="curve" smooth="yes"/>
      <point x="32" y="260"/>
      <point x="9" y="234"/>
      <point x="9" y="197" type="curve" smooth="yes"/>
      <point x="9" y="186" type="line"/>
      <point x="148" y="186" type="line"/>
      <point x="148" y="229" type="line"/>
      <point x="67" y="229" type="line"/>
      <point x="72" y="238"/>
      <point x="78" y="245"/>
      <point x="84" y="254" type="curve" smooth="yes"/>
      <point x="113" y="287"/>
      <point x="146" y="319"/>
      <point x="146" y="364" type="curve" smooth="yes"/>
      <point x="146" y="409"/>
      <point x="117" y="428"/>
      <point x="81" y="428" type="curve" smooth="yes"/>
    </contour>
  </outline>
</glyph>
<glyph name="uni00B3" format="1">
  <advance width="159"/>
  <unicode hex="00B3"/>
  <outline>
    <contour>
      <point x="40" y="428"/>
      <point x="13" y="401"/>
      <point x="13" y="361" type="curve" smooth="yes"/>
      <point x="13" y="349" type="line"/>
      <point x="60" y="349" type="line"/>
      <point x="60" y="358" type="line" smooth="yes"/>
      <point x="60" y="378"/>
      <point x="67" y="387"/>
      <point x="79" y="387" type="curve" smooth="yes"/>
      <point x="90" y="387"/>
      <point x="98" y="379"/>
      <point x="98" y="359" type="curve" smooth="yes"/>
      <point x="98" y="337"/>
      <point x="88" y="326"/>
      <point x="78" y="326" type="curve" smooth="yes"/>
      <point x="63" y="326" type="line"/>
      <point x="63" y="287" type="line"/>
      <point x="77" y="287" type="line" smooth="yes"/>
      <point x="89" y="287"/>
      <point x="101" y="280"/>
      <point x="101" y="254" type="curve" smooth="yes"/>
      <point x="101" y="231"/>
      <point x="92" y="222"/>
      <point x="79" y="222" type="curve" smooth="yes"/>
      <point x="63" y="222"/>
      <point x="56" y="233"/>
      <point x="56" y="254" type="curve" smooth="yes"/>
      <point x="56" y="264" type="line"/>
      <point x="8" y="264" type="line"/>
      <point x="8" y="254" type="line" smooth="yes"/>
      <point x="8" y="210"/>
      <point x="34" y="182"/>
      <point x="80" y="182" type="curve" smooth="yes"/>
      <point x="121" y="182"/>
      <point x="149" y="208"/>
      <point x="149" y="251" type="curve" smooth="yes"/>
      <point x="149" y="280"/>
      <point x="134" y="299"/>
      <point x="116" y="309" type="curve"/>
      <point x="133" y="320"/>
      <point x="146" y="335"/>
      <point x="146" y="361" type="curve" smooth="yes"/>
      <point x="146" y="404"/>
      <point x="118" y="428"/>
      <point x="78" y="428" type="curve" smooth="yes"/>
    </contour>
  </outline>
</glyph>
<glyph name="acute" format="1">
  <advance width="159"/>
  <unicode hex="00B4"/>
  <outline>
    <contour>
      <point x="148" y="419" type="line"/>
      <point x="148" y="421" type="line"/>
      <point x="78" y="421" type="line"/>
      <point x="28" y="344" type="line"/>
      <point x="86" y="344" type="line"/>
    </contour>
    <contour>
      <point x="88" y="306" type="move" name="_top"/>
    </contour>
  </outline>
</glyph>
<glyph name="paragraph" format="1">
  <advance width="266"/>
  <unicode hex="00B6"/>
  <outline>
    <contour>
      <point x="262" y="355" type="line"/>
      <point x="262" y="399" type="line"/>
      <point x="123" y="399" type="line" smooth="yes"/>
      <point x="60" y="399"/>
      <point x="11" y="343"/>
      <point x="11" y="272" type="curve" smooth="yes"/>
      <point x="11" y="206"/>
      <point x="53" y="153"/>
      <point x="109" y="146" type="curve"/>
      <point x="109" y="-101" type="line"/>
      <point x="156" y="-101" type="line"/>
      <point x="156" y="355" type="line"/>
      <point x="186" y="355" type="line"/>
      <point x="186" y="-101" type="line"/>
      <point x="233" y="-101" type="line"/>
      <point x="233" y="355" type="line"/>
    </contour>
  </outline>
</glyph>
<glyph name="periodcentered" format="1">
  <advance width="210"/>
  <unicode hex="00B7"/>
  <outline>
    <contour>
      <point x="160" y="256" type="line"/>
      <point x="160" y="376" type="line"/>
      <point x="49" y="376" type="line"/>
      <point x="49" y="256" type="line"/>
    </contour>
  </outline>
</glyph>
<glyph name="onesuperior" format="1">
  <advance width="251"/>
  <unicode hex="00B9"/>
  <outline>
    <contour>
      <point x="172" y="358" type="line"/>
      <point x="172" y="665" type="line"/>
      <point x="135" y="665" type="line"/>
      <point x="105" y="645"/>
      <point x="57" y="627"/>
      <point x="29" y="623" type="curve"/>
      <point x="29" y="572" type="line"/>
      <point x="99" y="572" type="line"/>
      <point x="99" y="358" type="line"/>
      <point x="30" y="358" type="line"/>
      <point x="30" y="294" type="line"/>
      <point x="233" y="294" type="line"/>
      <point x="233" y="358" type="line"/>
    </contour>
  </outline>
</glyph>
<glyph name="uni00B9" format="1">
  <advance width="159"/>
  <unicode hex="00B9"/>
  <outline>
    <contour>
      <point x="109" y="227" type="line"/>
      <point x="109" y="421" type="line"/>
      <point x="86" y="421" type="line"/>
      <point x="67" y="409"/>
      <point x="36" y="397"/>
      <point x="18" y="395" type="curve"/>
      <point x="18" y="362" type="line"/>
      <point x="63" y="362" type="line"/>
      <point x="63" y="227" type="line"/>
      <point x="19" y="227" type="line"/>
      <point x="19" y="186" type="line"/>
      <point x="148" y="186" type="line"/>
      <point x="148" y="227" type="line"/>
    </contour>
  </outline>
</glyph>
<glyph name="ordmasculine" format="1">
  <advance width="275"/>
  <unicode hex="00BA"/>
  <outline>
    <contour>
      <point x="52" y="675"/>
      <point x="9" y="622"/>
      <point x="9" y="503" type="curve" smooth="yes"/>
      <point x="9" y="386"/>
      <point x="52" y="333"/>
      <point x="139" y="333" type="curve" smooth="yes"/>
      <point x="227" y="333"/>
      <point x="270" y="386"/>
      <point x="270" y="503" type="curve" smooth="yes"/>
      <point x="270" y="622"/>
      <point x="227" y="675"/>
      <point x="139" y="675" type="curve" smooth="yes"/>
    </contour>
    <contour>
      <point x="176" y="607"/>
      <point x="188" y="575"/>
      <point x="188" y="516" type="curve" smooth="yes"/>
      <point x="188" y="492" type="line" smooth="yes"/>
      <point x="188" y="432"/>
      <point x="176" y="400"/>
      <point x="139" y="400" type="curve" smooth="yes"/>
      <point x="104" y="400"/>
      <point x="92" y="432"/>
      <point x="92" y="492" type="curve" smooth="yes"/>
      <point x="92" y="516" type="line" smooth="yes"/>
      <point x="92" y="575"/>
      <point x="104" y="607"/>
      <point x="139" y="607" type="curve" smooth="yes"/>
    </contour>
  </outline>
</glyph>
<glyph name="guillemotright" format="1">
  <advance width="266"/>
  <unicode hex="00BB"/>
  <outline>
    <contour>
      <point x="254" y="190" type="line"/>
      <point x="175" y="306" type="line"/>
      <point x="123" y="306" type="line"/>
      <point x="185" y="190" type="line"/>
      <point x="123" y="73" type="line"/>
      <point x="175" y="73" type="line"/>
    </contour>
    <contour>
      <point x="148" y="190" type="line"/>
      <point x="69" y="306" type="line"/>
      <point x="16" y="306" type="line"/>
      <point x="78" y="190" type="line"/>
      <point x="16" y="73" type="line"/>
      <point x="69" y="73" type="line"/>
    </contour>
  </outline>
</glyph>
<glyph name="onequarter" format="1">
  <advance width="629"/>
  <unicode hex="00BC"/>
  <outline>
    <contour>
      <point x="181" y="-11" type="line"/>
      <point x="544" y="642" type="line"/>
      <point x="484" y="642" type="line"/>
      <point x="120" y="-11" type="line"/>
    </contour>
    <contour>
      <point x="172" y="323" type="line"/>
      <point x="172" y="630" type="line"/>
      <point x="135" y="630" type="line"/>
      <point x="105" y="610"/>
      <point x="57" y="593"/>
      <point x="29" y="590" type="curve"/>
      <point x="29" y="538" type="line"/>
      <point x="99" y="538" type="line"/>
      <point x="99" y="323" type="line"/>
      <point x="30" y="323" type="line"/>
      <point x="30" y="260" type="line"/>
      <point x="233" y="260" type="line"/>
      <point x="233" y="323" type="line"/>
    </contour>
    <contour>
      <point x="459" y="381" type="line"/>
      <point x="436" y="297"/>
      <point x="402" y="205"/>
      <point x="365" y="138" type="curve"/>
      <point x="365" y="82" type="line"/>
      <point x="496" y="82" type="line"/>
      <point x="496" y="0" type="line"/>
      <point x="569" y="0" type="line"/>
      <point x="569" y="82" type="line"/>
      <point x="607" y="82" type="line"/>
      <point x="607" y="146" type="line"/>
      <point x="569" y="146" type="line"/>
      <point x="569" y="300" type="line"/>
      <point x="544" y="300" type="line"/>
      <point x="536" y="269"/>
      <point x="512" y="207"/>
      <point x="496" y="179" type="curve"/>
      <point x="496" y="146" type="line"/>
      <point x="434" y="146" type="line"/>
      <point x="458" y="181"/>
      <point x="512" y="287"/>
      <point x="531" y="381" type="curve"/>
    </contour>
  </outline>
</glyph>
<glyph name="onehalf" format="1">
  <advance width="399"/>
  <unicode hex="00BD"/>
  <outline>
    <contour>
      <point x="112" y="-7" type="line"/>
      <point x="342" y="407" type="line"/>
      <point x="304" y="407" type="line"/>
      <point x="72" y="-7" type="line"/>
    </contour>
    <contour>
      <point x="109" y="205" type="line"/>
      <point x="109" y="399" type="line"/>
      <point x="86" y="399" type="line"/>
      <point x="67" y="387"/>
      <point x="36" y="376"/>
      <point x="18" y="374" type="curve"/>
      <point x="18" y="341" type="line"/>
      <point x="63" y="341" type="line"/>
      <point x="63" y="205" type="line"/>
      <point x="19" y="205" type="line"/>
      <point x="19" y="165" type="line"/>
      <point x="148" y="165" type="line"/>
      <point x="148" y="205" type="line"/>
    </contour>
    <contour>
      <point x="283" y="241"/>
      <point x="250" y="220"/>
      <point x="250" y="168" type="curve" smooth="yes"/>
      <point x="250" y="159"/>
      <point x="252" y="152"/>
      <point x="252" y="152" type="curve"/>
      <point x="298" y="152" type="line"/>
      <point x="298" y="168" type="line" smooth="yes"/>
      <point x="298" y="186"/>
      <point x="304" y="200"/>
      <point x="318" y="200" type="curve" smooth="yes"/>
      <point x="333" y="200"/>
      <point x="337" y="188"/>
      <point x="337" y="179" type="curve" smooth="yes"/>
      <point x="337" y="149"/>
      <point x="316" y="126"/>
      <point x="292" y="98" type="curve" smooth="yes"/>
      <point x="270" y="73"/>
      <point x="248" y="47"/>
      <point x="248" y="11" type="curve" smooth="yes"/>
      <point x="248" y="0" type="line"/>
      <point x="386" y="0" type="line"/>
      <point x="386" y="43" type="line"/>
      <point x="306" y="43" type="line"/>
      <point x="311" y="51"/>
      <point x="316" y="58"/>
      <point x="322" y="65" type="curve" smooth="yes"/>
      <point x="351" y="100"/>
      <point x="385" y="132"/>
      <point x="385" y="179" type="curve" smooth="yes"/>
      <point x="385" y="223"/>
      <point x="356" y="241"/>
      <point x="320" y="241" type="curve" smooth="yes"/>
    </contour>
  </outline>
</glyph>
<glyph name="threequarters" format="1">
  <advance width="399"/>
  <unicode hex="00BE"/>
  <outline>
    <contour>
      <point x="113" y="-7" type="line"/>
      <point x="343" y="407" type="line"/>
      <point x="304" y="407" type="line"/>
      <point x="73" y="-7" type="line"/>
    </contour>
    <contour>
      <point x="48" y="407"/>
      <point x="21" y="380"/>
      <point x="21" y="340" type="curve" smooth="yes"/>
      <point x="21" y="328" type="line"/>
      <point x="69" y="328" type="line"/>
      <point x="69" y="337" type="line" smooth="yes"/>
      <point x="69" y="357"/>
      <point x="76" y="366"/>
      <point x="88" y="366" type="curve" smooth="yes"/>
      <point x="99" y="366"/>
      <point x="106" y="358"/>
      <point x="106" y="339" type="curve" smooth="yes"/>
      <point x="106" y="316"/>
      <point x="97" y="305"/>
      <point x="86" y="305" type="curve" smooth="yes"/>
      <point x="71" y="305" type="line"/>
      <point x="71" y="266" type="line"/>
      <point x="86" y="266" type="line" smooth="yes"/>
      <point x="98" y="266"/>
      <point x="110" y="259"/>
      <point x="110" y="233" type="curve" smooth="yes"/>
      <point x="110" y="210"/>
      <point x="101" y="201"/>
      <point x="88" y="201" type="curve" smooth="yes"/>
      <point x="72" y="201"/>
      <point x="65" y="212"/>
      <point x="65" y="233" type="curve" smooth="yes"/>
      <point x="65" y="243" type="line"/>
      <point x="17" y="243" type="line"/>
      <point x="17" y="233" type="line" smooth="yes"/>
      <point x="17" y="189"/>
      <point x="43" y="161"/>
      <point x="88" y="161" type="curve" smooth="yes"/>
      <point x="129" y="161"/>
      <point x="158" y="187"/>
      <point x="158" y="230" type="curve" smooth="yes"/>
      <point x="158" y="259"/>
      <point x="143" y="279"/>
      <point x="125" y="288" type="curve"/>
      <point x="142" y="299"/>
      <point x="154" y="314"/>
      <point x="154" y="340" type="curve" smooth="yes"/>
      <point x="154" y="384"/>
      <point x="127" y="407"/>
      <point x="88" y="407" type="curve" smooth="yes"/>
    </contour>
    <contour>
      <point x="289" y="241" type="line"/>
      <point x="274" y="188"/>
      <point x="254" y="130"/>
      <point x="229" y="88" type="curve"/>
      <point x="229" y="52" type="line"/>
      <point x="313" y="52" type="line"/>
      <point x="313" y="0" type="line"/>
      <point x="359" y="0" type="line"/>
      <point x="359" y="52" type="line"/>
      <point x="384" y="52" type="line"/>
      <point x="384" y="92" type="line"/>
      <point x="359" y="92" type="line"/>
      <point x="359" y="190" type="line"/>
      <point x="343" y="190" type="line"/>
      <point x="338" y="171"/>
      <point x="322" y="131"/>
      <point x="313" y="113" type="curve"/>
      <point x="313" y="92" type="line"/>
      <point x="273" y="92" type="line"/>
      <point x="289" y="115"/>
      <point x="322" y="182"/>
      <point x="335" y="241" type="curve"/>
    </contour>
  </outline>
</glyph>
<glyph name="questiondown" format="1">
  <advance width="292"/>
  <unicode hex="00BF"/>
  <outline>
    <contour>
      <point x="174" y="192" type="line"/>
      <point x="101" y="192" type="line"/>
      <point x="101" y="175" type="line" smooth="yes"/>
      <point x="101" y="107"/>
      <point x="28" y="107"/>
      <point x="28" y="3" type="curve" smooth="yes"/>
      <point x="28" y="-58"/>
      <point x="71" y="-100"/>
      <point x="140" y="-100" type="curve" smooth="yes"/>
      <point x="223" y="-100"/>
      <point x="264" y="-47"/>
      <point x="264" y="18" type="curve" smooth="yes"/>
      <point x="264" y="26"/>
      <point x="263" y="39"/>
      <point x="263" y="39" type="curve" smooth="yes"/>
      <point x="189" y="39" type="line" smooth="yes"/>
      <point x="189" y="39"/>
      <point x="190" y="33"/>
      <point x="190" y="23" type="curve" smooth="yes"/>
      <point x="190" y="2"/>
      <point x="184" y="-38"/>
      <point x="145" y="-38" type="curve" smooth="yes"/>
      <point x="109" y="-38"/>
      <point x="104" y="-2"/>
      <point x="104" y="10" type="curve" smooth="yes"/>
      <point x="104" y="85"/>
      <point x="174" y="97"/>
      <point x="174" y="167" type="curve" smooth="yes"/>
    </contour>
    <contour>
      <point x="177" y="227" type="line"/>
      <point x="177" y="306" type="line"/>
      <point x="97" y="306" type="line"/>
      <point x="97" y="227" type="line"/>
    </contour>
  </outline>
</glyph>
<glyph name="Agrave" format="1">
  <advance width="345"/>
  <unicode hex="00C0"/>
  <outline>
    <contour>
      <point x="215" y="399" type="line"/>
      <point x="129" y="399" type="line"/>
      <point x="0" y="0" type="line"/>
      <point x="72" y="0" type="line"/>
      <point x="96" y="78" type="line"/>
      <point x="244" y="78" type="line"/>
      <point x="268" y="0" type="line"/>
      <point x="344" y="0" type="line"/>
    </contour>
    <contour>
      <point x="171" y="333" type="line"/>
      <point x="171" y="333"/>
      <point x="177" y="299"/>
      <point x="183" y="279" type="curve" smooth="yes"/>
      <point x="223" y="145" type="line"/>
      <point x="117" y="145" type="line"/>
      <point x="158" y="279" type="line" smooth="yes"/>
      <point x="163" y="297"/>
      <point x="169" y="333"/>
      <point x="169" y="333" type="curve"/>
    </contour>
    <contour>
      <point x="163" y="515" type="line"/>
      <point x="93" y="515" type="line"/>
      <point x="92" y="513" type="line"/>
      <point x="155" y="438" type="line"/>
      <point x="213" y="438" type="line"/>
    </contour>
  </outline>
</glyph>
<glyph name="Aacute" format="1">
  <advance width="544"/>
  <unicode hex="00C1"/>
  <outline>
    <contour>
      <point x="340" y="630" type="line"/>
      <point x="203" y="630" type="line"/>
      <point x="0" y="0" type="line"/>
      <point x="114" y="0" type="line"/>
      <point x="152" y="124" type="line"/>
      <point x="385" y="124" type="line"/>
      <point x="423" y="0" type="line"/>
      <point x="543" y="0" type="line"/>
    </contour>
    <contour>
      <point x="270" y="525" type="line"/>
      <point x="270" y="525"/>
      <point x="279" y="472"/>
      <point x="289" y="440" type="curve" smooth="yes"/>
      <point x="353" y="229" type="line"/>
      <point x="184" y="229" type="line"/>
      <point x="249" y="440" type="line" smooth="yes"/>
      <point x="258" y="469"/>
      <point x="266" y="525"/>
      <point x="266" y="525" type="curve"/>
    </contour>
    <contour>
      <point x="398" y="812" type="line"/>
      <point x="288" y="812" type="line"/>
      <point x="209" y="691" type="line"/>
      <point x="300" y="691" type="line"/>
      <point x="399" y="809" type="line"/>
    </contour>
  </outline>
</glyph>
<glyph name="Acircumflex" format="1">
  <advance width="345"/>
  <unicode hex="00C2"/>
  <outline>
    <contour>
      <point x="215" y="399" type="line"/>
      <point x="129" y="399" type="line"/>
      <point x="0" y="0" type="line"/>
      <point x="72" y="0" type="line"/>
      <point x="96" y="78" type="line"/>
      <point x="244" y="78" type="line"/>
      <point x="268" y="0" type="line"/>
      <point x="344" y="0" type="line"/>
    </contour>
    <contour>
      <point x="171" y="333" type="line"/>
      <point x="171" y="333"/>
      <point x="177" y="299"/>
      <point x="183" y="279" type="curve" smooth="yes"/>
      <point x="223" y="145" type="line"/>
      <point x="117" y="145" type="line"/>
      <point x="158" y="279" type="line" smooth="yes"/>
      <point x="163" y="297"/>
      <point x="169" y="333"/>
      <point x="169" y="333" type="curve"/>
    </contour>
    <contour>
      <point x="202" y="515" type="line"/>
      <point x="144" y="515" type="line"/>
      <point x="94" y="436" type="line"/>
      <point x="146" y="436" type="line"/>
      <point x="173" y="476" type="line"/>
      <point x="198" y="436" type="line"/>
      <point x="251" y="436" type="line"/>
    </contour>
  </outline>
</glyph>
<glyph name="Atilde" format="1">
  <advance width="345"/>
  <unicode hex="00C3"/>
  <outline>
    <contour>
      <point x="215" y="399" type="line"/>
      <point x="129" y="399" type="line"/>
      <point x="0" y="0" type="line"/>
      <point x="72" y="0" type="line"/>
      <point x="96" y="78" type="line"/>
      <point x="244" y="78" type="line"/>
      <point x="268" y="0" type="line"/>
      <point x="344" y="0" type="line"/>
    </contour>
    <contour>
      <point x="171" y="333" type="line"/>
      <point x="171" y="333"/>
      <point x="177" y="299"/>
      <point x="183" y="279" type="curve" smooth="yes"/>
      <point x="223" y="145" type="line"/>
      <point x="117" y="145" type="line"/>
      <point x="158" y="279" type="line" smooth="yes"/>
      <point x="163" y="297"/>
      <point x="169" y="333"/>
      <point x="169" y="333" type="curve"/>
    </contour>
    <contour>
      <point x="232" y="515" type="line"/>
      <point x="229" y="498"/>
      <point x="221" y="493"/>
      <point x="209" y="493" type="curve" smooth="yes"/>
      <point x="183" y="493"/>
      <point x="160" y="515"/>
      <point x="132" y="515" type="curve" smooth="yes"/>
      <point x="91" y="515"/>
      <point x="74" y="475"/>
      <point x="74" y="444" type="curve"/>
      <point x="113" y="444" type="line"/>
      <point x="115" y="459"/>
      <point x="123" y="465"/>
      <point x="136" y="465" type="curve" smooth="yes"/>
      <point x="162" y="465"/>
      <point x="185" y="444"/>
      <point x="213" y="444" type="curve" smooth="yes"/>
      <point x="254" y="444"/>
      <point x="270" y="482"/>
      <point x="270" y="515" type="curve"/>
    </contour>
  </outline>
</glyph>
<glyph name="Adieresis" format="1">
  <advance width="345"/>
  <unicode hex="00C4"/>
  <outline>
    <contour>
      <point x="215" y="399" type="line"/>
      <point x="129" y="399" type="line"/>
      <point x="0" y="0" type="line"/>
      <point x="72" y="0" type="line"/>
      <point x="96" y="78" type="line"/>
      <point x="244" y="78" type="line"/>
      <point x="268" y="0" type="line"/>
      <point x="344" y="0" type="line"/>
    </contour>
    <contour>
      <point x="171" y="333" type="line"/>
      <point x="171" y="333"/>
      <point x="177" y="299"/>
      <point x="183" y="279" type="curve" smooth="yes"/>
      <point x="223" y="145" type="line"/>
      <point x="117" y="145" type="line"/>
      <point x="158" y="279" type="line" smooth="yes"/>
      <point x="163" y="297"/>
      <point x="169" y="333"/>
      <point x="169" y="333" type="curve"/>
    </contour>
    <contour>
      <point x="151" y="515" type="line"/>
      <point x="93" y="515" type="line"/>
      <point x="93" y="451" type="line"/>
      <point x="151" y="451" type="line"/>
    </contour>
    <contour>
      <point x="253" y="515" type="line"/>
      <point x="194" y="515" type="line"/>
      <point x="194" y="451" type="line"/>
      <point x="253" y="451" type="line"/>
    </contour>
  </outline>
</glyph>
<glyph name="Aring" format="1">
  <advance width="345"/>
  <unicode hex="00C5"/>
  <outline>
    <contour>
      <point x="215" y="399" type="line"/>
      <point x="129" y="399" type="line"/>
      <point x="0" y="0" type="line"/>
      <point x="72" y="0" type="line"/>
      <point x="96" y="78" type="line"/>
      <point x="244" y="78" type="line"/>
      <point x="268" y="0" type="line"/>
      <point x="344" y="0" type="line"/>
    </contour>
    <contour>
      <point x="171" y="333" type="line"/>
      <point x="171" y="333"/>
      <point x="177" y="299"/>
      <point x="183" y="279" type="curve" smooth="yes"/>
      <point x="223" y="145" type="line"/>
      <point x="117" y="145" type="line"/>
      <point x="158" y="279" type="line" smooth="yes"/>
      <point x="163" y="297"/>
      <point x="169" y="333"/>
      <point x="169" y="333" type="curve"/>
    </contour>
    <contour>
      <point x="142" y="532"/>
      <point x="117" y="507"/>
      <point x="117" y="476" type="curve" smooth="yes"/>
      <point x="117" y="444"/>
      <point x="142" y="420"/>
      <point x="173" y="420" type="curve" smooth="yes"/>
      <point x="204" y="420"/>
      <point x="229" y="445"/>
      <point x="229" y="476" type="curve" smooth="yes"/>
      <point x="229" y="506"/>
      <point x="204" y="532"/>
      <point x="173" y="532" type="curve" smooth="yes"/>
    </contour>
    <contour>
      <point x="187" y="503"/>
      <point x="199" y="491"/>
      <point x="199" y="476" type="curve" smooth="yes"/>
      <point x="199" y="461"/>
      <point x="187" y="449"/>
      <point x="173" y="449" type="curve" smooth="yes"/>
      <point x="158" y="449"/>
      <point x="146" y="461"/>
      <point x="146" y="476" type="curve" smooth="yes"/>
      <point x="146" y="491"/>
      <point x="158" y="503"/>
      <point x="173" y="503" type="curve" smooth="yes"/>
    </contour>
  </outline>
</glyph>
<glyph name="AE" format="1">
  <advance width="754"/>
  <unicode hex="00C6"/>
  <outline>
    <contour>
      <point x="709" y="630" type="line"/>
      <point x="234" y="630" type="line"/>
      <point x="-7" y="0" type="line"/>
      <point x="102" y="0" type="line"/>
      <point x="148" y="124" type="line"/>
      <point x="381" y="124" type="line"/>
      <point x="411" y="0" type="line"/>
      <point x="714" y="0" type="line"/>
      <point x="714" y="105" type="line"/>
      <point x="505" y="105" type="line"/>
      <point x="465" y="270" type="line"/>
      <point x="669" y="270" type="line"/>
      <point x="669" y="375" type="line"/>
      <point x="440" y="375" type="line"/>
      <point x="402" y="526" type="line"/>
      <point x="709" y="526" type="line"/>
    </contour>
    <contour>
      <point x="291" y="502" type="line"/>
      <point x="294" y="491"/>
      <point x="297" y="479"/>
      <point x="300" y="468" type="curve" smooth="yes"/>
      <point x="356" y="229" type="line"/>
      <point x="186" y="229" type="line"/>
      <point x="275" y="468" type="line" smooth="yes"/>
      <point x="280" y="479"/>
      <point x="283" y="491"/>
      <point x="288" y="502" type="curve"/>
    </contour>
    <contour>
      <point x="376" y="630" type="move" name="top"/>
    </contour>
  </outline>
</glyph>
<glyph name="Ccedilla" format="1">
  <advance width="544"/>
  <unicode hex="00C7"/>
  <outline>
    <contour>
      <point x="124" y="642"/>
      <point x="31" y="538"/>
      <point x="31" y="315" type="curve" smooth="yes"/>
      <point x="31" y="112"/>
      <point x="107" y="8"/>
      <point x="241" y="-8" type="curve"/>
      <point x="234" y="-71" type="line"/>
      <point x="264" y="-71" type="line" smooth="yes"/>
      <point x="288" y="-71"/>
      <point x="295" y="-78"/>
      <point x="295" y="-93" type="curve" smooth="yes"/>
      <point x="295" y="-110"/>
      <point x="282" y="-115"/>
      <point x="262" y="-115" type="curve" smooth="yes"/>
      <point x="197" y="-115" type="line"/>
      <point x="197" y="-160" type="line"/>
      <point x="218" y="-164"/>
      <point x="249" y="-167"/>
      <point x="274" y="-167" type="curve" smooth="yes"/>
      <point x="313" y="-167"/>
      <point x="374" y="-155"/>
      <point x="374" y="-93" type="curve" smooth="yes"/>
      <point x="374" y="-51"/>
      <point x="341" y="-33"/>
      <point x="302" y="-30" type="curve"/>
      <point x="304" y="-10" type="line"/>
      <point x="425" y="-2"/>
      <point x="514" y="77"/>
      <point x="514" y="234" type="curve"/>
      <point x="399" y="234" type="line"/>
      <point x="399" y="136"/>
      <point x="354" y="90"/>
      <point x="286" y="90" type="curve" smooth="yes"/>
      <point x="196" y="90"/>
      <point x="153" y="166"/>
      <point x="153" y="292" type="curve" smooth="yes"/>
      <point x="153" y="338" type="line" smooth="yes"/>
      <point x="153" y="464"/>
      <point x="194" y="541"/>
      <point x="282" y="541" type="curve" smooth="yes"/>
      <point x="348" y="541"/>
      <point x="393" y="494"/>
      <point x="393" y="396" type="curve"/>
      <point x="514" y="396" type="line"/>
      <point x="514" y="567"/>
      <point x="414" y="642"/>
      <point x="282" y="642" type="curve" smooth="yes"/>
    </contour>
  </outline>
</glyph>
<glyph name="Egrave" format="1">
  <advance width="319"/>
  <unicode hex="00C8"/>
  <outline>
    <contour>
      <point x="289" y="399" type="line"/>
      <point x="35" y="399" type="line"/>
      <point x="35" y="0" type="line"/>
      <point x="293" y="0" type="line"/>
      <point x="293" y="67" type="line"/>
      <point x="109" y="67" type="line"/>
      <point x="109" y="171" type="line"/>
      <point x="264" y="171" type="line"/>
      <point x="264" y="238" type="line"/>
      <point x="109" y="238" type="line"/>
      <point x="109" y="333" type="line"/>
      <point x="289" y="333" type="line"/>
    </contour>
    <contour>
      <point x="149" y="515" type="line"/>
      <point x="79" y="515" type="line"/>
      <point x="78" y="513" type="line"/>
      <point x="142" y="438" type="line"/>
      <point x="199" y="438" type="line"/>
    </contour>
  </outline>
</glyph>
<glyph name="Eacute" format="1">
  <advance width="319"/>
  <unicode hex="00C9"/>
  <outline>
    <contour>
      <point x="289" y="399" type="line"/>
      <point x="35" y="399" type="line"/>
      <point x="35" y="0" type="line"/>
      <point x="293" y="0" type="line"/>
      <point x="293" y="67" type="line"/>
      <point x="109" y="67" type="line"/>
      <point x="109" y="171" type="line"/>
      <point x="264" y="171" type="line"/>
      <point x="264" y="238" type="line"/>
      <point x="109" y="238" type="line"/>
      <point x="109" y="333" type="line"/>
      <point x="289" y="333" type="line"/>
    </contour>
    <contour>
      <point x="239" y="515" type="line"/>
      <point x="169" y="515" type="line"/>
      <point x="119" y="438" type="line"/>
      <point x="177" y="438" type="line"/>
      <point x="240" y="513" type="line"/>
    </contour>
  </outline>
</glyph>
<glyph name="Ecircumflex" format="1">
  <advance width="319"/>
  <unicode hex="00CA"/>
  <outline>
    <contour>
      <point x="238" y="436" type="line"/>
      <point x="188" y="515" type="line"/>
      <point x="131" y="515" type="line"/>
      <point x="81" y="436" type="line"/>
      <point x="133" y="436" type="line"/>
      <point x="159" y="476" type="line"/>
      <point x="185" y="436" type="line"/>
    </contour>
    <contour>
      <point x="35" y="0" type="line"/>
      <point x="293" y="0" type="line"/>
      <point x="293" y="67" type="line"/>
      <point x="109" y="67" type="line"/>
      <point x="109" y="171" type="line"/>
      <point x="264" y="171" type="line"/>
      <point x="264" y="238" type="line"/>
      <point x="109" y="238" type="line"/>
      <point x="109" y="333" type="line"/>
      <point x="289" y="333" type="line"/>
      <point x="289" y="399" type="line"/>
      <point x="35" y="399" type="line"/>
    </contour>
  </outline>
</glyph>
<glyph name="Edieresis" format="1">
  <advance width="319"/>
  <unicode hex="00CB"/>
  <outline>
    <contour>
      <point x="289" y="399" type="line"/>
      <point x="35" y="399" type="line"/>
      <point x="35" y="0" type="line"/>
      <point x="293" y="0" type="line"/>
      <point x="293" y="67" type="line"/>
      <point x="109" y="67" type="line"/>
      <point x="109" y="171" type="line"/>
      <point x="264" y="171" type="line"/>
      <point x="264" y="238" type="line"/>
      <point x="109" y="238" type="line"/>
      <point x="109" y="333" type="line"/>
      <point x="289" y="333" type="line"/>
    </contour>
    <contour>
      <point x="138" y="515" type="line"/>
      <point x="79" y="515" type="line"/>
      <point x="79" y="451" type="line"/>
      <point x="138" y="451" type="line"/>
    </contour>
    <contour>
      <point x="239" y="515" type="line"/>
      <point x="181" y="515" type="line"/>
      <point x="181" y="451" type="line"/>
      <point x="239" y="451" type="line"/>
    </contour>
  </outline>
</glyph>
<glyph name="Igrave" format="1">
  <advance width="210"/>
  <unicode hex="00CC"/>
  <outline>
    <contour>
      <point x="163" y="630" type="line"/>
      <point x="46" y="630" type="line"/>
      <point x="46" y="0" type="line"/>
      <point x="163" y="0" type="line"/>
    </contour>
    <contour>
      <point x="89" y="812" type="line"/>
      <point x="-21" y="812" type="line"/>
      <point x="-22" y="809" type="line"/>
      <point x="77" y="691" type="line"/>
      <point x="168" y="691" type="line"/>
    </contour>
  </outline>
</glyph>
<glyph name="Iacute" format="1">
  <advance width="133"/>
  <unicode hex="00CD"/>
  <outline>
    <contour>
      <point x="103" y="399" type="line"/>
      <point x="29" y="399" type="line"/>
      <point x="29" y="0" type="line"/>
      <point x="103" y="0" type="line"/>
    </contour>
    <contour>
      <point x="146" y="515" type="line"/>
      <point x="76" y="515" type="line"/>
      <point x="26" y="438" type="line"/>
      <point x="84" y="438" type="line"/>
      <point x="147" y="513" type="line"/>
    </contour>
  </outline>
</glyph>
<glyph name="Icircumflex" format="1">
  <advance width="133"/>
  <unicode hex="00CE"/>
  <outline>
    <contour>
      <point x="103" y="0" type="line"/>
      <point x="103" y="399" type="line"/>
      <point x="29" y="399" type="line"/>
      <point x="29" y="0" type="line"/>
    </contour>
    <contour>
      <point x="145" y="436" type="line"/>
      <point x="96" y="515" type="line"/>
      <point x="38" y="515" type="line"/>
      <point x="-13" y="436" type="line"/>
      <point x="41" y="436" type="line"/>
      <point x="67" y="476" type="line"/>
      <point x="93" y="436" type="line"/>
    </contour>
  </outline>
</glyph>
<glyph name="Idieresis" format="1">
  <advance width="210"/>
  <unicode hex="00CF"/>
  <outline>
    <contour>
      <point x="163" y="630" type="line"/>
      <point x="46" y="630" type="line"/>
      <point x="46" y="0" type="line"/>
      <point x="163" y="0" type="line"/>
    </contour>
    <contour>
      <point x="71" y="812" type="line"/>
      <point x="-21" y="812" type="line"/>
      <point x="-21" y="711" type="line"/>
      <point x="71" y="711" type="line"/>
    </contour>
    <contour>
      <point x="232" y="812" type="line"/>
      <point x="139" y="812" type="line"/>
      <point x="139" y="711" type="line"/>
      <point x="232" y="711" type="line"/>
    </contour>
  </outline>
</glyph>
<glyph name="Eth" format="1">
  <advance width="345"/>
  <unicode hex="00D0"/>
  <outline>
    <contour>
      <point x="6" y="231" type="line"/>
      <point x="6" y="182" type="line"/>
      <point x="35" y="182" type="line"/>
      <point x="35" y="0" type="line"/>
      <point x="165" y="0" type="line" smooth="yes"/>
      <point x="264" y="0"/>
      <point x="325" y="69"/>
      <point x="325" y="206" type="curve" smooth="yes"/>
      <point x="325" y="334"/>
      <point x="264" y="399"/>
      <point x="165" y="399" type="curve" smooth="yes"/>
      <point x="35" y="399" type="line"/>
      <point x="35" y="231" type="line"/>
    </contour>
    <contour>
      <point x="109" y="333" type="line"/>
      <point x="158" y="333" type="line" smooth="yes"/>
      <point x="214" y="333"/>
      <point x="248" y="295"/>
      <point x="248" y="220" type="curve" smooth="yes"/>
      <point x="248" y="191" type="line" smooth="yes"/>
      <point x="248" y="108"/>
      <point x="214" y="67"/>
      <point x="158" y="67" type="curve" smooth="yes"/>
      <point x="109" y="67" type="line"/>
      <point x="109" y="182" type="line"/>
      <point x="183" y="182" type="line"/>
      <point x="183" y="231" type="line"/>
      <point x="109" y="231" type="line"/>
    </contour>
  </outline>
</glyph>
<glyph name="Ntilde" format="1">
  <advance width="345"/>
  <unicode hex="00D1"/>
  <outline>
    <contour>
      <point x="310" y="399" type="line"/>
      <point x="244" y="399" type="line"/>
      <point x="244" y="177" type="line" smooth="yes"/>
      <point x="244" y="171"/>
      <point x="244" y="144"/>
      <point x="244" y="144" type="curve"/>
      <point x="243" y="142" type="line"/>
      <point x="243" y="142"/>
      <point x="231" y="169"/>
      <point x="224" y="179" type="curve" smooth="yes"/>
      <point x="101" y="399" type="line"/>
      <point x="35" y="399" type="line"/>
      <point x="35" y="0" type="line"/>
      <point x="101" y="0" type="line"/>
      <point x="101" y="223" type="line" smooth="yes"/>
      <point x="101" y="233"/>
      <point x="100" y="256"/>
      <point x="100" y="256" type="curve"/>
      <point x="102" y="258" type="line"/>
      <point x="102" y="258"/>
      <point x="115" y="229"/>
      <point x="120" y="220" type="curve" smooth="yes"/>
      <point x="244" y="0" type="line"/>
      <point x="310" y="0" type="line"/>
    </contour>
    <contour>
      <point x="232" y="515" type="line"/>
      <point x="229" y="498"/>
      <point x="221" y="493"/>
      <point x="209" y="493" type="curve" smooth="yes"/>
      <point x="183" y="493"/>
      <point x="160" y="515"/>
      <point x="132" y="515" type="curve" smooth="yes"/>
      <point x="91" y="515"/>
      <point x="74" y="475"/>
      <point x="74" y="444" type="curve"/>
      <point x="113" y="444" type="line"/>
      <point x="115" y="459"/>
      <point x="123" y="465"/>
      <point x="136" y="465" type="curve" smooth="yes"/>
      <point x="162" y="465"/>
      <point x="185" y="444"/>
      <point x="213" y="444" type="curve" smooth="yes"/>
      <point x="254" y="444"/>
      <point x="270" y="482"/>
      <point x="270" y="515" type="curve"/>
    </contour>
  </outline>
</glyph>
<glyph name="Ograve" format="1">
  <advance width="372"/>
  <unicode hex="00D2"/>
  <outline>
    <contour>
      <point x="83" y="407"/>
      <point x="20" y="341"/>
      <point x="20" y="200" type="curve" smooth="yes"/>
      <point x="20" y="59"/>
      <point x="83" y="-7"/>
      <point x="186" y="-7" type="curve" smooth="yes"/>
      <point x="289" y="-7"/>
      <point x="352" y="59"/>
      <point x="352" y="200" type="curve" smooth="yes"/>
      <point x="352" y="341"/>
      <point x="289" y="407"/>
      <point x="186" y="407" type="curve" smooth="yes"/>
    </contour>
    <contour>
      <point x="245" y="343"/>
      <point x="275" y="294"/>
      <point x="275" y="214" type="curve" smooth="yes"/>
      <point x="275" y="185" type="line" smooth="yes"/>
      <point x="275" y="105"/>
      <point x="245" y="57"/>
      <point x="186" y="57" type="curve" smooth="yes"/>
      <point x="127" y="57"/>
      <point x="97" y="105"/>
      <point x="97" y="185" type="curve" smooth="yes"/>
      <point x="97" y="214" type="line" smooth="yes"/>
      <point x="97" y="294"/>
      <point x="127" y="343"/>
      <point x="186" y="343" type="curve" smooth="yes"/>
    </contour>
    <contour>
      <point x="176" y="515" type="line"/>
      <point x="106" y="515" type="line"/>
      <point x="105" y="513" type="line"/>
      <point x="168" y="438" type="line"/>
      <point x="226" y="438" type="line"/>
    </contour>
  </outline>
</glyph>
<glyph name="Oacute" format="1">
  <advance width="372"/>
  <unicode hex="00D3"/>
  <outline>
    <contour>
      <point x="83" y="407"/>
      <point x="20" y="341"/>
      <point x="20" y="200" type="curve" smooth="yes"/>
      <point x="20" y="59"/>
      <point x="83" y="-7"/>
      <point x="186" y="-7" type="curve" smooth="yes"/>
      <point x="289" y="-7"/>
      <point x="352" y="59"/>
      <point x="352" y="200" type="curve" smooth="yes"/>
      <point x="352" y="341"/>
      <point x="289" y="407"/>
      <point x="186" y="407" type="curve" smooth="yes"/>
    </contour>
    <contour>
      <point x="245" y="343"/>
      <point x="275" y="294"/>
      <point x="275" y="214" type="curve" smooth="yes"/>
      <point x="275" y="185" type="line" smooth="yes"/>
      <point x="275" y="105"/>
      <point x="245" y="57"/>
      <point x="186" y="57" type="curve" smooth="yes"/>
      <point x="127" y="57"/>
      <point x="97" y="105"/>
      <point x="97" y="185" type="curve" smooth="yes"/>
      <point x="97" y="214" type="line" smooth="yes"/>
      <point x="97" y="294"/>
      <point x="127" y="343"/>
      <point x="186" y="343" type="curve" smooth="yes"/>
    </contour>
    <contour>
      <point x="266" y="515" type="line"/>
      <point x="196" y="515" type="line"/>
      <point x="146" y="438" type="line"/>
      <point x="204" y="438" type="line"/>
      <point x="267" y="513" type="line"/>
    </contour>
  </outline>
</glyph>
<glyph name="Otilde" format="1">
  <advance width="372"/>
  <unicode hex="00D5"/>
  <outline>
    <contour>
      <point x="83" y="407"/>
      <point x="20" y="341"/>
      <point x="20" y="200" type="curve" smooth="yes"/>
      <point x="20" y="59"/>
      <point x="83" y="-7"/>
      <point x="186" y="-7" type="curve" smooth="yes"/>
      <point x="289" y="-7"/>
      <point x="352" y="59"/>
      <point x="352" y="200" type="curve" smooth="yes"/>
      <point x="352" y="341"/>
      <point x="289" y="407"/>
      <point x="186" y="407" type="curve" smooth="yes"/>
    </contour>
    <contour>
      <point x="245" y="343"/>
      <point x="275" y="294"/>
      <point x="275" y="214" type="curve" smooth="yes"/>
      <point x="275" y="185" type="line" smooth="yes"/>
      <point x="275" y="105"/>
      <point x="245" y="57"/>
      <point x="186" y="57" type="curve" smooth="yes"/>
      <point x="127" y="57"/>
      <point x="97" y="105"/>
      <point x="97" y="185" type="curve" smooth="yes"/>
      <point x="97" y="214" type="line" smooth="yes"/>
      <point x="97" y="294"/>
      <point x="127" y="343"/>
      <point x="186" y="343" type="curve" smooth="yes"/>
    </contour>
    <contour>
      <point x="245" y="515" type="line"/>
      <point x="243" y="498"/>
      <point x="235" y="493"/>
      <point x="223" y="493" type="curve" smooth="yes"/>
      <point x="196" y="493"/>
      <point x="174" y="515"/>
      <point x="146" y="515" type="curve" smooth="yes"/>
      <point x="105" y="515"/>
      <point x="88" y="475"/>
      <point x="88" y="444" type="curve"/>
      <point x="127" y="444" type="line"/>
      <point x="129" y="459"/>
      <point x="137" y="465"/>
      <point x="150" y="465" type="curve" smooth="yes"/>
      <point x="176" y="465"/>
      <point x="198" y="444"/>
      <point x="227" y="444" type="curve" smooth="yes"/>
      <point x="268" y="444"/>
      <point x="284" y="482"/>
      <point x="284" y="515" type="curve"/>
    </contour>
  </outline>
</glyph>
<glyph name="Odieresis" format="1">
  <advance width="372"/>
  <unicode hex="00D6"/>
  <outline>
    <contour>
      <point x="83" y="407"/>
      <point x="20" y="341"/>
      <point x="20" y="200" type="curve" smooth="yes"/>
      <point x="20" y="59"/>
      <point x="83" y="-7"/>
      <point x="186" y="-7" type="curve" smooth="yes"/>
      <point x="289" y="-7"/>
      <point x="352" y="59"/>
      <point x="352" y="200" type="curve" smooth="yes"/>
      <point x="352" y="341"/>
      <point x="289" y="407"/>
      <point x="186" y="407" type="curve" smooth="yes"/>
    </contour>
    <contour>
      <point x="245" y="343"/>
      <point x="275" y="294"/>
      <point x="275" y="214" type="curve" smooth="yes"/>
      <point x="275" y="185" type="line" smooth="yes"/>
      <point x="275" y="105"/>
      <point x="245" y="57"/>
      <point x="186" y="57" type="curve" smooth="yes"/>
      <point x="127" y="57"/>
      <point x="97" y="105"/>
      <point x="97" y="185" type="curve" smooth="yes"/>
      <point x="97" y="214" type="line" smooth="yes"/>
      <point x="97" y="294"/>
      <point x="127" y="343"/>
      <point x="186" y="343" type="curve" smooth="yes"/>
    </contour>
    <contour>
      <point x="164" y="515" type="line"/>
      <point x="106" y="515" type="line"/>
      <point x="106" y="451" type="line"/>
      <point x="164" y="451" type="line"/>
    </contour>
    <contour>
      <point x="266" y="515" type="line"/>
      <point x="208" y="515" type="line"/>
      <point x="208" y="451" type="line"/>
      <point x="266" y="451" type="line"/>
    </contour>
  </outline>
</glyph>
<glyph name="multiply" format="1">
  <advance width="279"/>
  <unicode hex="00D7"/>
  <outline>
    <contour>
      <point x="229" y="276" type="line"/>
      <point x="143" y="191" type="line"/>
      <point x="59" y="276" type="line"/>
      <point x="17" y="234" type="line"/>
      <point x="102" y="149" type="line"/>
      <point x="17" y="65" type="line"/>
      <point x="59" y="22" type="line"/>
      <point x="143" y="108" type="line"/>
      <point x="229" y="22" type="line"/>
      <point x="270" y="65" type="line"/>
      <point x="185" y="149" type="line"/>
      <point x="270" y="234" type="line"/>
    </contour>
  </outline>
</glyph>
<glyph name="Oslash" format="1">
  <advance width="372"/>
  <unicode hex="00D8"/>
  <outline>
    <contour>
      <point x="349" y="421" type="line"/>
      <point x="300" y="421" type="line"/>
      <point x="276" y="384" type="line"/>
      <point x="251" y="399"/>
      <point x="221" y="407"/>
      <point x="186" y="407" type="curve" smooth="yes"/>
      <point x="83" y="407"/>
      <point x="20" y="341"/>
      <point x="20" y="200" type="curve" smooth="yes"/>
      <point x="20" y="129"/>
      <point x="36" y="78"/>
      <point x="64" y="43" type="curve"/>
      <point x="23" y="-22" type="line"/>
      <point x="72" y="-22" type="line"/>
      <point x="96" y="16" type="line"/>
      <point x="121" y="1"/>
      <point x="151" y="-7"/>
      <point x="186" y="-7" type="curve" smooth="yes"/>
      <point x="289" y="-7"/>
      <point x="352" y="59"/>
      <point x="352" y="200" type="curve" smooth="yes"/>
      <point x="352" y="270"/>
      <point x="336" y="322"/>
      <point x="308" y="355" type="curve"/>
    </contour>
    <contour>
      <point x="264" y="285" type="line"/>
      <point x="272" y="266"/>
      <point x="275" y="242"/>
      <point x="275" y="214" type="curve" smooth="yes"/>
      <point x="275" y="185" type="line" smooth="yes"/>
      <point x="275" y="105"/>
      <point x="245" y="57"/>
      <point x="186" y="57" type="curve" smooth="yes"/>
      <point x="164" y="57"/>
      <point x="146" y="63"/>
      <point x="133" y="75" type="curve"/>
    </contour>
    <contour>
      <point x="208" y="343"/>
      <point x="225" y="336"/>
      <point x="239" y="324" type="curve"/>
      <point x="107" y="113" type="line"/>
      <point x="100" y="133"/>
      <point x="97" y="158"/>
      <point x="97" y="185" type="curve" smooth="yes"/>
      <point x="97" y="214" type="line" smooth="yes"/>
      <point x="97" y="294"/>
      <point x="127" y="343"/>
      <point x="186" y="343" type="curve" smooth="yes"/>
    </contour>
    <contour>
      <point x="186" y="399" type="move" name="top"/>
    </contour>
  </outline>
</glyph>
<glyph name="Ugrave" format="1">
  <advance width="544"/>
  <unicode hex="00D9"/>
  <outline>
    <contour>
      <point x="489" y="630" type="line"/>
      <point x="371" y="630" type="line"/>
      <point x="371" y="202" type="line" smooth="yes"/>
      <point x="371" y="129"/>
      <point x="335" y="90"/>
      <point x="272" y="90" type="curve" smooth="yes"/>
      <point x="210" y="90"/>
      <point x="174" y="129"/>
      <point x="174" y="202" type="curve" smooth="yes"/>
      <point x="174" y="630" type="line"/>
      <point x="56" y="630" type="line"/>
      <point x="56" y="198" type="line" smooth="yes"/>
      <point x="56" y="60"/>
      <point x="137" y="-11"/>
      <point x="272" y="-11" type="curve" smooth="yes"/>
      <point x="408" y="-11"/>
      <point x="489" y="60"/>
      <point x="489" y="198" type="curve" smooth="yes"/>
    </contour>
    <contour>
      <point x="257" y="812" type="line"/>
      <point x="147" y="812" type="line"/>
      <point x="146" y="809" type="line"/>
      <point x="244" y="691" type="line"/>
      <point x="336" y="691" type="line"/>
    </contour>
  </outline>
</glyph>
<glyph name="Ucircumflex" format="1">
  <advance width="345"/>
  <unicode hex="00DB"/>
  <outline>
    <contour>
      <point x="310" y="399" type="line"/>
      <point x="235" y="399" type="line"/>
      <point x="235" y="128" type="line" smooth="yes"/>
      <point x="235" y="82"/>
      <point x="212" y="57"/>
      <point x="173" y="57" type="curve" smooth="yes"/>
      <point x="133" y="57"/>
      <point x="110" y="82"/>
      <point x="110" y="128" type="curve" smooth="yes"/>
      <point x="110" y="399" type="line"/>
      <point x="36" y="399" type="line"/>
      <point x="36" y="125" type="line" smooth="yes"/>
      <point x="36" y="38"/>
      <point x="87" y="-7"/>
      <point x="173" y="-7" type="curve" smooth="yes"/>
      <point x="258" y="-7"/>
      <point x="310" y="38"/>
      <point x="310" y="125" type="curve" smooth="yes"/>
    </contour>
    <contour>
      <point x="202" y="515" type="line"/>
      <point x="144" y="515" type="line"/>
      <point x="94" y="436" type="line"/>
      <point x="146" y="436" type="line"/>
      <point x="173" y="476" type="line"/>
      <point x="198" y="436" type="line"/>
      <point x="251" y="436" type="line"/>
    </contour>
  </outline>
</glyph>
<glyph name="Yacute" format="1">
  <advance width="503"/>
  <unicode hex="00DD"/>
  <outline>
    <contour>
      <point x="503" y="630" type="line"/>
      <point x="385" y="630" type="line"/>
      <point x="257" y="354" type="line"/>
      <point x="253" y="354" type="line"/>
      <point x="124" y="630" type="line"/>
      <point x="0" y="630" type="line"/>
      <point x="193" y="238" type="line"/>
      <point x="193" y="0" type="line"/>
      <point x="311" y="0" type="line"/>
      <point x="311" y="238" type="line"/>
    </contour>
    <contour>
      <point x="378" y="812" type="line"/>
      <point x="267" y="812" type="line"/>
      <point x="188" y="691" type="line"/>
      <point x="280" y="691" type="line"/>
      <point x="379" y="809" type="line"/>
    </contour>
  </outline>
</glyph>
<glyph name="Thorn" format="1">
  <advance width="319"/>
  <unicode hex="00DE"/>
  <outline>
    <contour>
      <point x="109" y="399" type="line"/>
      <point x="35" y="399" type="line"/>
      <point x="35" y="0" type="line"/>
      <point x="109" y="0" type="line"/>
      <point x="109" y="84" type="line"/>
      <point x="178" y="84" type="line" smooth="yes"/>
      <point x="253" y="84"/>
      <point x="303" y="133"/>
      <point x="303" y="208" type="curve" smooth="yes"/>
      <point x="303" y="278"/>
      <point x="260" y="329"/>
      <point x="178" y="329" type="curve" smooth="yes"/>
      <point x="109" y="329" type="line"/>
    </contour>
    <contour>
      <point x="170" y="262" type="line"/>
      <point x="206" y="262"/>
      <point x="226" y="241"/>
      <point x="226" y="208" type="curve" smooth="yes"/>
      <point x="226" y="172"/>
      <point x="206" y="150"/>
      <point x="170" y="150" type="curve" smooth="yes"/>
      <point x="109" y="150" type="line"/>
      <point x="109" y="262" type="line"/>
    </contour>
  </outline>
</glyph>
<glyph name="germandbls" format="1">
  <advance width="292"/>
  <unicode hex="00DF"/>
  <outline>
    <contour>
      <point x="78" y="428"/>
      <point x="23" y="392"/>
      <point x="23" y="303" type="curve" smooth="yes"/>
      <point x="23" y="0" type="line"/>
      <point x="93" y="0" type="line"/>
      <point x="93" y="308" type="line" smooth="yes"/>
      <point x="93" y="347"/>
      <point x="114" y="369"/>
      <point x="145" y="369" type="curve" smooth="yes"/>
      <point x="177" y="369"/>
      <point x="193" y="348"/>
      <point x="193" y="318" type="curve" smooth="yes"/>
      <point x="193" y="283"/>
      <point x="173" y="254"/>
      <point x="150" y="254" type="curve" smooth="yes"/>
      <point x="121" y="254" type="line"/>
      <point x="121" y="188" type="line"/>
      <point x="152" y="188" type="line" smooth="yes"/>
      <point x="181" y="188"/>
      <point x="205" y="160"/>
      <point x="205" y="125" type="curve" smooth="yes"/>
      <point x="205" y="90"/>
      <point x="181" y="59"/>
      <point x="152" y="59" type="curve" smooth="yes"/>
      <point x="121" y="59" type="line"/>
      <point x="121" y="0" type="line"/>
      <point x="159" y="0" type="line" smooth="yes"/>
      <point x="224" y="0"/>
      <point x="275" y="49"/>
      <point x="275" y="125" type="curve" smooth="yes"/>
      <point x="275" y="169"/>
      <point x="248" y="214"/>
      <point x="208" y="228" type="curve"/>
      <point x="208" y="230" type="line"/>
      <point x="241" y="243"/>
      <point x="264" y="281"/>
      <point x="264" y="319" type="curve" smooth="yes"/>
      <point x="264" y="387"/>
      <point x="214" y="428"/>
      <point x="148" y="428" type="curve" smooth="yes"/>
    </contour>
  </outline>
</glyph>
<glyph name="atilde" format="1">
  <advance width="266"/>
  <unicode hex="00E3"/>
  <outline>
    <contour>
      <point x="63" y="314"/>
      <point x="22" y="279"/>
      <point x="22" y="229" type="curve" smooth="yes"/>
      <point x="22" y="223"/>
      <point x="22" y="219"/>
      <point x="23" y="215" type="curve"/>
      <point x="92" y="215" type="line"/>
      <point x="92" y="224" type="line" smooth="yes"/>
      <point x="92" y="239"/>
      <point x="100" y="256"/>
      <point x="128" y="256" type="curve" smooth="yes"/>
      <point x="155" y="256"/>
      <point x="160" y="239"/>
      <point x="160" y="218" type="curve" smooth="yes"/>
      <point x="160" y="186" type="line"/>
      <point x="71" y="186"/>
      <point x="8" y="162"/>
      <point x="8" y="79" type="curve" smooth="yes"/>
      <point x="8" y="8"/>
      <point x="57" y="-7"/>
      <point x="85" y="-7" type="curve" smooth="yes"/>
      <point x="126" y="-7"/>
      <point x="145" y="9"/>
      <point x="163" y="33" type="curve"/>
      <point x="165" y="33" type="line"/>
      <point x="173" y="9"/>
      <point x="192" y="-7"/>
      <point x="219" y="-7" type="curve" smooth="yes"/>
      <point x="241" y="-7"/>
      <point x="254" y="-2"/>
      <point x="261" y="3" type="curve"/>
      <point x="261" y="52" type="line"/>
      <point x="247" y="52" type="line" smooth="yes"/>
      <point x="239" y="52"/>
      <point x="231" y="58"/>
      <point x="231" y="72" type="curve" smooth="yes"/>
      <point x="231" y="223" type="line" smooth="yes"/>
      <point x="231" y="280"/>
      <point x="198" y="314"/>
      <point x="127" y="314" type="curve" smooth="yes"/>
    </contour>
    <contour>
      <point x="160" y="118" type="line"/>
      <point x="160" y="82"/>
      <point x="148" y="51"/>
      <point x="114" y="51" type="curve" smooth="yes"/>
      <point x="90" y="51"/>
      <point x="80" y="65"/>
      <point x="80" y="86" type="curve" smooth="yes"/>
      <point x="80" y="125"/>
      <point x="119" y="136"/>
      <point x="160" y="136" type="curve"/>
    </contour>
    <contour>
      <point x="186" y="421" type="line"/>
      <point x="183" y="405"/>
      <point x="175" y="399"/>
      <point x="163" y="399" type="curve" smooth="yes"/>
      <point x="137" y="399"/>
      <point x="114" y="421"/>
      <point x="86" y="421" type="curve" smooth="yes"/>
      <point x="45" y="421"/>
      <point x="28" y="382"/>
      <point x="28" y="350" type="curve"/>
      <point x="67" y="350" type="line"/>
      <point x="69" y="366"/>
      <point x="78" y="372"/>
      <point x="90" y="372" type="curve" smooth="yes"/>
      <point x="116" y="372"/>
      <point x="138" y="350"/>
      <point x="167" y="350" type="curve" smooth="yes"/>
      <point x="208" y="350"/>
      <point x="224" y="389"/>
      <point x="224" y="421" type="curve"/>
    </contour>
  </outline>
</glyph>
<glyph name="aring" format="1">
  <advance width="419"/>
  <unicode hex="00E5"/>
  <outline>
    <contour>
      <point x="100" y="495"/>
      <point x="35" y="441"/>
      <point x="35" y="361" type="curve" smooth="yes"/>
      <point x="35" y="353"/>
      <point x="35" y="345"/>
      <point x="36" y="340" type="curve"/>
      <point x="145" y="340" type="line"/>
      <point x="145" y="354" type="line" smooth="yes"/>
      <point x="145" y="376"/>
      <point x="157" y="405"/>
      <point x="202" y="405" type="curve" smooth="yes"/>
      <point x="244" y="405"/>
      <point x="253" y="378"/>
      <point x="253" y="344" type="curve" smooth="yes"/>
      <point x="253" y="294" type="line"/>
      <point x="112" y="294"/>
      <point x="12" y="256"/>
      <point x="12" y="125" type="curve" smooth="yes"/>
      <point x="12" y="12"/>
      <point x="89" y="-11"/>
      <point x="134" y="-11" type="curve" smooth="yes"/>
      <point x="199" y="-11"/>
      <point x="229" y="14"/>
      <point x="257" y="52" type="curve"/>
      <point x="261" y="52" type="line"/>
      <point x="272" y="15"/>
      <point x="303" y="-11"/>
      <point x="346" y="-11" type="curve" smooth="yes"/>
      <point x="380" y="-11"/>
      <point x="400" y="-3"/>
      <point x="412" y="4" type="curve"/>
      <point x="412" y="82" type="line"/>
      <point x="390" y="82" type="line" smooth="yes"/>
      <point x="376" y="82"/>
      <point x="364" y="92"/>
      <point x="364" y="114" type="curve" smooth="yes"/>
      <point x="364" y="353" type="line" smooth="yes"/>
      <point x="364" y="442"/>
      <point x="312" y="495"/>
      <point x="200" y="495" type="curve" smooth="yes"/>
    </contour>
    <contour>
      <point x="253" y="186" type="line"/>
      <point x="253" y="130"/>
      <point x="233" y="81"/>
      <point x="180" y="81" type="curve" smooth="yes"/>
      <point x="142" y="81"/>
      <point x="126" y="102"/>
      <point x="126" y="135" type="curve" smooth="yes"/>
      <point x="126" y="198"/>
      <point x="188" y="214"/>
      <point x="253" y="214" type="curve"/>
    </contour>
    <contour>
      <point x="151" y="693"/>
      <point x="111" y="653"/>
      <point x="111" y="604" type="curve" smooth="yes"/>
      <point x="111" y="554"/>
      <point x="152" y="516"/>
      <point x="200" y="516" type="curve" smooth="yes"/>
      <point x="249" y="516"/>
      <point x="288" y="555"/>
      <point x="288" y="604" type="curve" smooth="yes"/>
      <point x="288" y="652"/>
      <point x="250" y="693"/>
      <point x="200" y="693" type="curve" smooth="yes"/>
    </contour>
    <contour>
      <point x="223" y="646"/>
      <point x="241" y="628"/>
      <point x="241" y="604" type="curve" smooth="yes"/>
      <point x="241" y="580"/>
      <point x="223" y="562"/>
      <point x="200" y="562" type="curve" smooth="yes"/>
      <point x="176" y="562"/>
      <point x="157" y="580"/>
      <point x="157" y="604" type="curve" smooth="yes"/>
      <point x="157" y="628"/>
      <point x="176" y="646"/>
      <point x="200" y="646" type="curve" smooth="yes"/>
    </contour>
  </outline>
</glyph>
<glyph name="ae" format="1">
  <advance width="670"/>
  <unicode hex="00E6"/>
  <outline>
    <contour>
      <point x="413" y="495"/>
      <point x="374" y="479"/>
      <point x="344" y="448" type="curve"/>
      <point x="317" y="478"/>
      <point x="276" y="495"/>
      <point x="220" y="495" type="curve" smooth="yes"/>
      <point x="122" y="495"/>
      <point x="57" y="441"/>
      <point x="57" y="361" type="curve" smooth="yes"/>
      <point x="57" y="353"/>
      <point x="57" y="345"/>
      <point x="58" y="340" type="curve"/>
      <point x="165" y="340" type="line"/>
      <point x="165" y="354" type="line" smooth="yes"/>
      <point x="165" y="376"/>
      <point x="178" y="405"/>
      <point x="224" y="405" type="curve" smooth="yes"/>
      <point x="265" y="405"/>
      <point x="274" y="378"/>
      <point x="274" y="344" type="curve" smooth="yes"/>
      <point x="274" y="294" type="line"/>
      <point x="133" y="294"/>
      <point x="34" y="256"/>
      <point x="34" y="125" type="curve" smooth="yes"/>
      <point x="34" y="12"/>
      <point x="122" y="-11"/>
      <point x="174" y="-11" type="curve" smooth="yes"/>
      <point x="241" y="-11"/>
      <point x="284" y="16"/>
      <point x="319" y="54" type="curve"/>
      <point x="350" y="10"/>
      <point x="399" y="-11"/>
      <point x="464" y="-11" type="curve" smooth="yes"/>
      <point x="562" y="-11"/>
      <point x="634" y="47"/>
      <point x="634" y="171" type="curve"/>
      <point x="525" y="171" type="line"/>
      <point x="525" y="113"/>
      <point x="501" y="79"/>
      <point x="464" y="79" type="curve" smooth="yes"/>
      <point x="409" y="79"/>
      <point x="390" y="128"/>
      <point x="389" y="214" type="curve"/>
      <point x="634" y="214" type="line"/>
      <point x="634" y="241" type="line" smooth="yes"/>
      <point x="634" y="416"/>
      <point x="576" y="495"/>
      <point x="460" y="495" type="curve" smooth="yes"/>
    </contour>
    <contour>
      <point x="274" y="186" type="line"/>
      <point x="274" y="130"/>
      <point x="254" y="81"/>
      <point x="202" y="81" type="curve" smooth="yes"/>
      <point x="163" y="81"/>
      <point x="147" y="102"/>
      <point x="147" y="135" type="curve" smooth="yes"/>
      <point x="147" y="198"/>
      <point x="210" y="214"/>
      <point x="274" y="214" type="curve"/>
    </contour>
    <contour>
      <point x="500" y="405"/>
      <point x="519" y="364"/>
      <point x="519" y="294" type="curve"/>
      <point x="390" y="294" type="line"/>
      <point x="393" y="364"/>
      <point x="413" y="405"/>
      <point x="460" y="405" type="curve" smooth="yes"/>
    </contour>
    <contour>
      <point x="336" y="484" type="move" name="top"/>
    </contour>
  </outline>
</glyph>
<glyph name="ccedilla" format="1">
  <advance width="419"/>
  <unicode hex="00E7"/>
  <outline>
    <contour>
      <point x="98" y="495"/>
      <point x="37" y="416"/>
      <point x="37" y="241" type="curve" smooth="yes"/>
      <point x="37" y="88"/>
      <point x="82" y="8"/>
      <point x="179" y="-7" type="curve"/>
      <point x="172" y="-71" type="line"/>
      <point x="202" y="-71" type="line" smooth="yes"/>
      <point x="226" y="-71"/>
      <point x="233" y="-78"/>
      <point x="233" y="-93" type="curve" smooth="yes"/>
      <point x="233" y="-110"/>
      <point x="219" y="-115"/>
      <point x="200" y="-115" type="curve" smooth="yes"/>
      <point x="134" y="-115" type="line"/>
      <point x="134" y="-160" type="line"/>
      <point x="156" y="-164"/>
      <point x="186" y="-167"/>
      <point x="211" y="-167" type="curve" smooth="yes"/>
      <point x="251" y="-167"/>
      <point x="312" y="-155"/>
      <point x="312" y="-93" type="curve" smooth="yes"/>
      <point x="312" y="-51"/>
      <point x="279" y="-33"/>
      <point x="239" y="-30" type="curve"/>
      <point x="241" y="-10" type="line"/>
      <point x="330" y="-2"/>
      <point x="386" y="56"/>
      <point x="386" y="182" type="curve"/>
      <point x="277" y="182" type="line"/>
      <point x="277" y="115"/>
      <point x="260" y="82"/>
      <point x="220" y="82" type="curve" smooth="yes"/>
      <point x="171" y="82"/>
      <point x="153" y="131"/>
      <point x="153" y="225" type="curve" smooth="yes"/>
      <point x="153" y="259" type="line" smooth="yes"/>
      <point x="153" y="353"/>
      <point x="171" y="401"/>
      <point x="217" y="401" type="curve" smooth="yes"/>
      <point x="255" y="401"/>
      <point x="274" y="369"/>
      <point x="274" y="302" type="curve"/>
      <point x="386" y="302" type="line"/>
      <point x="386" y="437"/>
      <point x="320" y="495"/>
      <point x="217" y="495" type="curve" smooth="yes"/>
    </contour>
  </outline>
</glyph>
<glyph name="edieresis" format="1">
  <advance width="266"/>
  <unicode hex="00EB"/>
  <outline>
    <contour>
      <point x="60" y="314"/>
      <point x="18" y="264"/>
      <point x="18" y="153" type="curve" smooth="yes"/>
      <point x="18" y="43"/>
      <point x="59" y="-7"/>
      <point x="138" y="-7" type="curve" smooth="yes"/>
      <point x="200" y="-7"/>
      <point x="246" y="30"/>
      <point x="246" y="108" type="curve"/>
      <point x="177" y="108" type="line"/>
      <point x="177" y="72"/>
      <point x="162" y="50"/>
      <point x="138" y="50" type="curve" smooth="yes"/>
      <point x="103" y="50"/>
      <point x="92" y="81"/>
      <point x="91" y="136" type="curve"/>
      <point x="246" y="136" type="line"/>
      <point x="246" y="153" type="line" smooth="yes"/>
      <point x="246" y="264"/>
      <point x="210" y="314"/>
      <point x="136" y="314" type="curve" smooth="yes"/>
    </contour>
    <contour>
      <point x="161" y="256"/>
      <point x="173" y="231"/>
      <point x="173" y="186" type="curve"/>
      <point x="92" y="186" type="line"/>
      <point x="94" y="231"/>
      <point x="106" y="256"/>
      <point x="136" y="256" type="curve" smooth="yes"/>
    </contour>
    <contour>
      <point x="111" y="421" type="line"/>
      <point x="53" y="421" type="line"/>
      <point x="53" y="358" type="line"/>
      <point x="111" y="358" type="line"/>
    </contour>
    <contour>
      <point x="214" y="421" type="line"/>
      <point x="155" y="421" type="line"/>
      <point x="155" y="358" type="line"/>
      <point x="214" y="358" type="line"/>
    </contour>
  </outline>
</glyph>
<glyph name="igrave" format="1">
  <advance width="133"/>
  <unicode hex="00EC"/>
  <outline>
    <contour>
      <point x="101" y="306" type="line"/>
      <point x="32" y="306" type="line"/>
      <point x="32" y="0" type="line"/>
      <point x="101" y="0" type="line"/>
    </contour>
    <contour>
      <point x="57" y="421" type="line"/>
      <point x="-13" y="421" type="line"/>
      <point x="-14" y="419" type="line"/>
      <point x="49" y="344" type="line"/>
      <point x="107" y="344" type="line"/>
    </contour>
  </outline>
</glyph>
<glyph name="iacute" format="1">
  <advance width="133"/>
  <unicode hex="00ED"/>
  <outline>
    <contour>
      <point x="101" y="306" type="line"/>
      <point x="32" y="306" type="line"/>
      <point x="32" y="0" type="line"/>
      <point x="101" y="0" type="line"/>
    </contour>
    <contour>
      <point x="146" y="421" type="line"/>
      <point x="76" y="421" type="line"/>
      <point x="26" y="344" type="line"/>
      <point x="84" y="344" type="line"/>
      <point x="147" y="419" type="line"/>
    </contour>
  </outline>
</glyph>
<glyph name="icircumflex" format="1">
  <advance width="133"/>
  <unicode hex="00EE"/>
  <outline>
    <contour>
      <point x="101" y="0" type="line"/>
      <point x="101" y="306" type="line"/>
      <point x="32" y="306" type="line"/>
      <point x="32" y="0" type="line"/>
    </contour>
    <contour>
      <point x="145" y="343" type="line"/>
      <point x="96" y="421" type="line"/>
      <point x="38" y="421" type="line"/>
      <point x="-13" y="343" type="line"/>
      <point x="41" y="343" type="line"/>
      <point x="67" y="383" type="line"/>
      <point x="93" y="343" type="line"/>
    </contour>
  </outline>
</glyph>
<glyph name="idieresis" format="1">
  <advance width="133"/>
  <unicode hex="00EF"/>
  <outline>
    <contour>
      <point x="101" y="306" type="line"/>
      <point x="32" y="306" type="line"/>
      <point x="32" y="0" type="line"/>
      <point x="101" y="0" type="line"/>
    </contour>
    <contour>
      <point x="45" y="421" type="line"/>
      <point x="-13" y="421" type="line"/>
      <point x="-13" y="358" type="line"/>
      <point x="45" y="358" type="line"/>
    </contour>
    <contour>
      <point x="147" y="421" type="line"/>
      <point x="88" y="421" type="line"/>
      <point x="88" y="358" type="line"/>
      <point x="147" y="358" type="line"/>
    </contour>
  </outline>
</glyph>
<glyph name="eth" format="1">
  <advance width="292"/>
  <unicode hex="00F0"/>
  <outline>
    <contour>
      <point x="77" y="421" type="line"/>
      <point x="76" y="419" type="line"/>
      <point x="83" y="411"/>
      <point x="95" y="400"/>
      <point x="107" y="387" type="curve"/>
      <point x="63" y="383" type="line"/>
      <point x="63" y="340" type="line"/>
      <point x="138" y="347" type="line"/>
      <point x="146" y="335"/>
      <point x="154" y="322"/>
      <point x="160" y="311" type="curve"/>
      <point x="158" y="309" type="line"/>
      <point x="150" y="312"/>
      <point x="138" y="314"/>
      <point x="130" y="314" type="curve" smooth="yes"/>
      <point x="65" y="314"/>
      <point x="24" y="258"/>
      <point x="24" y="153" type="curve" smooth="yes"/>
      <point x="24" y="43"/>
      <point x="65" y="-7"/>
      <point x="146" y="-7" type="curve" smooth="yes"/>
      <point x="228" y="-7"/>
      <point x="269" y="43"/>
      <point x="269" y="153" type="curve" smooth="yes"/>
      <point x="269" y="245"/>
      <point x="242" y="309"/>
      <point x="212" y="354" type="curve"/>
      <point x="255" y="358" type="line"/>
      <point x="255" y="400" type="line"/>
      <point x="179" y="393" type="line"/>
      <point x="168" y="405"/>
      <point x="158" y="415"/>
      <point x="150" y="421" type="curve"/>
    </contour>
    <contour>
      <point x="183" y="254"/>
      <point x="196" y="223"/>
      <point x="196" y="164" type="curve" smooth="yes"/>
      <point x="196" y="142" type="line" smooth="yes"/>
      <point x="196" y="83"/>
      <point x="183" y="52"/>
      <point x="146" y="52" type="curve" smooth="yes"/>
      <point x="110" y="52"/>
      <point x="97" y="83"/>
      <point x="97" y="142" type="curve" smooth="yes"/>
      <point x="97" y="164" type="line" smooth="yes"/>
      <point x="97" y="223"/>
      <point x="110" y="254"/>
      <point x="146" y="254" type="curve" smooth="yes"/>
    </contour>
  </outline>
</glyph>
<glyph name="ntilde" format="1">
  <advance width="461"/>
  <unicode hex="00F1"/>
  <outline>
    <contour>
      <point x="224" y="495"/>
      <point x="184" y="462"/>
      <point x="159" y="424" type="curve"/>
      <point x="154" y="424" type="line"/>
      <point x="142" y="484" type="line"/>
      <point x="51" y="484" type="line"/>
      <point x="51" y="0" type="line"/>
      <point x="161" y="0" type="line"/>
      <point x="161" y="297" type="line" smooth="yes"/>
      <point x="161" y="353"/>
      <point x="193" y="394"/>
      <point x="236" y="394" type="curve" smooth="yes"/>
      <point x="276" y="394"/>
      <point x="300" y="371"/>
      <point x="300" y="309" type="curve" smooth="yes"/>
      <point x="300" y="0" type="line"/>
      <point x="410" y="0" type="line"/>
      <point x="410" y="339" type="line" smooth="yes"/>
      <point x="410" y="453"/>
      <point x="356" y="495"/>
      <point x="282" y="495" type="curve" smooth="yes"/>
    </contour>
    <contour>
      <point x="324" y="665" type="line"/>
      <point x="321" y="639"/>
      <point x="308" y="630"/>
      <point x="289" y="630" type="curve" smooth="yes"/>
      <point x="248" y="630"/>
      <point x="211" y="665"/>
      <point x="166" y="665" type="curve" smooth="yes"/>
      <point x="102" y="665"/>
      <point x="76" y="603"/>
      <point x="76" y="552" type="curve"/>
      <point x="137" y="552" type="line"/>
      <point x="140" y="577"/>
      <point x="154" y="587"/>
      <point x="173" y="587" type="curve" smooth="yes"/>
      <point x="214" y="587"/>
      <point x="250" y="552"/>
      <point x="294" y="552" type="curve" smooth="yes"/>
      <point x="360" y="552"/>
      <point x="385" y="615"/>
      <point x="385" y="665" type="curve"/>
    </contour>
  </outline>
</glyph>
<glyph name="ograve" format="1">
  <advance width="292"/>
  <unicode hex="00F2"/>
  <outline>
    <contour>
      <point x="65" y="314"/>
      <point x="24" y="264"/>
      <point x="24" y="153" type="curve" smooth="yes"/>
      <point x="24" y="43"/>
      <point x="65" y="-7"/>
      <point x="146" y="-7" type="curve" smooth="yes"/>
      <point x="228" y="-7"/>
      <point x="269" y="43"/>
      <point x="269" y="153" type="curve" smooth="yes"/>
      <point x="269" y="264"/>
      <point x="228" y="314"/>
      <point x="146" y="314" type="curve" smooth="yes"/>
    </contour>
    <contour>
      <point x="183" y="254"/>
      <point x="196" y="223"/>
      <point x="196" y="164" type="curve" smooth="yes"/>
      <point x="196" y="142" type="line" smooth="yes"/>
      <point x="196" y="83"/>
      <point x="183" y="52"/>
      <point x="146" y="52" type="curve" smooth="yes"/>
      <point x="110" y="52"/>
      <point x="97" y="83"/>
      <point x="97" y="142" type="curve" smooth="yes"/>
      <point x="97" y="164" type="line" smooth="yes"/>
      <point x="97" y="223"/>
      <point x="110" y="254"/>
      <point x="146" y="254" type="curve" smooth="yes"/>
    </contour>
    <contour>
      <point x="136" y="421" type="line"/>
      <point x="66" y="421" type="line"/>
      <point x="65" y="419" type="line"/>
      <point x="128" y="344" type="line"/>
      <point x="186" y="344" type="line"/>
    </contour>
  </outline>
</glyph>
<glyph name="oacute" format="1">
  <advance width="292"/>
  <unicode hex="00F3"/>
  <outline>
    <contour>
      <point x="65" y="314"/>
      <point x="24" y="264"/>
      <point x="24" y="153" type="curve" smooth="yes"/>
      <point x="24" y="43"/>
      <point x="65" y="-7"/>
      <point x="146" y="-7" type="curve" smooth="yes"/>
      <point x="228" y="-7"/>
      <point x="269" y="43"/>
      <point x="269" y="153" type="curve" smooth="yes"/>
      <point x="269" y="264"/>
      <point x="228" y="314"/>
      <point x="146" y="314" type="curve" smooth="yes"/>
    </contour>
    <contour>
      <point x="183" y="254"/>
      <point x="196" y="223"/>
      <point x="196" y="164" type="curve" smooth="yes"/>
      <point x="196" y="142" type="line" smooth="yes"/>
      <point x="196" y="83"/>
      <point x="183" y="52"/>
      <point x="146" y="52" type="curve" smooth="yes"/>
      <point x="110" y="52"/>
      <point x="97" y="83"/>
      <point x="97" y="142" type="curve" smooth="yes"/>
      <point x="97" y="164" type="line" smooth="yes"/>
      <point x="97" y="223"/>
      <point x="110" y="254"/>
      <point x="146" y="254" type="curve" smooth="yes"/>
    </contour>
    <contour>
      <point x="226" y="421" type="line"/>
      <point x="156" y="421" type="line"/>
      <point x="106" y="344" type="line"/>
      <point x="163" y="344" type="line"/>
      <point x="227" y="419" type="line"/>
    </contour>
  </outline>
</glyph>
<glyph name="otilde" format="1">
  <advance width="292"/>
  <unicode hex="00F5"/>
  <outline>
    <contour>
      <point x="65" y="314"/>
      <point x="24" y="264"/>
      <point x="24" y="153" type="curve" smooth="yes"/>
      <point x="24" y="43"/>
      <point x="65" y="-7"/>
      <point x="146" y="-7" type="curve" smooth="yes"/>
      <point x="228" y="-7"/>
      <point x="269" y="43"/>
      <point x="269" y="153" type="curve" smooth="yes"/>
      <point x="269" y="264"/>
      <point x="228" y="314"/>
      <point x="146" y="314" type="curve" smooth="yes"/>
    </contour>
    <contour>
      <point x="183" y="254"/>
      <point x="196" y="223"/>
      <point x="196" y="164" type="curve" smooth="yes"/>
      <point x="196" y="142" type="line" smooth="yes"/>
      <point x="196" y="83"/>
      <point x="183" y="52"/>
      <point x="146" y="52" type="curve" smooth="yes"/>
      <point x="110" y="52"/>
      <point x="97" y="83"/>
      <point x="97" y="142" type="curve" smooth="yes"/>
      <point x="97" y="164" type="line" smooth="yes"/>
      <point x="97" y="223"/>
      <point x="110" y="254"/>
      <point x="146" y="254" type="curve" smooth="yes"/>
    </contour>
    <contour>
      <point x="206" y="421" type="line"/>
      <point x="204" y="405"/>
      <point x="195" y="399"/>
      <point x="183" y="399" type="curve" smooth="yes"/>
      <point x="157" y="399"/>
      <point x="134" y="421"/>
      <point x="105" y="421" type="curve" smooth="yes"/>
      <point x="65" y="421"/>
      <point x="48" y="382"/>
      <point x="48" y="350" type="curve"/>
      <point x="87" y="350" type="line"/>
      <point x="89" y="366"/>
      <point x="98" y="372"/>
      <point x="109" y="372" type="curve" smooth="yes"/>
      <point x="136" y="372"/>
      <point x="158" y="350"/>
      <point x="186" y="350" type="curve" smooth="yes"/>
      <point x="228" y="350"/>
      <point x="244" y="389"/>
      <point x="244" y="421" type="curve"/>
    </contour>
  </outline>
</glyph>
<glyph name="divide" format="1">
  <advance width="320"/>
  <unicode hex="00F7"/>
  <outline>
    <contour>
      <point x="300" y="118" type="line"/>
      <point x="300" y="179" type="line"/>
      <point x="19" y="179" type="line"/>
      <point x="19" y="118" type="line"/>
    </contour>
    <contour>
      <point x="190" y="24" type="line"/>
      <point x="190" y="88" type="line"/>
      <point x="129" y="88" type="line"/>
      <point x="129" y="24" type="line"/>
    </contour>
    <contour>
      <point x="190" y="209" type="line"/>
      <point x="190" y="273" type="line"/>
      <point x="129" y="273" type="line"/>
      <point x="129" y="209" type="line"/>
    </contour>
  </outline>
</glyph>
<glyph name="oslash" format="1">
  <advance width="292"/>
  <unicode hex="00F8"/>
  <outline>
    <contour>
      <point x="261" y="325" type="line"/>
      <point x="217" y="325" type="line"/>
      <point x="204" y="301" type="line"/>
      <point x="188" y="309"/>
      <point x="169" y="314"/>
      <point x="146" y="314" type="curve" smooth="yes"/>
      <point x="65" y="314"/>
      <point x="24" y="264"/>
      <point x="24" y="153" type="curve" smooth="yes"/>
      <point x="24" y="96"/>
      <point x="35" y="55"/>
      <point x="57" y="29" type="curve"/>
      <point x="30" y="-18" type="line"/>
      <point x="74" y="-18" type="line"/>
      <point x="87" y="5" type="line"/>
      <point x="103" y="-3"/>
      <point x="123" y="-7"/>
      <point x="146" y="-7" type="curve" smooth="yes"/>
      <point x="228" y="-7"/>
      <point x="269" y="43"/>
      <point x="269" y="153" type="curve" smooth="yes"/>
      <point x="269" y="210"/>
      <point x="258" y="252"/>
      <point x="235" y="278" type="curve"/>
    </contour>
    <contour>
      <point x="193" y="201" type="line"/>
      <point x="194" y="190"/>
      <point x="196" y="178"/>
      <point x="196" y="164" type="curve" smooth="yes"/>
      <point x="196" y="142" type="line" smooth="yes"/>
      <point x="196" y="83"/>
      <point x="183" y="52"/>
      <point x="146" y="52" type="curve" smooth="yes"/>
      <point x="134" y="52"/>
      <point x="125" y="55"/>
      <point x="118" y="62" type="curve"/>
    </contour>
    <contour>
      <point x="158" y="254"/>
      <point x="167" y="251"/>
      <point x="173" y="245" type="curve"/>
      <point x="98" y="107" type="line"/>
      <point x="98" y="117"/>
      <point x="97" y="129"/>
      <point x="97" y="142" type="curve" smooth="yes"/>
      <point x="97" y="164" type="line" smooth="yes"/>
      <point x="97" y="223"/>
      <point x="110" y="254"/>
      <point x="146" y="254" type="curve" smooth="yes"/>
    </contour>
    <contour>
      <point x="146" y="306" type="move" name="top"/>
    </contour>
  </outline>
</glyph>
<glyph name="ugrave" format="1">
  <advance width="292"/>
  <unicode hex="00F9"/>
  <outline>
    <contour>
      <point x="260" y="306" type="line"/>
      <point x="190" y="306" type="line"/>
      <point x="190" y="117" type="line" smooth="yes"/>
      <point x="190" y="82"/>
      <point x="169" y="57"/>
      <point x="142" y="57" type="curve" smooth="yes"/>
      <point x="116" y="57"/>
      <point x="102" y="71"/>
      <point x="102" y="111" type="curve" smooth="yes"/>
      <point x="102" y="306" type="line"/>
      <point x="32" y="306" type="line"/>
      <point x="32" y="92" type="line" smooth="yes"/>
      <point x="32" y="19"/>
      <point x="67" y="-7"/>
      <point x="113" y="-7" type="curve" smooth="yes"/>
      <point x="150" y="-7"/>
      <point x="175" y="14"/>
      <point x="191" y="38" type="curve"/>
      <point x="194" y="38" type="line"/>
      <point x="202" y="0" type="line"/>
      <point x="260" y="0" type="line"/>
    </contour>
    <contour>
      <point x="136" y="421" type="line"/>
      <point x="66" y="421" type="line"/>
      <point x="65" y="419" type="line"/>
      <point x="128" y="344" type="line"/>
      <point x="186" y="344" type="line"/>
    </contour>
  </outline>
</glyph>
<glyph name="thorn" format="1">
  <advance width="292"/>
  <unicode hex="00FE"/>
  <outline>
    <contour>
      <point x="102" y="421" type="line"/>
      <point x="32" y="421" type="line"/>
      <point x="32" y="-101" type="line"/>
      <point x="102" y="-101" type="line"/>
      <point x="102" y="32" type="line"/>
      <point x="105" y="32" type="line"/>
      <point x="116" y="7"/>
      <point x="142" y="-7"/>
      <point x="173" y="-7" type="curve" smooth="yes"/>
      <point x="227" y="-7"/>
      <point x="268" y="42"/>
      <point x="268" y="153" type="curve" smooth="yes"/>
      <point x="268" y="264"/>
      <point x="230" y="314"/>
      <point x="169" y="314" type="curve" smooth="yes"/>
      <point x="140" y="314"/>
      <point x="115" y="299"/>
      <point x="100" y="268" type="curve"/>
      <point x="102" y="268" type="line"/>
    </contour>
    <contour>
      <point x="183" y="250"/>
      <point x="195" y="219"/>
      <point x="195" y="164" type="curve" smooth="yes"/>
      <point x="195" y="142" type="line" smooth="yes"/>
      <point x="195" y="87"/>
      <point x="183" y="57"/>
      <point x="148" y="57" type="curve" smooth="yes"/>
      <point x="115" y="57"/>
      <point x="102" y="88"/>
      <point x="102" y="143" type="curve" smooth="yes"/>
      <point x="102" y="164" type="line" smooth="yes"/>
      <point x="102" y="219"/>
      <point x="115" y="250"/>
      <point x="148" y="250" type="curve" smooth="yes"/>
    </contour>
  </outline>
</glyph>
<glyph name="ydieresis" format="1">
  <advance width="266"/>
  <unicode hex="00FF"/>
  <outline>
    <contour>
      <point x="264" y="306" type="line"/>
      <point x="193" y="306" type="line"/>
      <point x="156" y="162" type="line"/>
      <point x="148" y="136"/>
      <point x="146" y="109"/>
      <point x="141" y="83" type="curve"/>
      <point x="138" y="83" type="line"/>
      <point x="133" y="109"/>
      <point x="130" y="136"/>
      <point x="123" y="163" type="curve"/>
      <point x="76" y="306" type="line"/>
      <point x="3" y="306" type="line"/>
      <point x="104" y="0" type="line"/>
      <point x="96" y="-34"/>
      <point x="77" y="-47"/>
      <point x="57" y="-47" type="curve" smooth="yes"/>
      <point x="26" y="-47" type="line"/>
      <point x="26" y="-101" type="line"/>
      <point x="26" y="-101"/>
      <point x="43" y="-106"/>
      <point x="71" y="-106" type="curve" smooth="yes"/>
      <point x="130" y="-106"/>
      <point x="160" y="-51"/>
      <point x="179" y="16" type="curve" smooth="yes"/>
    </contour>
    <contour>
      <point x="111" y="421" type="line"/>
      <point x="53" y="421" type="line"/>
      <point x="53" y="358" type="line"/>
      <point x="111" y="358" type="line"/>
    </contour>
    <contour>
      <point x="214" y="421" type="line"/>
      <point x="155" y="421" type="line"/>
      <point x="155" y="358" type="line"/>
      <point x="214" y="358" type="line"/>
    </contour>
  </outline>
</glyph>
<glyph name="Amacron" format="1">
  <advance width="345"/>
  <unicode hex="0100"/>
  <outline>
    <contour>
      <point x="215" y="399" type="line"/>
      <point x="129" y="399" type="line"/>
      <point x="0" y="0" type="line"/>
      <point x="72" y="0" type="line"/>
      <point x="96" y="78" type="line"/>
      <point x="244" y="78" type="line"/>
      <point x="268" y="0" type="line"/>
      <point x="344" y="0" type="line"/>
    </contour>
    <contour>
      <point x="171" y="333" type="line"/>
      <point x="171" y="333"/>
      <point x="177" y="299"/>
      <point x="183" y="279" type="curve" smooth="yes"/>
      <point x="223" y="145" type="line"/>
      <point x="117" y="145" type="line"/>
      <point x="158" y="279" type="line" smooth="yes"/>
      <point x="163" y="297"/>
      <point x="169" y="333"/>
      <point x="169" y="333" type="curve"/>
    </contour>
    <contour>
      <point x="247" y="493" type="line"/>
      <point x="98" y="493" type="line"/>
      <point x="98" y="442" type="line"/>
      <point x="247" y="442" type="line"/>
    </contour>
  </outline>
</glyph>
<glyph name="abreve" format="1">
  <advance width="419"/>
  <unicode hex="0103"/>
  <outline>
    <contour>
      <point x="100" y="495"/>
      <point x="35" y="441"/>
      <point x="35" y="361" type="curve" smooth="yes"/>
      <point x="35" y="353"/>
      <point x="35" y="345"/>
      <point x="36" y="340" type="curve"/>
      <point x="145" y="340" type="line"/>
      <point x="145" y="354" type="line" smooth="yes"/>
      <point x="145" y="376"/>
      <point x="157" y="405"/>
      <point x="202" y="405" type="curve" smooth="yes"/>
      <point x="244" y="405"/>
      <point x="253" y="378"/>
      <point x="253" y="344" type="curve" smooth="yes"/>
      <point x="253" y="294" type="line"/>
      <point x="112" y="294"/>
      <point x="12" y="256"/>
      <point x="12" y="125" type="curve" smooth="yes"/>
      <point x="12" y="12"/>
      <point x="89" y="-11"/>
      <point x="134" y="-11" type="curve" smooth="yes"/>
      <point x="199" y="-11"/>
      <point x="229" y="14"/>
      <point x="257" y="52" type="curve"/>
      <point x="261" y="52" type="line"/>
      <point x="272" y="15"/>
      <point x="303" y="-11"/>
      <point x="346" y="-11" type="curve" smooth="yes"/>
      <point x="380" y="-11"/>
      <point x="400" y="-3"/>
      <point x="412" y="4" type="curve"/>
      <point x="412" y="82" type="line"/>
      <point x="390" y="82" type="line" smooth="yes"/>
      <point x="376" y="82"/>
      <point x="364" y="92"/>
      <point x="364" y="114" type="curve" smooth="yes"/>
      <point x="364" y="353" type="line" smooth="yes"/>
      <point x="364" y="442"/>
      <point x="312" y="495"/>
      <point x="200" y="495" type="curve" smooth="yes"/>
    </contour>
    <contour>
      <point x="253" y="186" type="line"/>
      <point x="253" y="130"/>
      <point x="233" y="81"/>
      <point x="180" y="81" type="curve" smooth="yes"/>
      <point x="142" y="81"/>
      <point x="126" y="102"/>
      <point x="126" y="135" type="curve" smooth="yes"/>
      <point x="126" y="198"/>
      <point x="188" y="214"/>
      <point x="253" y="214" type="curve"/>
    </contour>
    <contour>
      <point x="254" y="665" type="line"/>
      <point x="252" y="652"/>
      <point x="230" y="634"/>
      <point x="199" y="634" type="curve" smooth="yes"/>
      <point x="170" y="634"/>
      <point x="148" y="652"/>
      <point x="146" y="665" type="curve"/>
      <point x="76" y="665" type="line"/>
      <point x="76" y="619"/>
      <point x="123" y="567"/>
      <point x="199" y="567" type="curve" smooth="yes"/>
      <point x="275" y="567"/>
      <point x="322" y="619"/>
      <point x="322" y="665" type="curve"/>
    </contour>
  </outline>
</glyph>
<glyph name="Aogonek" format="1">
  <advance width="345"/>
  <unicode hex="0104"/>
  <outline>
    <contour>
      <point x="268" y="0" type="line"/>
      <point x="344" y="0" type="line"/>
      <point x="215" y="399" type="line"/>
      <point x="129" y="399" type="line"/>
      <point x="0" y="0" type="line"/>
      <point x="72" y="0" type="line"/>
      <point x="96" y="78" type="line"/>
      <point x="244" y="78" type="line"/>
    </contour>
    <contour>
      <point x="171" y="333" type="line"/>
      <point x="171" y="333"/>
      <point x="177" y="299"/>
      <point x="183" y="279" type="curve" smooth="yes"/>
      <point x="223" y="145" type="line"/>
      <point x="117" y="145" type="line"/>
      <point x="158" y="279" type="line" smooth="yes"/>
      <point x="163" y="297"/>
      <point x="169" y="333"/>
      <point x="169" y="333" type="curve"/>
    </contour>
    <contour>
      <point x="296" y="0" type="line"/>
      <point x="283" y="-16"/>
      <point x="270" y="-29"/>
      <point x="270" y="-58" type="curve" smooth="yes"/>
      <point x="270" y="-98"/>
      <point x="301" y="-111"/>
      <point x="328" y="-111" type="curve" smooth="yes"/>
      <point x="340" y="-111"/>
      <point x="353" y="-108"/>
      <point x="366" y="-103" type="curve"/>
      <point x="366" y="-71" type="line"/>
      <point x="353" y="-71" type="line" smooth="yes"/>
      <point x="334" y="-71"/>
      <point x="327" y="-56"/>
      <point x="327" y="-41" type="curve" smooth="yes"/>
      <point x="327" y="-22"/>
      <point x="337" y="-7"/>
      <point x="344" y="0" type="curve"/>
    </contour>
  </outline>
</glyph>
<glyph name="Cacute" format="1">
  <advance width="345"/>
  <unicode hex="0106"/>
  <outline>
    <contour>
      <point x="78" y="407"/>
      <point x="20" y="341"/>
      <point x="20" y="200" type="curve" smooth="yes"/>
      <point x="20" y="59"/>
      <point x="78" y="-7"/>
      <point x="179" y="-7" type="curve" smooth="yes"/>
      <point x="264" y="-7"/>
      <point x="326" y="43"/>
      <point x="326" y="148" type="curve"/>
      <point x="253" y="148" type="line"/>
      <point x="253" y="86"/>
      <point x="224" y="57"/>
      <point x="181" y="57" type="curve" smooth="yes"/>
      <point x="124" y="57"/>
      <point x="97" y="105"/>
      <point x="97" y="185" type="curve" smooth="yes"/>
      <point x="97" y="214" type="line" smooth="yes"/>
      <point x="97" y="294"/>
      <point x="123" y="343"/>
      <point x="179" y="343" type="curve" smooth="yes"/>
      <point x="221" y="343"/>
      <point x="249" y="313"/>
      <point x="249" y="251" type="curve"/>
      <point x="326" y="251" type="line"/>
      <point x="326" y="359"/>
      <point x="262" y="407"/>
      <point x="179" y="407" type="curve" smooth="yes"/>
    </contour>
    <contour>
      <point x="258" y="515" type="line"/>
      <point x="188" y="515" type="line"/>
      <point x="138" y="438" type="line"/>
      <point x="196" y="438" type="line"/>
      <point x="259" y="513" type="line"/>
    </contour>
  </outline>
</glyph>
<glyph name="Ccircumflex" format="1">
  <advance width="345"/>
  <unicode hex="0108"/>
  <outline>
    <contour>
      <point x="78" y="407"/>
      <point x="20" y="341"/>
      <point x="20" y="200" type="curve" smooth="yes"/>
      <point x="20" y="59"/>
      <point x="78" y="-7"/>
      <point x="179" y="-7" type="curve" smooth="yes"/>
      <point x="264" y="-7"/>
      <point x="326" y="43"/>
      <point x="326" y="148" type="curve"/>
      <point x="253" y="148" type="line"/>
      <point x="253" y="86"/>
      <point x="224" y="57"/>
      <point x="181" y="57" type="curve" smooth="yes"/>
      <point x="124" y="57"/>
      <point x="97" y="105"/>
      <point x="97" y="185" type="curve" smooth="yes"/>
      <point x="97" y="214" type="line" smooth="yes"/>
      <point x="97" y="294"/>
      <point x="123" y="343"/>
      <point x="179" y="343" type="curve" smooth="yes"/>
      <point x="221" y="343"/>
      <point x="249" y="313"/>
      <point x="249" y="251" type="curve"/>
      <point x="326" y="251" type="line"/>
      <point x="326" y="359"/>
      <point x="262" y="407"/>
      <point x="179" y="407" type="curve" smooth="yes"/>
    </contour>
    <contour>
      <point x="257" y="436" type="line"/>
      <point x="208" y="515" type="line"/>
      <point x="150" y="515" type="line"/>
      <point x="100" y="436" type="line"/>
      <point x="153" y="436" type="line"/>
      <point x="179" y="476" type="line"/>
      <point x="205" y="436" type="line"/>
    </contour>
  </outline>
</glyph>
<glyph name="ccircumflex" format="1">
  <advance width="266"/>
  <unicode hex="0109"/>
  <outline>
    <contour>
      <point x="62" y="314"/>
      <point x="24" y="264"/>
      <point x="24" y="153" type="curve" smooth="yes"/>
      <point x="24" y="43"/>
      <point x="60" y="-7"/>
      <point x="140" y="-7" type="curve" smooth="yes"/>
      <point x="204" y="-7"/>
      <point x="244" y="30"/>
      <point x="244" y="115" type="curve"/>
      <point x="175" y="115" type="line"/>
      <point x="175" y="73"/>
      <point x="165" y="52"/>
      <point x="140" y="52" type="curve" smooth="yes"/>
      <point x="108" y="52"/>
      <point x="97" y="83"/>
      <point x="97" y="142" type="curve" smooth="yes"/>
      <point x="97" y="164" type="line" smooth="yes"/>
      <point x="97" y="223"/>
      <point x="108" y="254"/>
      <point x="138" y="254" type="curve" smooth="yes"/>
      <point x="161" y="254"/>
      <point x="173" y="234"/>
      <point x="173" y="191" type="curve"/>
      <point x="244" y="191" type="line"/>
      <point x="244" y="277"/>
      <point x="203" y="314"/>
      <point x="138" y="314" type="curve" smooth="yes"/>
    </contour>
    <contour>
      <point x="217" y="343" type="line"/>
      <point x="167" y="421" type="line"/>
      <point x="110" y="421" type="line"/>
      <point x="60" y="343" type="line"/>
      <point x="113" y="343" type="line"/>
      <point x="138" y="383" type="line"/>
      <point x="164" y="343" type="line"/>
    </contour>
  </outline>
</glyph>
<glyph name="Dcaron" format="1">
  <advance width="345"/>
  <unicode hex="010E"/>
  <outline>
    <contour>
      <point x="177" y="436" type="line"/>
      <point x="226" y="515" type="line"/>
      <point x="173" y="515" type="line"/>
      <point x="148" y="474" type="line"/>
      <point x="122" y="515" type="line"/>
      <point x="69" y="515" type="line"/>
      <point x="119" y="436" type="line"/>
    </contour>
    <contour>
      <point x="35" y="0" type="line"/>
      <point x="165" y="0" type="line" smooth="yes"/>
      <point x="264" y="0"/>
      <point x="325" y="69"/>
      <point x="325" y="206" type="curve" smooth="yes"/>
      <point x="325" y="334"/>
      <point x="264" y="399"/>
      <point x="165" y="399" type="curve" smooth="yes"/>
      <point x="35" y="399" type="line"/>
    </contour>
    <contour>
      <point x="109" y="333" type="line"/>
      <point x="158" y="333" type="line" smooth="yes"/>
      <point x="214" y="333"/>
      <point x="248" y="295"/>
      <point x="248" y="220" type="curve" smooth="yes"/>
      <point x="248" y="191" type="line" smooth="yes"/>
      <point x="248" y="108"/>
      <point x="214" y="67"/>
      <point x="158" y="67" type="curve" smooth="yes"/>
      <point x="109" y="67" type="line"/>
    </contour>
  </outline>
</glyph>
<glyph name="Emacron" format="1">
  <advance width="503"/>
  <unicode hex="0112"/>
  <outline>
    <contour>
      <point x="368" y="698" type="line"/>
      <point x="368" y="778" type="line"/>
      <point x="134" y="778" type="line"/>
      <point x="134" y="698" type="line"/>
    </contour>
    <contour>
      <point x="55" y="0" type="line"/>
      <point x="463" y="0" type="line"/>
      <point x="463" y="105" type="line"/>
      <point x="173" y="105" type="line"/>
      <point x="173" y="270" type="line"/>
      <point x="416" y="270" type="line"/>
      <point x="416" y="375" type="line"/>
      <point x="173" y="375" type="line"/>
      <point x="173" y="526" type="line"/>
      <point x="457" y="526" type="line"/>
      <point x="457" y="630" type="line"/>
      <point x="55" y="630" type="line"/>
    </contour>
  </outline>
</glyph>
<glyph name="Ebreve" format="1">
  <advance width="319"/>
  <unicode hex="0114"/>
  <outline>
    <contour>
      <point x="194" y="515" type="line"/>
      <point x="193" y="506"/>
      <point x="179" y="495"/>
      <point x="159" y="495" type="curve" smooth="yes"/>
      <point x="140" y="495"/>
      <point x="127" y="506"/>
      <point x="125" y="515" type="curve"/>
      <point x="82" y="515" type="line"/>
      <point x="82" y="485"/>
      <point x="111" y="452"/>
      <point x="159" y="452" type="curve" smooth="yes"/>
      <point x="208" y="452"/>
      <point x="237" y="485"/>
      <point x="237" y="515" type="curve"/>
    </contour>
    <contour>
      <point x="35" y="0" type="line"/>
      <point x="293" y="0" type="line"/>
      <point x="293" y="67" type="line"/>
      <point x="109" y="67" type="line"/>
      <point x="109" y="171" type="line"/>
      <point x="264" y="171" type="line"/>
      <point x="264" y="238" type="line"/>
      <point x="109" y="238" type="line"/>
      <point x="109" y="333" type="line"/>
      <point x="289" y="333" type="line"/>
      <point x="289" y="399" type="line"/>
      <point x="35" y="399" type="line"/>
    </contour>
  </outline>
</glyph>
<glyph name="Edotaccent" format="1">
  <advance width="319"/>
  <unicode hex="0116"/>
  <outline>
    <contour>
      <point x="190" y="447" type="line"/>
      <point x="190" y="515" type="line"/>
      <point x="128" y="515" type="line"/>
      <point x="128" y="447" type="line"/>
    </contour>
    <contour>
      <point x="35" y="0" type="line"/>
      <point x="293" y="0" type="line"/>
      <point x="293" y="67" type="line"/>
      <point x="109" y="67" type="line"/>
      <point x="109" y="171" type="line"/>
      <point x="264" y="171" type="line"/>
      <point x="264" y="238" type="line"/>
      <point x="109" y="238" type="line"/>
      <point x="109" y="333" type="line"/>
      <point x="289" y="333" type="line"/>
      <point x="289" y="399" type="line"/>
      <point x="35" y="399" type="line"/>
    </contour>
  </outline>
</glyph>
<glyph name="Eogonek" format="1">
  <advance width="319"/>
  <unicode hex="0118"/>
  <outline>
    <contour>
      <point x="289" y="333" type="line"/>
      <point x="289" y="399" type="line"/>
      <point x="35" y="399" type="line"/>
      <point x="35" y="0" type="line"/>
      <point x="244" y="0" type="line"/>
      <point x="230" y="-14"/>
      <point x="218" y="-31"/>
      <point x="218" y="-58" type="curve" smooth="yes"/>
      <point x="218" y="-98"/>
      <point x="249" y="-111"/>
      <point x="276" y="-111" type="curve" smooth="yes"/>
      <point x="289" y="-111"/>
      <point x="301" y="-108"/>
      <point x="314" y="-103" type="curve"/>
      <point x="314" y="-71" type="line"/>
      <point x="302" y="-71" type="line" smooth="yes"/>
      <point x="283" y="-71"/>
      <point x="275" y="-56"/>
      <point x="275" y="-41" type="curve" smooth="yes"/>
      <point x="275" y="-24"/>
      <point x="286" y="-8"/>
      <point x="293" y="0" type="curve"/>
      <point x="293" y="67" type="line"/>
      <point x="109" y="67" type="line"/>
      <point x="109" y="171" type="line"/>
      <point x="264" y="171" type="line"/>
      <point x="264" y="238" type="line"/>
      <point x="109" y="238" type="line"/>
      <point x="109" y="333" type="line"/>
    </contour>
  </outline>
</glyph>
<glyph name="eogonek" format="1">
  <advance width="419"/>
  <unicode hex="0119"/>
  <outline>
    <contour>
      <point x="95" y="495"/>
      <point x="28" y="416"/>
      <point x="28" y="241" type="curve" smooth="yes"/>
      <point x="28" y="68"/>
      <point x="94" y="-11"/>
      <point x="218" y="-11" type="curve" smooth="yes"/>
      <point x="226" y="-11"/>
      <point x="234" y="-11"/>
      <point x="241" y="-10" type="curve"/>
      <point x="227" y="11" type="line"/>
      <point x="202" y="-14"/>
      <point x="180" y="-40"/>
      <point x="180" y="-87" type="curve" smooth="yes"/>
      <point x="180" y="-151"/>
      <point x="230" y="-171"/>
      <point x="271" y="-171" type="curve" smooth="yes"/>
      <point x="291" y="-171"/>
      <point x="311" y="-165"/>
      <point x="332" y="-157" type="curve"/>
      <point x="332" y="-107" type="line"/>
      <point x="312" y="-107" type="line" smooth="yes"/>
      <point x="282" y="-107"/>
      <point x="270" y="-83"/>
      <point x="270" y="-59" type="curve" smooth="yes"/>
      <point x="270" y="-34"/>
      <point x="287" y="-8"/>
      <point x="297" y="4" type="curve"/>
      <point x="353" y="29"/>
      <point x="389" y="83"/>
      <point x="389" y="171" type="curve"/>
      <point x="280" y="171" type="line"/>
      <point x="280" y="113"/>
      <point x="256" y="79"/>
      <point x="218" y="79" type="curve" smooth="yes"/>
      <point x="163" y="79"/>
      <point x="145" y="128"/>
      <point x="144" y="214" type="curve"/>
      <point x="389" y="214" type="line"/>
      <point x="389" y="241" type="line" smooth="yes"/>
      <point x="389" y="416"/>
      <point x="331" y="495"/>
      <point x="214" y="495" type="curve" smooth="yes"/>
    </contour>
    <contour>
      <point x="255" y="405"/>
      <point x="274" y="364"/>
      <point x="274" y="294" type="curve"/>
      <point x="145" y="294" type="line"/>
      <point x="148" y="364"/>
      <point x="167" y="405"/>
      <point x="214" y="405" type="curve" smooth="yes"/>
    </contour>
  </outline>
</glyph>
<glyph name="Ecaron" format="1">
  <advance width="319"/>
  <unicode hex="011A"/>
  <outline>
    <contour>
      <point x="188" y="436" type="line"/>
      <point x="238" y="515" type="line"/>
      <point x="185" y="515" type="line"/>
      <point x="159" y="474" type="line"/>
      <point x="133" y="515" type="line"/>
      <point x="81" y="515" type="line"/>
      <point x="131" y="436" type="line"/>
    </contour>
    <contour>
      <point x="35" y="0" type="line"/>
      <point x="293" y="0" type="line"/>
      <point x="293" y="67" type="line"/>
      <point x="109" y="67" type="line"/>
      <point x="109" y="171" type="line"/>
      <point x="264" y="171" type="line"/>
      <point x="264" y="238" type="line"/>
      <point x="109" y="238" type="line"/>
      <point x="109" y="333" type="line"/>
      <point x="289" y="333" type="line"/>
      <point x="289" y="399" type="line"/>
      <point x="35" y="399" type="line"/>
    </contour>
  </outline>
</glyph>
